
<svg xmlns="http://www.w3.org/2000/svg" version="1.1" xmlns:xlink="http://www.w3.org/1999/xlink" preserveAspectRatio="none" x="0px" y="0px" width="680px" height="175px" viewBox="0 0 680 175">
<defs>
<g id="FL_07_common_page_elements_uid990za2kt_07_common_page_elements_outputBox_White_DropShadow_0_Layer1_0_FILL">
<path fill="#4E4C4D" fill-opacity="0.01568627450980392" stroke="none" d="
M 438 5
Q 438 2.95 436.55 1.5 435.05 0 433 0
L 5 0
Q 2.95 0 1.5 1.5 0 2.95 0 5
L 0 103
Q 0 105.05 1.5 106.55 2.95 108 5 108
L 433 108
Q 435.05 108 436.55 106.55 438 105.05 438 103
L 438 5
M 436.5 1.55
Q 437.9 2.95 437.9 5
L 437.9 103
Q 437.9 105.05 436.5 106.5 435.05 107.9 433 107.9
L 5 107.9
Q 2.95 107.9 1.55 106.5 0.1 105.05 0.1 103
L 0.1 5
Q 0.1 2.95 1.55 1.55 2.95 0.1 5 0.1
L 433 0.1
Q 435.05 0.1 436.5 1.55 Z"/>

<path fill="#4E4C4D" fill-opacity="0.03529411764705882" stroke="none" d="
M 437.9 5
Q 437.9 2.95 436.5 1.55 435.05 0.1 433 0.1
L 5 0.1
Q 2.95 0.1 1.55 1.55 0.1 2.95 0.1 5
L 0.1 103
Q 0.1 105.05 1.55 106.5 2.95 107.9 5 107.9
L 433 107.9
Q 435.05 107.9 436.5 106.5 437.9 105.05 437.9 103
L 437.9 5
M 436.4 1.6
Q 437.8 3 437.8 5
L 437.8 103
Q 437.8 105 436.4 106.4 435 107.8 433 107.8
L 5 107.8
Q 3 107.8 1.6 106.4 0.2 105 0.2 103
L 0.2 5
Q 0.2 3 1.6 1.6 3 0.2 5 0.2
L 433 0.2
Q 435 0.2 436.4 1.6 Z"/>

<path fill="#4E4C4D" fill-opacity="0.054901960784313725" stroke="none" d="
M 437.8 5
Q 437.8 3 436.4 1.6 435 0.2 433 0.2
L 5 0.2
Q 3 0.2 1.6 1.6 0.2 3 0.2 5
L 0.2 103
Q 0.2 105 1.6 106.4 3 107.8 5 107.8
L 433 107.8
Q 435 107.8 436.4 106.4 437.8 105 437.8 103
L 437.8 5
M 436.35 1.7
Q 437.7 3.05 437.7 5
L 437.7 103
Q 437.7 104.95 436.35 106.35 434.95 107.7 433 107.7
L 5 107.7
Q 3.05 107.7 1.7 106.35 0.3 104.95 0.3 103
L 0.3 5
Q 0.3 3.05 1.7 1.7 3.05 0.3 5 0.3
L 433 0.3
Q 434.95 0.3 436.35 1.7 Z"/>

<path fill="#4E4C4D" fill-opacity="0.07450980392156863" stroke="none" d="
M 437.7 5
Q 437.7 3.05 436.35 1.7 434.95 0.3 433 0.3
L 5 0.3
Q 3.05 0.3 1.7 1.7 0.3 3.05 0.3 5
L 0.3 103
Q 0.3 104.95 1.7 106.35 3.05 107.7 5 107.7
L 433 107.7
Q 434.95 107.7 436.35 106.35 437.7 104.95 437.7 103
L 437.7 5
M 436.25 1.75
Q 437.6 3.1 437.6 5
L 437.6 103
Q 437.6 104.9 436.25 106.25 434.9 107.6 433 107.6
L 5 107.6
Q 3.1 107.6 1.75 106.25 0.4 104.9 0.4 103
L 0.4 5
Q 0.4 3.1 1.75 1.75 3.1 0.4 5 0.4
L 433 0.4
Q 434.9 0.4 436.25 1.75 Z"/>

<path fill="#4E4C4D" fill-opacity="0.09411764705882353" stroke="none" d="
M 437.6 5
Q 437.6 3.1 436.25 1.75 434.9 0.4 433 0.4
L 5 0.4
Q 3.1 0.4 1.75 1.75 0.4 3.1 0.4 5
L 0.4 103
Q 0.4 104.9 1.75 106.25 3.1 107.6 5 107.6
L 433 107.6
Q 434.9 107.6 436.25 106.25 437.6 104.9 437.6 103
L 437.6 5
M 436.2 1.85
Q 437.5 3.15 437.5 5
L 437.5 103
Q 437.5 104.85 436.2 106.2 434.85 107.5 433 107.5
L 5 107.5
Q 3.15 107.5 1.85 106.2 0.5 104.85 0.5 103
L 0.5 5
Q 0.5 3.15 1.85 1.85 3.15 0.5 5 0.5
L 433 0.5
Q 434.85 0.5 436.2 1.85 Z"/>

<path fill="#4E4C4D" fill-opacity="0.11372549019607843" stroke="none" d="
M 437.5 5
Q 437.5 3.15 436.2 1.85 434.85 0.5 433 0.5
L 5 0.5
Q 3.15 0.5 1.85 1.85 0.5 3.15 0.5 5
L 0.5 103
Q 0.5 104.85 1.85 106.2 3.15 107.5 5 107.5
L 433 107.5
Q 434.85 107.5 436.2 106.2 437.5 104.85 437.5 103
L 437.5 5
M 436.1 1.9
Q 437.4 3.2 437.4 5
L 437.4 103
Q 437.4 104.8 436.1 106.1 434.8 107.4 433 107.4
L 5 107.4
Q 3.2 107.4 1.9 106.1 0.6 104.8 0.6 103
L 0.6 5
Q 0.6 3.2 1.9 1.9 3.2 0.6 5 0.6
L 433 0.6
Q 434.8 0.6 436.1 1.9 Z"/>

<path fill="#4E4C4D" fill-opacity="0.13333333333333333" stroke="none" d="
M 437.4 5
Q 437.4 3.2 436.1 1.9 434.8 0.6 433 0.6
L 5 0.6
Q 3.2 0.6 1.9 1.9 0.6 3.2 0.6 5
L 0.6 103
Q 0.6 104.8 1.9 106.1 3.2 107.4 5 107.4
L 433 107.4
Q 434.8 107.4 436.1 106.1 437.4 104.8 437.4 103
L 437.4 5
M 436.05 1.95
Q 437.3 3.2 437.3 5
L 437.3 103
Q 437.3 104.8 436.05 106.05 434.8 107.3 433 107.3
L 5 107.3
Q 3.2 107.3 1.95 106.05 0.7 104.8 0.7 103
L 0.7 5
Q 0.7 3.2 1.95 1.95 3.2 0.7 5 0.7
L 433 0.7
Q 434.8 0.7 436.05 1.95 Z"/>

<path fill="#4E4C4D" fill-opacity="0.15294117647058825" stroke="none" d="
M 437.3 5
Q 437.3 3.2 436.05 1.95 434.8 0.7 433 0.7
L 5 0.7
Q 3.2 0.7 1.95 1.95 0.7 3.2 0.7 5
L 0.7 103
Q 0.7 104.8 1.95 106.05 3.2 107.3 5 107.3
L 433 107.3
Q 434.8 107.3 436.05 106.05 437.3 104.8 437.3 103
L 437.3 5
M 436 2.05
Q 437.2 3.25 437.2 5
L 437.2 103
Q 437.2 104.75 436 106 434.75 107.2 433 107.2
L 5 107.2
Q 3.25 107.2 2.05 106 0.8 104.75 0.8 103
L 0.8 5
Q 0.8 3.25 2.05 2.05 3.25 0.8 5 0.8
L 433 0.8
Q 434.75 0.8 436 2.05 Z"/>

<path fill="#4E4C4D" fill-opacity="0.17647058823529413" stroke="none" d="
M 437.2 5
Q 437.2 3.25 436 2.05 434.75 0.8 433 0.8
L 5 0.8
Q 3.25 0.8 2.05 2.05 0.8 3.25 0.8 5
L 0.8 103
Q 0.8 104.75 2.05 106 3.25 107.2 5 107.2
L 433 107.2
Q 434.75 107.2 436 106 437.2 104.75 437.2 103
L 437.2 5
M 435.9 2.1
Q 437.1 3.3 437.1 5
L 437.1 103
Q 437.1 104.7 435.9 105.9 434.7 107.1 433 107.1
L 5 107.1
Q 3.3 107.1 2.1 105.9 0.9 104.7 0.9 103
L 0.9 5
Q 0.9 3.3 2.1 2.1 3.3 0.9 5 0.9
L 433 0.9
Q 434.7 0.9 435.9 2.1 Z"/>

<path fill="#4E4C4D" fill-opacity="0.19607843137254902" stroke="none" d="
M 437.1 5
Q 437.1 3.3 435.9 2.1 434.7 0.9 433 0.9
L 5 0.9
Q 3.3 0.9 2.1 2.1 0.9 3.3 0.9 5
L 0.9 103
Q 0.9 104.7 2.1 105.9 3.3 107.1 5 107.1
L 433 107.1
Q 434.7 107.1 435.9 105.9 437.1 104.7 437.1 103
L 437.1 5
M 435.85 2.2
Q 437 3.35 437 5
L 437 103
Q 437 104.65 435.85 105.85 434.65 107 433 107
L 5 107
Q 3.35 107 2.2 105.85 1 104.65 1 103
L 1 5
Q 1 3.35 2.2 2.2 3.35 1 5 1
L 433 1
Q 434.65 1 435.85 2.2 Z"/>

<path fill="#4E4C4D" fill-opacity="0.21568627450980393" stroke="none" d="
M 437 5
Q 437 3.35 435.85 2.2 434.65 1 433 1
L 5 1
Q 3.35 1 2.2 2.2 1 3.35 1 5
L 1 103
Q 1 104.65 2.2 105.85 3.35 107 5 107
L 433 107
Q 434.65 107 435.85 105.85 437 104.65 437 103
L 437 5
M 435.75 2.25
Q 436.9 3.4 436.9 5
L 436.9 103
Q 436.9 104.6 435.75 105.75 434.6 106.9 433 106.9
L 5 106.9
Q 3.4 106.9 2.25 105.75 1.1 104.6 1.1 103
L 1.1 5
Q 1.1 3.4 2.25 2.25 3.4 1.1 5 1.1
L 433 1.1
Q 434.6 1.1 435.75 2.25 Z"/>

<path fill="#4E4C4D" fill-opacity="0.23529411764705882" stroke="none" d="
M 436.9 5
Q 436.9 3.4 435.75 2.25 434.6 1.1 433 1.1
L 5 1.1
Q 3.4 1.1 2.25 2.25 1.1 3.4 1.1 5
L 1.1 103
Q 1.1 104.6 2.25 105.75 3.4 106.9 5 106.9
L 433 106.9
Q 434.6 106.9 435.75 105.75 436.9 104.6 436.9 103
L 436.9 5
M 435.7 2.35
Q 436.8 3.45 436.8 5
L 436.8 103
Q 436.8 104.55 435.7 105.7 434.55 106.8 433 106.8
L 5 106.8
Q 3.45 106.8 2.35 105.7 1.2 104.55 1.2 103
L 1.2 5
Q 1.2 3.45 2.35 2.35 3.45 1.2 5 1.2
L 433 1.2
Q 434.55 1.2 435.7 2.35 Z"/>

<path fill="#4E4C4D" fill-opacity="0.2549019607843137" stroke="none" d="
M 436.8 5
Q 436.8 3.45 435.7 2.35 434.55 1.2 433 1.2
L 5 1.2
Q 3.45 1.2 2.35 2.35 1.2 3.45 1.2 5
L 1.2 103
Q 1.2 104.55 2.35 105.7 3.45 106.8 5 106.8
L 433 106.8
Q 434.55 106.8 435.7 105.7 436.8 104.55 436.8 103
L 436.8 5
M 435.65 2.4
Q 436.7 3.45 436.7 5
L 436.7 103
Q 436.7 104.55 435.65 105.65 434.55 106.7 433 106.7
L 5 106.7
Q 3.45 106.7 2.4 105.65 1.3 104.55 1.3 103
L 1.3 5
Q 1.3 3.45 2.4 2.4 3.45 1.3 5 1.3
L 433 1.3
Q 434.55 1.3 435.65 2.4 Z"/>

<path fill="#4E4C4D" fill-opacity="0.27450980392156865" stroke="none" d="
M 436.7 5
Q 436.7 3.45 435.65 2.4 434.55 1.3 433 1.3
L 5 1.3
Q 3.45 1.3 2.4 2.4 1.3 3.45 1.3 5
L 1.3 103
Q 1.3 104.55 2.4 105.65 3.45 106.7 5 106.7
L 433 106.7
Q 434.55 106.7 435.65 105.65 436.7 104.55 436.7 103
L 436.7 5
M 435.55 2.45
Q 436.6 3.5 436.6 5
L 436.6 103
Q 436.6 104.5 435.55 105.55 434.5 106.6 433 106.6
L 5 106.6
Q 3.5 106.6 2.45 105.55 1.4 104.5 1.4 103
L 1.4 5
Q 1.4 3.5 2.45 2.45 3.5 1.4 5 1.4
L 433 1.4
Q 434.5 1.4 435.55 2.45 Z"/>

<path fill="#4E4C4D" fill-opacity="0.29411764705882354" stroke="none" d="
M 436.6 5
Q 436.6 3.5 435.55 2.45 434.5 1.4 433 1.4
L 5 1.4
Q 3.5 1.4 2.45 2.45 1.4 3.5 1.4 5
L 1.4 103
Q 1.4 104.5 2.45 105.55 3.5 106.6 5 106.6
L 433 106.6
Q 434.5 106.6 435.55 105.55 436.6 104.5 436.6 103
L 436.6 5
M 435.5 2.55
Q 436.5 3.55 436.5 5
L 436.5 103
Q 436.5 104.45 435.5 105.5 434.45 106.5 433 106.5
L 5 106.5
Q 3.55 106.5 2.55 105.5 1.5 104.45 1.5 103
L 1.5 5
Q 1.5 3.55 2.55 2.55 3.55 1.5 5 1.5
L 433 1.5
Q 434.45 1.5 435.5 2.55 Z"/>

<path fill="#4E4C4D" fill-opacity="0.3137254901960784" stroke="none" d="
M 436.5 5
Q 436.5 3.55 435.5 2.55 434.45 1.5 433 1.5
L 5 1.5
Q 3.55 1.5 2.55 2.55 1.5 3.55 1.5 5
L 1.5 103
Q 1.5 104.45 2.55 105.5 3.55 106.5 5 106.5
L 433 106.5
Q 434.45 106.5 435.5 105.5 436.5 104.45 436.5 103
L 436.5 5
M 435.4 2.6
Q 436.4 3.6 436.4 5
L 436.4 103
Q 436.4 104.4 435.4 105.4 434.4 106.4 433 106.4
L 5 106.4
Q 3.6 106.4 2.6 105.4 1.6 104.4 1.6 103
L 1.6 5
Q 1.6 3.6 2.6 2.6 3.6 1.6 5 1.6
L 433 1.6
Q 434.4 1.6 435.4 2.6 Z"/>

<path fill="#4E4C4D" fill-opacity="0.33725490196078434" stroke="none" d="
M 436.4 5
Q 436.4 3.6 435.4 2.6 434.4 1.6 433 1.6
L 5 1.6
Q 3.6 1.6 2.6 2.6 1.6 3.6 1.6 5
L 1.6 103
Q 1.6 104.4 2.6 105.4 3.6 106.4 5 106.4
L 433 106.4
Q 434.4 106.4 435.4 105.4 436.4 104.4 436.4 103
L 436.4 5
M 433 1.7
Q 434.35 1.7 435.35 2.7 436.3 3.65 436.3 5
L 436.3 103
Q 436.3 104.35 435.35 105.35 434.35 106.3 433 106.3
L 5 106.3
Q 3.65 106.3 2.7 105.35 1.7 104.35 1.7 103
L 1.7 5
Q 1.7 3.65 2.7 2.7 3.65 1.7 5 1.7
L 433 1.7 Z"/>

<path fill="#4E4C4D" fill-opacity="0.3568627450980392" stroke="none" d="
M 435.35 2.7
Q 434.35 1.7 433 1.7
L 5 1.7
Q 3.65 1.7 2.7 2.7 1.7 3.65 1.7 5
L 1.7 103
Q 1.7 104.35 2.7 105.35 3.65 106.3 5 106.3
L 433 106.3
Q 434.35 106.3 435.35 105.35 436.3 104.35 436.3 103
L 436.3 5
Q 436.3 3.65 435.35 2.7
M 433 1.8
Q 434.35 1.8 435.3 2.75 436.2 3.65 436.2 5
L 436.2 103
Q 436.2 104.35 435.3 105.3 434.35 106.2 433 106.2
L 5 106.2
Q 3.65 106.2 2.75 105.3 1.8 104.35 1.8 103
L 1.8 5
Q 1.8 3.65 2.75 2.75 3.65 1.8 5 1.8
L 433 1.8 Z"/>

<path fill="#4E4C4D" fill-opacity="0.3764705882352941" stroke="none" d="
M 435.3 2.75
Q 434.35 1.8 433 1.8
L 5 1.8
Q 3.65 1.8 2.75 2.75 1.8 3.65 1.8 5
L 1.8 103
Q 1.8 104.35 2.75 105.3 3.65 106.2 5 106.2
L 433 106.2
Q 434.35 106.2 435.3 105.3 436.2 104.35 436.2 103
L 436.2 5
Q 436.2 3.65 435.3 2.75
M 433 1.9
Q 434.3 1.9 435.2 2.8 436.1 3.7 436.1 5
L 436.1 103
Q 436.1 104.3 435.2 105.2 434.3 106.1 433 106.1
L 5 106.1
Q 3.7 106.1 2.8 105.2 1.9 104.3 1.9 103
L 1.9 5
Q 1.9 3.7 2.8 2.8 3.7 1.9 5 1.9
L 433 1.9 Z"/>

<path fill="#4E4C4D" fill-opacity="0.396078431372549" stroke="none" d="
M 435.2 2.8
Q 434.3 1.9 433 1.9
L 5 1.9
Q 3.7 1.9 2.8 2.8 1.9 3.7 1.9 5
L 1.9 103
Q 1.9 104.3 2.8 105.2 3.7 106.1 5 106.1
L 433 106.1
Q 434.3 106.1 435.2 105.2 436.1 104.3 436.1 103
L 436.1 5
Q 436.1 3.7 435.2 2.8
M 433 2
Q 434.25 2 435.15 2.9 436 3.75 436 5
L 436 103
Q 436 104.25 435.15 105.15 434.25 106 433 106
L 5 106
Q 3.75 106 2.9 105.15 2 104.25 2 103
L 2 5
Q 2 3.75 2.9 2.9 3.75 2 5 2
L 433 2 Z"/>

<path fill="#4E4C4D" fill-opacity="0.41568627450980394" stroke="none" d="
M 435.15 2.9
Q 434.25 2 433 2
L 5 2
Q 3.75 2 2.9 2.9 2 3.75 2 5
L 2 103
Q 2 104.25 2.9 105.15 3.75 106 5 106
L 433 106
Q 434.25 106 435.15 105.15 436 104.25 436 103
L 436 5
Q 436 3.75 435.15 2.9
M 433 2.1
Q 434.2 2.1 435.05 2.95 435.9 3.8 435.9 5
L 435.9 103
Q 435.9 104.2 435.05 105.05 434.2 105.9 433 105.9
L 5 105.9
Q 3.8 105.9 2.95 105.05 2.1 104.2 2.1 103
L 2.1 5
Q 2.1 3.8 2.95 2.95 3.8 2.1 5 2.1
L 433 2.1 Z"/>

<path fill="#4E4C4D" fill-opacity="0.43529411764705883" stroke="none" d="
M 435.05 2.95
Q 434.2 2.1 433 2.1
L 5 2.1
Q 3.8 2.1 2.95 2.95 2.1 3.8 2.1 5
L 2.1 103
Q 2.1 104.2 2.95 105.05 3.8 105.9 5 105.9
L 433 105.9
Q 434.2 105.9 435.05 105.05 435.9 104.2 435.9 103
L 435.9 5
Q 435.9 3.8 435.05 2.95
M 433 2.2
Q 434.15 2.2 435 3.05 435.8 3.85 435.8 5
L 435.8 103
Q 435.8 104.15 435 105 434.15 105.8 433 105.8
L 5 105.8
Q 3.85 105.8 3.05 105 2.2 104.15 2.2 103
L 2.2 5
Q 2.2 3.85 3.05 3.05 3.85 2.2 5 2.2
L 433 2.2 Z"/>

<path fill="#4E4C4D" fill-opacity="0.4549019607843137" stroke="none" d="
M 435 3.05
Q 434.15 2.2 433 2.2
L 5 2.2
Q 3.85 2.2 3.05 3.05 2.2 3.85 2.2 5
L 2.2 103
Q 2.2 104.15 3.05 105 3.85 105.8 5 105.8
L 433 105.8
Q 434.15 105.8 435 105 435.8 104.15 435.8 103
L 435.8 5
Q 435.8 3.85 435 3.05
M 433 2.3
Q 434.1 2.3 434.9 3.1 435.7 3.9 435.7 5
L 435.7 103
Q 435.7 104.1 434.9 104.9 434.1 105.7 433 105.7
L 5 105.7
Q 3.9 105.7 3.1 104.9 2.3 104.1 2.3 103
L 2.3 5
Q 2.3 3.9 3.1 3.1 3.9 2.3 5 2.3
L 433 2.3 Z"/>

<path fill="#4E4C4D" fill-opacity="0.4745098039215686" stroke="none" d="
M 434.9 3.1
Q 434.1 2.3 433 2.3
L 5 2.3
Q 3.9 2.3 3.1 3.1 2.3 3.9 2.3 5
L 2.3 103
Q 2.3 104.1 3.1 104.9 3.9 105.7 5 105.7
L 433 105.7
Q 434.1 105.7 434.9 104.9 435.7 104.1 435.7 103
L 435.7 5
Q 435.7 3.9 434.9 3.1
M 433 2.4
Q 434.1 2.4 434.85 3.15 435.6 3.9 435.6 5
L 435.6 103
Q 435.6 104.1 434.85 104.85 434.1 105.6 433 105.6
L 5 105.6
Q 3.9 105.6 3.15 104.85 2.4 104.1 2.4 103
L 2.4 5
Q 2.4 3.9 3.15 3.15 3.9 2.4 5 2.4
L 433 2.4 Z"/>

<path fill="#4E4C4D" fill-opacity="0.4980392156862745" stroke="none" d="
M 434.85 3.15
Q 434.1 2.4 433 2.4
L 5 2.4
Q 3.9 2.4 3.15 3.15 2.4 3.9 2.4 5
L 2.4 103
Q 2.4 104.1 3.15 104.85 3.9 105.6 5 105.6
L 433 105.6
Q 434.1 105.6 434.85 104.85 435.6 104.1 435.6 103
L 435.6 5
Q 435.6 3.9 434.85 3.15
M 433 2.5
Q 434.05 2.5 434.8 3.25 435.5 3.95 435.5 5
L 435.5 103
Q 435.5 104.05 434.8 104.8 434.05 105.5 433 105.5
L 5 105.5
Q 3.95 105.5 3.25 104.8 2.5 104.05 2.5 103
L 2.5 5
Q 2.5 3.95 3.25 3.25 3.95 2.5 5 2.5
L 433 2.5 Z"/>

<path fill="#4E4C4D" fill-opacity="0.5176470588235295" stroke="none" d="
M 434.8 3.25
Q 434.05 2.5 433 2.5
L 5 2.5
Q 3.95 2.5 3.25 3.25 2.5 3.95 2.5 5
L 2.5 103
Q 2.5 104.05 3.25 104.8 3.95 105.5 5 105.5
L 433 105.5
Q 434.05 105.5 434.8 104.8 435.5 104.05 435.5 103
L 435.5 5
Q 435.5 3.95 434.8 3.25
M 433 2.6
Q 434 2.6 434.7 3.3 435.4 4 435.4 5
L 435.4 103
Q 435.4 104 434.7 104.7 434 105.4 433 105.4
L 5 105.4
Q 4 105.4 3.3 104.7 2.6 104 2.6 103
L 2.6 5
Q 2.6 4 3.3 3.3 4 2.6 5 2.6
L 433 2.6 Z"/>

<path fill="#4E4C4D" fill-opacity="0.5372549019607843" stroke="none" d="
M 434.7 3.3
Q 434 2.6 433 2.6
L 5 2.6
Q 4 2.6 3.3 3.3 2.6 4 2.6 5
L 2.6 103
Q 2.6 104 3.3 104.7 4 105.4 5 105.4
L 433 105.4
Q 434 105.4 434.7 104.7 435.4 104 435.4 103
L 435.4 5
Q 435.4 4 434.7 3.3
M 434.65 3.4
Q 435.3 4.05 435.3 5
L 435.3 103
Q 435.3 103.95 434.65 104.65 433.95 105.3 433 105.3
L 5 105.3
Q 4.05 105.3 3.4 104.65 2.7 103.95 2.7 103
L 2.7 5
Q 2.7 4.05 3.4 3.4 4.05 2.7 5 2.7
L 433 2.7
Q 433.95 2.7 434.65 3.4 Z"/>

<path fill="#4E4C4D" fill-opacity="0.5568627450980392" stroke="none" d="
M 435.3 5
Q 435.3 4.05 434.65 3.4 433.95 2.7 433 2.7
L 5 2.7
Q 4.05 2.7 3.4 3.4 2.7 4.05 2.7 5
L 2.7 103
Q 2.7 103.95 3.4 104.65 4.05 105.3 5 105.3
L 433 105.3
Q 433.95 105.3 434.65 104.65 435.3 103.95 435.3 103
L 435.3 5
M 434.55 3.45
Q 435.2 4.1 435.2 5
L 435.2 103
Q 435.2 103.9 434.55 104.55 433.9 105.2 433 105.2
L 5 105.2
Q 4.1 105.2 3.45 104.55 2.8 103.9 2.8 103
L 2.8 5
Q 2.8 4.1 3.45 3.45 4.1 2.8 5 2.8
L 433 2.8
Q 433.9 2.8 434.55 3.45 Z"/>

<path fill="#4E4C4D" fill-opacity="0.5764705882352941" stroke="none" d="
M 435.2 5
Q 435.2 4.1 434.55 3.45 433.9 2.8 433 2.8
L 5 2.8
Q 4.1 2.8 3.45 3.45 2.8 4.1 2.8 5
L 2.8 103
Q 2.8 103.9 3.45 104.55 4.1 105.2 5 105.2
L 433 105.2
Q 433.9 105.2 434.55 104.55 435.2 103.9 435.2 103
L 435.2 5
M 434.5 3.55
Q 435.1 4.15 435.1 5
L 435.1 103
Q 435.1 103.85 434.5 104.5 433.85 105.1 433 105.1
L 5 105.1
Q 4.15 105.1 3.55 104.5 2.9 103.85 2.9 103
L 2.9 5
Q 2.9 4.15 3.55 3.55 4.15 2.9 5 2.9
L 433 2.9
Q 433.85 2.9 434.5 3.55 Z"/>

<path fill="#4E4C4D" fill-opacity="0.596078431372549" stroke="none" d="
M 435.1 5
Q 435.1 4.15 434.5 3.55 433.85 2.9 433 2.9
L 5 2.9
Q 4.15 2.9 3.55 3.55 2.9 4.15 2.9 5
L 2.9 103
Q 2.9 103.85 3.55 104.5 4.15 105.1 5 105.1
L 433 105.1
Q 433.85 105.1 434.5 104.5 435.1 103.85 435.1 103
L 435.1 5
M 434.45 3.6
Q 435 4.15 435 5
L 435 103
Q 435 103.85 434.45 104.45 433.85 105 433 105
L 5 105
Q 4.15 105 3.6 104.45 3 103.85 3 103
L 3 5
Q 3 4.15 3.6 3.6 4.15 3 5 3
L 433 3
Q 433.85 3 434.45 3.6 Z"/>

<path fill="#4E4C4D" fill-opacity="0.615686274509804" stroke="none" d="
M 435 5
Q 435 4.15 434.45 3.6 433.85 3 433 3
L 5 3
Q 4.15 3 3.6 3.6 3 4.15 3 5
L 3 103
Q 3 103.85 3.6 104.45 4.15 105 5 105
L 433 105
Q 433.85 105 434.45 104.45 435 103.85 435 103
L 435 5
M 433 3.1
Q 433.8 3.1 434.35 3.65 434.9 4.2 434.9 5
L 434.9 103
Q 434.9 103.8 434.35 104.35 433.8 104.9 433 104.9
L 5 104.9
Q 4.2 104.9 3.65 104.35 3.1 103.8 3.1 103
L 3.1 5
Q 3.1 4.2 3.65 3.65 4.2 3.1 5 3.1
L 433 3.1 Z"/>

<path fill="#4E4C4D" fill-opacity="0.6352941176470588" stroke="none" d="
M 434.35 3.65
Q 433.8 3.1 433 3.1
L 5 3.1
Q 4.2 3.1 3.65 3.65 3.1 4.2 3.1 5
L 3.1 103
Q 3.1 103.8 3.65 104.35 4.2 104.9 5 104.9
L 433 104.9
Q 433.8 104.9 434.35 104.35 434.9 103.8 434.9 103
L 434.9 5
Q 434.9 4.2 434.35 3.65
M 434.3 3.75
Q 434.8 4.25 434.8 5
L 434.8 103
Q 434.8 103.75 434.3 104.3 433.75 104.8 433 104.8
L 5 104.8
Q 4.25 104.8 3.75 104.3 3.2 103.75 3.2 103
L 3.2 5
Q 3.2 4.25 3.75 3.75 4.25 3.2 5 3.2
L 433 3.2
Q 433.75 3.2 434.3 3.75 Z"/>

<path fill="#4E4C4D" fill-opacity="0.6549019607843137" stroke="none" d="
M 434.8 5
Q 434.8 4.25 434.3 3.75 433.75 3.2 433 3.2
L 5 3.2
Q 4.25 3.2 3.75 3.75 3.2 4.25 3.2 5
L 3.2 103
Q 3.2 103.75 3.75 104.3 4.25 104.8 5 104.8
L 433 104.8
Q 433.75 104.8 434.3 104.3 434.8 103.75 434.8 103
L 434.8 5
M 434.2 3.8
Q 434.7 4.3 434.7 5
L 434.7 103
Q 434.7 103.7 434.2 104.2 433.7 104.7 433 104.7
L 5 104.7
Q 4.3 104.7 3.8 104.2 3.3 103.7 3.3 103
L 3.3 5
Q 3.3 4.3 3.8 3.8 4.3 3.3 5 3.3
L 433 3.3
Q 433.7 3.3 434.2 3.8 Z"/>

<path fill="#4E4C4D" fill-opacity="0.6784313725490196" stroke="none" d="
M 434.7 5
Q 434.7 4.3 434.2 3.8 433.7 3.3 433 3.3
L 5 3.3
Q 4.3 3.3 3.8 3.8 3.3 4.3 3.3 5
L 3.3 103
Q 3.3 103.7 3.8 104.2 4.3 104.7 5 104.7
L 433 104.7
Q 433.7 104.7 434.2 104.2 434.7 103.7 434.7 103
L 434.7 5
M 433 3.4
Q 433.65 3.4 434.15 3.9 434.6 4.35 434.6 5
L 434.6 103
Q 434.6 103.65 434.15 104.15 433.65 104.6 433 104.6
L 5 104.6
Q 4.35 104.6 3.9 104.15 3.4 103.65 3.4 103
L 3.4 5
Q 3.4 4.35 3.9 3.9 4.35 3.4 5 3.4
L 433 3.4 Z"/>

<path fill="#4E4C4D" fill-opacity="0.6980392156862745" stroke="none" d="
M 434.15 3.9
Q 433.65 3.4 433 3.4
L 5 3.4
Q 4.35 3.4 3.9 3.9 3.4 4.35 3.4 5
L 3.4 103
Q 3.4 103.65 3.9 104.15 4.35 104.6 5 104.6
L 433 104.6
Q 433.65 104.6 434.15 104.15 434.6 103.65 434.6 103
L 434.6 5
Q 434.6 4.35 434.15 3.9
M 433 3.5
Q 433.6 3.5 434.05 3.95 434.5 4.4 434.5 5
L 434.5 103
Q 434.5 103.6 434.05 104.05 433.6 104.5 433 104.5
L 5 104.5
Q 4.4 104.5 3.95 104.05 3.5 103.6 3.5 103
L 3.5 5
Q 3.5 4.4 3.95 3.95 4.4 3.5 5 3.5
L 433 3.5 Z"/>

<path fill="#4E4C4D" fill-opacity="0.7176470588235294" stroke="none" d="
M 434.05 3.95
Q 433.6 3.5 433 3.5
L 5 3.5
Q 4.4 3.5 3.95 3.95 3.5 4.4 3.5 5
L 3.5 103
Q 3.5 103.6 3.95 104.05 4.4 104.5 5 104.5
L 433 104.5
Q 433.6 104.5 434.05 104.05 434.5 103.6 434.5 103
L 434.5 5
Q 434.5 4.4 434.05 3.95
M 433 3.6
Q 433.6 3.6 434 4 434.4 4.4 434.4 5
L 434.4 103
Q 434.4 103.6 434 104 433.6 104.4 433 104.4
L 5 104.4
Q 4.4 104.4 4 104 3.6 103.6 3.6 103
L 3.6 5
Q 3.6 4.4 4 4 4.4 3.6 5 3.6
L 433 3.6 Z"/>

<path fill="#4E4C4D" fill-opacity="0.7372549019607844" stroke="none" d="
M 434 4
Q 433.6 3.6 433 3.6
L 5 3.6
Q 4.4 3.6 4 4 3.6 4.4 3.6 5
L 3.6 103
Q 3.6 103.6 4 104 4.4 104.4 5 104.4
L 433 104.4
Q 433.6 104.4 434 104 434.4 103.6 434.4 103
L 434.4 5
Q 434.4 4.4 434 4
M 433 3.7
Q 433.55 3.7 433.95 4.1 434.3 4.45 434.3 5
L 434.3 103
Q 434.3 103.55 433.95 103.95 433.55 104.3 433 104.3
L 5 104.3
Q 4.45 104.3 4.1 103.95 3.7 103.55 3.7 103
L 3.7 5
Q 3.7 4.45 4.1 4.1 4.45 3.7 5 3.7
L 433 3.7 Z"/>

<path fill="#4E4C4D" fill-opacity="0.7568627450980392" stroke="none" d="
M 433.95 4.1
Q 433.55 3.7 433 3.7
L 5 3.7
Q 4.45 3.7 4.1 4.1 3.7 4.45 3.7 5
L 3.7 103
Q 3.7 103.55 4.1 103.95 4.45 104.3 5 104.3
L 433 104.3
Q 433.55 104.3 433.95 103.95 434.3 103.55 434.3 103
L 434.3 5
Q 434.3 4.45 433.95 4.1
M 433 3.8
Q 433.5 3.8 433.85 4.15 434.2 4.5 434.2 5
L 434.2 103
Q 434.2 103.5 433.85 103.85 433.5 104.2 433 104.2
L 5 104.2
Q 4.5 104.2 4.15 103.85 3.8 103.5 3.8 103
L 3.8 5
Q 3.8 4.5 4.15 4.15 4.5 3.8 5 3.8
L 433 3.8 Z"/>

<path fill="#4E4C4D" fill-opacity="0.7764705882352941" stroke="none" d="
M 433.85 4.15
Q 433.5 3.8 433 3.8
L 5 3.8
Q 4.5 3.8 4.15 4.15 3.8 4.5 3.8 5
L 3.8 103
Q 3.8 103.5 4.15 103.85 4.5 104.2 5 104.2
L 433 104.2
Q 433.5 104.2 433.85 103.85 434.2 103.5 434.2 103
L 434.2 5
Q 434.2 4.5 433.85 4.15
M 433 3.9
Q 433.45 3.9 433.8 4.25 434.1 4.55 434.1 5
L 434.1 103
Q 434.1 103.45 433.8 103.8 433.45 104.1 433 104.1
L 5 104.1
Q 4.55 104.1 4.25 103.8 3.9 103.45 3.9 103
L 3.9 5
Q 3.9 4.55 4.25 4.25 4.55 3.9 5 3.9
L 433 3.9 Z"/>

<path fill="#4E4C4D" fill-opacity="0.796078431372549" stroke="none" d="
M 433.8 4.25
Q 433.45 3.9 433 3.9
L 5 3.9
Q 4.55 3.9 4.25 4.25 3.9 4.55 3.9 5
L 3.9 103
Q 3.9 103.45 4.25 103.8 4.55 104.1 5 104.1
L 433 104.1
Q 433.45 104.1 433.8 103.8 434.1 103.45 434.1 103
L 434.1 5
Q 434.1 4.55 433.8 4.25
M 433 4
Q 433.4 4 433.7 4.3 434 4.6 434 5
L 434 103
Q 434 103.4 433.7 103.7 433.4 104 433 104
L 5 104
Q 4.6 104 4.3 103.7 4 103.4 4 103
L 4 5
Q 4 4.6 4.3 4.3 4.6 4 5 4
L 433 4 Z"/>

<path fill="#4E4C4D" fill-opacity="0.8156862745098039" stroke="none" d="
M 433.7 4.3
Q 433.4 4 433 4
L 5 4
Q 4.6 4 4.3 4.3 4 4.6 4 5
L 4 103
Q 4 103.4 4.3 103.7 4.6 104 5 104
L 433 104
Q 433.4 104 433.7 103.7 434 103.4 434 103
L 434 5
Q 434 4.6 433.7 4.3
M 433 4.1
Q 433.35 4.1 433.65 4.4 433.9 4.65 433.9 5
L 433.9 103
Q 433.9 103.35 433.65 103.65 433.35 103.9 433 103.9
L 5 103.9
Q 4.65 103.9 4.4 103.65 4.1 103.35 4.1 103
L 4.1 5
Q 4.1 4.65 4.4 4.4 4.65 4.1 5 4.1
L 433 4.1 Z"/>

<path fill="#4E4C4D" fill-opacity="0.8392156862745098" stroke="none" d="
M 433.65 4.4
Q 433.35 4.1 433 4.1
L 5 4.1
Q 4.65 4.1 4.4 4.4 4.1 4.65 4.1 5
L 4.1 103
Q 4.1 103.35 4.4 103.65 4.65 103.9 5 103.9
L 433 103.9
Q 433.35 103.9 433.65 103.65 433.9 103.35 433.9 103
L 433.9 5
Q 433.9 4.65 433.65 4.4
M 433 4.2
Q 433.35 4.2 433.6 4.45 433.8 4.65 433.8 5
L 433.8 103
Q 433.8 103.35 433.6 103.6 433.35 103.8 433 103.8
L 5 103.8
Q 4.65 103.8 4.45 103.6 4.2 103.35 4.2 103
L 4.2 5
Q 4.2 4.65 4.45 4.45 4.65 4.2 5 4.2
L 433 4.2 Z"/>

<path fill="#4E4C4D" fill-opacity="0.8588235294117647" stroke="none" d="
M 433.6 4.45
Q 433.35 4.2 433 4.2
L 5 4.2
Q 4.65 4.2 4.45 4.45 4.2 4.65 4.2 5
L 4.2 103
Q 4.2 103.35 4.45 103.6 4.65 103.8 5 103.8
L 433 103.8
Q 433.35 103.8 433.6 103.6 433.8 103.35 433.8 103
L 433.8 5
Q 433.8 4.65 433.6 4.45
M 433 4.3
Q 433.3 4.3 433.5 4.5 433.7 4.7 433.7 5
L 433.7 103
Q 433.7 103.3 433.5 103.5 433.3 103.7 433 103.7
L 5 103.7
Q 4.7 103.7 4.5 103.5 4.3 103.3 4.3 103
L 4.3 5
Q 4.3 4.7 4.5 4.5 4.7 4.3 5 4.3
L 433 4.3 Z"/>

<path fill="#4E4C4D" fill-opacity="0.8784313725490196" stroke="none" d="
M 433.5 4.5
Q 433.3 4.3 433 4.3
L 5 4.3
Q 4.7 4.3 4.5 4.5 4.3 4.7 4.3 5
L 4.3 103
Q 4.3 103.3 4.5 103.5 4.7 103.7 5 103.7
L 433 103.7
Q 433.3 103.7 433.5 103.5 433.7 103.3 433.7 103
L 433.7 5
Q 433.7 4.7 433.5 4.5
M 433 4.4
Q 433.25 4.4 433.45 4.6 433.6 4.75 433.6 5
L 433.6 103
Q 433.6 103.25 433.45 103.45 433.25 103.6 433 103.6
L 5 103.6
Q 4.75 103.6 4.6 103.45 4.4 103.25 4.4 103
L 4.4 5
Q 4.4 4.75 4.6 4.6 4.75 4.4 5 4.4
L 433 4.4 Z"/>

<path fill="#4E4C4D" fill-opacity="0.8980392156862745" stroke="none" d="
M 433.45 4.6
Q 433.25 4.4 433 4.4
L 5 4.4
Q 4.75 4.4 4.6 4.6 4.4 4.75 4.4 5
L 4.4 103
Q 4.4 103.25 4.6 103.45 4.75 103.6 5 103.6
L 433 103.6
Q 433.25 103.6 433.45 103.45 433.6 103.25 433.6 103
L 433.6 5
Q 433.6 4.75 433.45 4.6
M 433.35 4.65
Q 433.5 4.8 433.5 5
L 433.5 103
Q 433.5 103.2 433.35 103.35 433.2 103.5 433 103.5
L 5 103.5
Q 4.8 103.5 4.65 103.35 4.5 103.2 4.5 103
L 4.5 5
Q 4.5 4.8 4.65 4.65 4.8 4.5 5 4.5
L 433 4.5
Q 433.2 4.5 433.35 4.65 Z"/>

<path fill="#4E4C4D" fill-opacity="0.9176470588235294" stroke="none" d="
M 433.5 5
Q 433.5 4.8 433.35 4.65 433.2 4.5 433 4.5
L 5 4.5
Q 4.8 4.5 4.65 4.65 4.5 4.8 4.5 5
L 4.5 103
Q 4.5 103.2 4.65 103.35 4.8 103.5 5 103.5
L 433 103.5
Q 433.2 103.5 433.35 103.35 433.5 103.2 433.5 103
L 433.5 5
M 433.3 4.75
Q 433.4 4.85 433.4 5
L 433.4 103
Q 433.4 103.15 433.3 103.3 433.15 103.4 433 103.4
L 5 103.4
Q 4.85 103.4 4.75 103.3 4.6 103.15 4.6 103
L 4.6 5
Q 4.6 4.85 4.75 4.75 4.85 4.6 5 4.6
L 433 4.6
Q 433.15 4.6 433.3 4.75 Z"/>

<path fill="#4E4C4D" fill-opacity="0.9372549019607843" stroke="none" d="
M 433.4 5
Q 433.4 4.85 433.3 4.75 433.15 4.6 433 4.6
L 5 4.6
Q 4.85 4.6 4.75 4.75 4.6 4.85 4.6 5
L 4.6 103
Q 4.6 103.15 4.75 103.3 4.85 103.4 5 103.4
L 433 103.4
Q 433.15 103.4 433.3 103.3 433.4 103.15 433.4 103
L 433.4 5
M 433 4.7
Q 433.1 4.7 433.2 4.8 433.3 4.9 433.3 5
L 433.3 103
Q 433.3 103.1 433.2 103.2 433.1 103.3 433 103.3
L 5 103.3
Q 4.9 103.3 4.8 103.2 4.7 103.1 4.7 103
L 4.7 5
Q 4.7 4.9 4.8 4.8 4.9 4.7 5 4.7
L 433 4.7 Z"/>

<path fill="#4E4C4D" fill-opacity="0.9568627450980393" stroke="none" d="
M 433.2 4.8
Q 433.1 4.7 433 4.7
L 5 4.7
Q 4.9 4.7 4.8 4.8 4.7 4.9 4.7 5
L 4.7 103
Q 4.7 103.1 4.8 103.2 4.9 103.3 5 103.3
L 433 103.3
Q 433.1 103.3 433.2 103.2 433.3 103.1 433.3 103
L 433.3 5
Q 433.3 4.9 433.2 4.8
M 433 4.8
Q 433.1 4.8 433.15 4.85 433.2 4.9 433.2 5
L 433.2 103
Q 433.2 103.1 433.15 103.15 433.1 103.2 433 103.2
L 5 103.2
Q 4.9 103.2 4.85 103.15 4.8 103.1 4.8 103
L 4.8 5
Q 4.8 4.9 4.85 4.85 4.9 4.8 5 4.8
L 433 4.8 Z"/>

<path fill="#4E4C4D" fill-opacity="0.9764705882352941" stroke="none" d="
M 433.15 4.85
Q 433.1 4.8 433 4.8
L 5 4.8
Q 4.9 4.8 4.85 4.85 4.8 4.9 4.8 5
L 4.8 103
Q 4.8 103.1 4.85 103.15 4.9 103.2 5 103.2
L 433 103.2
Q 433.1 103.2 433.15 103.15 433.2 103.1 433.2 103
L 433.2 5
Q 433.2 4.9 433.15 4.85
M 433 4.9
Q 433.05 4.9 433.1 4.95
L 433.1 103
Q 433.1 103.05 433.1 103.1 433.05 103.1 433 103.1
L 4.95 103.1
Q 4.9 103.05 4.9 103
L 4.9 5
Q 4.9 4.95 4.95 4.95 4.95 4.9 5 4.9
L 433 4.9 Z"/>

<path fill="#4E4C4D" stroke="none" d="
M 433.1 4.95
Q 433.05 4.9 433 4.9
L 5 4.9
Q 4.95 4.9 4.95 4.95 4.9 4.95 4.9 5
L 4.9 103
Q 4.9 103.05 4.95 103.1
L 433 103.1
Q 433.05 103.1 433.1 103.1 433.1 103.05 433.1 103
L 433.1 4.95 Z"/>
</g>

<g id="FL_07_common_page_elements_uid990za2kt_07_common_page_elements_outputBox_White_DropShadow_0_Layer0_0_FILL">
<path fill="#FFFFFF" stroke="none" d="
M 434 102
L 434 2 4 2 4 102 434 102 Z"/>
</g>

<path id="FL_07_common_page_elements_uid990za2kt_07_common_page_elements_outputBox_White_DropShadow_0_Layer0_0_1_STROKES" stroke="#918F90" stroke-width="2" stroke-linejoin="round" stroke-linecap="round" fill="none" d="
M 434 102
L 4 102 4 2 434 2 434 102 Z"/>
</defs>

<g transform="matrix( 1, 0, 0, 1, 0,0) ">
<g id="slide01" transform="matrix( 1, 0, 0, 1, 0,0) ">
<g transform="matrix( 1.3698577880859375, 0, 0, 1, 40,35) ">
<g transform="matrix( 1, 0, 0, 1, 0,0) ">
<use xlink:href="#FL_07_common_page_elements_uid990za2kt_07_common_page_elements_outputBox_White_DropShadow_0_Layer1_0_FILL"/>
</g>

<g transform="matrix( 1, 0, 0, 1, 0,0) ">
<use xlink:href="#FL_07_common_page_elements_uid990za2kt_07_common_page_elements_outputBox_White_DropShadow_0_Layer0_0_FILL"/>

<use xlink:href="#FL_07_common_page_elements_uid990za2kt_07_common_page_elements_outputBox_White_DropShadow_0_Layer0_0_1_STROKES"/>
</g>
</g>

<g transform="matrix( 1, 0, 0, 1, 52,47) ">
<clipPath id="Mask_Mask_1">
<rect x="-2" y="-2" width="578.95" height="60" fill="#FFFFFF" stroke="none"/>
</clipPath>

<text clip-path="url(#Mask_Mask_1)" writing-mode="lr"><tspan x="0" y="9.2" baseline-shift="0%" font-family="Courier New" font-weight="bold" font-size="11" fill="#067EB2" xml:space="preserve">alert ip any any -&gt; any any</tspan><tspan baseline-shift="0%" font-family="Courier New" font-weight="bold" font-size="11" fill="#393536" xml:space="preserve"> </tspan><tspan baseline-shift="0%" font-family="Courier New" font-weight="bold" font-size="11" fill="#3F863A" xml:space="preserve">(msg:&quot;GPL ATTACK_RESPONSE id check returned root&quot;; </tspan><tspan x="0" y="23.7" baseline-shift="0%" font-family="Courier New" font-weight="bold" font-size="11" fill="#3F863A" xml:space="preserve">content:&quot;uid=0|28|root|29|&quot;; fast_pattern:only; classtype:bad-unknown; sid:2100498; </tspan><tspan x="0" y="38.2" baseline-shift="0%" font-family="Courier New" font-weight="bold" font-size="11" fill="#3F863A" xml:space="preserve">rev:8;)</tspan><tspan baseline-shift="0%" font-family="Courier New" font-weight="bold" font-size="11" fill="#393536" xml:space="preserve"></tspan><tspan x="0" y="52.7" baseline-shift="0%" font-family="Courier New" font-weight="bold" font-size="11" fill="#652C8A" xml:space="preserve">/nsm/server_data/securityonion/rules/seconion-eth1-1/downloaded.rules:Line 692</tspan></text>
</g>

<g transform="matrix( 6.057647705078125, 0, 0, 1, 25,7) "/>
</g>
</g>
</svg>
