
<svg xmlns="http://www.w3.org/2000/svg" version="1.1" xmlns:xlink="http://www.w3.org/1999/xlink" preserveAspectRatio="none" x="0px" y="0px" width="512px" height="400px" viewBox="0 0 512 400">
<defs>
<g id="s_0_Layer0_0_FILL">
<path fill="#1E4471" stroke="none" d="
M 125.05 90.05
L 125.05 38.05 13.05 38.05 13.05 90.05 125.05 90.05 Z"/>
</g>

<g id="s_0_Layer0_1_FILL">
<path fill="#1E4471" stroke="none" d="
M 126.05 90.05
L 126.05 38.05 14.05 38.05 14.05 90.05 126.05 90.05 Z"/>
</g>

<g id="s_0_Layer0_2_FILL">
<path fill="#1E4471" stroke="none" d="
M 126.05 90.05
L 126.05 38.05 14.05 38.05 14.05 90.05 126.05 90.05 Z"/>
</g>

<g id="s_0_Layer0_3_FILL">
<path fill="#1E4471" stroke="none" d="
M 126.05 90.05
L 126.05 38.05 14.05 38.05 14.05 90.05 126.05 90.05 Z"/>
</g>

<g id="s_0_Layer0_4_FILL">
<path fill="#1E4471" stroke="none" d="
M 126.05 90.05
L 126.05 38.05 14.05 38.05 14.05 90.05 126.05 90.05 Z"/>
</g>

<g id="s_0_Layer0_5_FILL">
<path fill="#FFBC00" stroke="none" d="
M 13.05 306.05
L 13.05 334.05 125.05 334.05 125.05 306.05 13.05 306.05 Z"/>
</g>

<g id="s_0_Layer0_6_FILL">
<path fill="#1E4471" stroke="none" d="
M 125.05 90.05
L 125.05 38.05 13.05 38.05 13.05 90.05 125.05 90.05 Z"/>
</g>

<g id="s_0_Layer0_7_FILL">
<path fill="#1E4471" stroke="none" d="
M 125.05 90.05
L 125.05 38.05 13.05 38.05 13.05 90.05 125.05 90.05 Z"/>
</g>

<g id="s_0_Layer0_8_FILL">
<path fill="#1E4471" stroke="none" d="
M 125.05 90.05
L 125.05 38.05 13.05 38.05 13.05 90.05 125.05 90.05 Z"/>
</g>

<g id="s_0_Layer0_9_FILL">
<path fill="#1E4471" stroke="none" d="
M 125.05 90.05
L 125.05 38.05 13.05 38.05 13.05 90.05 125.05 90.05 Z"/>
</g>

<g id="s_0_Layer0_10_FILL">
<path fill="#1E4471" stroke="none" d="
M 125.05 90.05
L 125.05 38.05 13.05 38.05 13.05 90.05 125.05 90.05 Z"/>
</g>

<g id="s_0_Layer0_11_FILL">
<path fill="#E2231A" stroke="none" d="
M 125.05 90.05
L 125.05 38.05 13.05 38.05 13.05 90.05 125.05 90.05 Z"/>
</g>

<g id="s_0_Layer0_12_FILL">
<path fill="#E2231A" stroke="none" d="
M 125.05 90.05
L 125.05 38.05 13.05 38.05 13.05 90.05 125.05 90.05 Z"/>
</g>

<g id="s_0_Layer0_13_FILL">
<path fill="#E2231A" stroke="none" d="
M 125.05 90.05
L 125.05 38.05 13.05 38.05 13.05 90.05 125.05 90.05 Z"/>
</g>

<g id="s_0_Layer0_14_FILL">
<path fill="#FB8A18" stroke="none" d="
M 125.05 90.05
L 125.05 38.05 13.05 38.05 13.05 90.05 125.05 90.05 Z"/>
</g>

<g id="s_0_Layer0_15_FILL">
<path fill="#FB8A18" stroke="none" d="
M 125.05 90.05
L 125.05 38.05 13.05 38.05 13.05 90.05 125.05 90.05 Z"/>
</g>

<g id="s_0_Layer0_16_FILL">
<path fill="#FB8A18" stroke="none" d="
M 125.05 90.05
L 125.05 38.05 13.05 38.05 13.05 90.05 125.05 90.05 Z"/>
</g>

<g id="s_0_Layer0_17_FILL">
<path fill="#FB8A18" stroke="none" d="
M 125.05 90.05
L 125.05 38.05 13.05 38.05 13.05 90.05 125.05 90.05 Z"/>
</g>

<g id="s_0_Layer0_18_FILL">
<path fill="#FFBC00" stroke="none" d="
M 125.05 90.05
L 125.05 38.05 13.05 38.05 13.05 90.05 125.05 90.05 Z"/>
</g>

<g id="s_0_Layer0_19_FILL">
<path fill="#FFBC00" stroke="none" d="
M 125.05 90.05
L 125.05 38.05 13.05 38.05 13.05 90.05 125.05 90.05 Z"/>
</g>

<g id="s_0_Layer0_20_FILL">
<path fill="#FFBC00" stroke="none" d="
M 125.05 90.05
L 125.05 38.05 13.05 38.05 13.05 90.05 125.05 90.05 Z"/>
</g>

<g id="s_0_Layer0_21_FILL">
<path fill="#FFBC00" stroke="none" d="
M 125.05 90.05
L 125.05 38.05 13.05 38.05 13.05 90.05 125.05 90.05 Z"/>
</g>

<g id="s_0_Layer0_22_FILL">
<path fill="#FFBC00" stroke="none" d="
M 125.05 90.05
L 125.05 38.05 13.05 38.05 13.05 90.05 125.05 90.05 Z"/>
</g>

<g id="s_0_Layer0_23_FILL">
<path fill="#6ABF4B" stroke="none" d="
M 125.05 90.05
L 125.05 38.05 13.05 38.05 13.05 90.05 125.05 90.05 Z"/>
</g>

<g id="s_0_Layer0_24_FILL">
<path fill="#6ABF4B" stroke="none" d="
M 125.05 90.05
L 125.05 38.05 13.05 38.05 13.05 90.05 125.05 90.05 Z"/>
</g>

<g id="s_0_Layer0_25_FILL">
<path fill="#6ABF4B" stroke="none" d="
M 125.05 90.05
L 125.05 38.05 13.05 38.05 13.05 90.05 125.05 90.05 Z"/>
</g>

<g id="s_0_Layer0_26_FILL">
<path fill="#6ABF4B" stroke="none" d="
M 125.05 90.05
L 125.05 38.05 13.05 38.05 13.05 90.05 125.05 90.05 Z"/>
</g>

<g id="s_0_Layer0_27_FILL">
<path fill="#6ABF4B" stroke="none" d="
M 125.05 90.05
L 125.05 38.05 13.05 38.05 13.05 90.05 125.05 90.05 Z"/>
</g>

<g id="s_0_Layer0_28_FILL">
<path fill="#6ABF4B" stroke="none" d="
M 125.05 90.05
L 125.05 38.05 13.05 38.05 13.05 90.05 125.05 90.05 Z"/>
</g>

<g id="s_0_Layer0_29_FILL">
<path fill="#6ABF4B" stroke="none" d="
M 125.05 90.05
L 125.05 38.05 13.05 38.05 13.05 90.05 125.05 90.05 Z"/>
</g>

<g id="s_0_Layer0_30_FILL">
<path fill="#6ABF4B" stroke="none" d="
M 125.05 90.05
L 125.05 38.05 13.05 38.05 13.05 90.05 125.05 90.05 Z"/>
</g>

<path id="s_0_Layer0_0_1_STROKES" stroke="#335A97" stroke-opacity="0" stroke-width="1" stroke-linejoin="round" stroke-linecap="round" fill="none" d="
M 13.05 38.05
L 125.05 38.05 125.05 90.05 13.05 90.05 13.05 38.05 Z"/>

<path id="s_0_Layer0_1_1_STROKES" stroke="#335A97" stroke-opacity="0" stroke-width="1" stroke-linejoin="round" stroke-linecap="round" fill="none" d="
M 14.05 38.05
L 126.05 38.05 126.05 90.05 14.05 90.05 14.05 38.05 Z"/>

<path id="s_0_Layer0_2_1_STROKES" stroke="#335A97" stroke-opacity="0" stroke-width="1" stroke-linejoin="round" stroke-linecap="round" fill="none" d="
M 14.05 38.05
L 126.05 38.05 126.05 90.05 14.05 90.05 14.05 38.05 Z"/>

<path id="s_0_Layer0_3_1_STROKES" stroke="#335A97" stroke-opacity="0" stroke-width="1" stroke-linejoin="round" stroke-linecap="round" fill="none" d="
M 14.05 38.05
L 126.05 38.05 126.05 90.05 14.05 90.05 14.05 38.05 Z"/>

<path id="s_0_Layer0_4_1_STROKES" stroke="#335A97" stroke-opacity="0" stroke-width="1" stroke-linejoin="round" stroke-linecap="round" fill="none" d="
M 14.05 38.05
L 126.05 38.05 126.05 90.05 14.05 90.05 14.05 38.05 Z"/>

<path id="s_0_Layer0_5_1_STROKES" stroke="#335A97" stroke-opacity="0" stroke-width="1" stroke-linejoin="round" stroke-linecap="round" fill="none" d="
M 13.05 306.05
L 125.05 306.05 125.05 334.05 13.05 334.05 13.05 306.05 Z"/>

<path id="s_0_Layer0_6_1_STROKES" stroke="#335A97" stroke-opacity="0" stroke-width="1" stroke-linejoin="round" stroke-linecap="round" fill="none" d="
M 113.7420166015625 0
L 185.7654541015625 0 185.7654541015625 52 113.7420166015625 52 113.7420166015625 0 Z"/>

<path id="s_0_Layer0_7_1_STROKES" stroke="#335A97" stroke-opacity="0" stroke-width="1" stroke-linejoin="round" stroke-linecap="round" fill="none" d="
M 187.74201660156248 0
L 259.7654541015625 0 259.7654541015625 52 187.74201660156248 52 187.74201660156248 0 Z"/>

<path id="s_0_Layer0_8_1_STROKES" stroke="#335A97" stroke-opacity="0" stroke-width="1" stroke-linejoin="round" stroke-linecap="round" fill="none" d="
M 261.7420166015625 0
L 333.7654541015625 0 333.7654541015625 52 261.7420166015625 52 261.7420166015625 0 Z"/>

<path id="s_0_Layer0_9_1_STROKES" stroke="#335A97" stroke-opacity="0" stroke-width="1" stroke-linejoin="round" stroke-linecap="round" fill="none" d="
M 335.7420166015625 0
L 407.7654541015625 0 407.7654541015625 52 335.7420166015625 52 335.7420166015625 0 Z"/>

<path id="s_0_Layer0_10_1_STROKES" stroke="#335A97" stroke-opacity="0" stroke-width="1" stroke-linejoin="round" stroke-linecap="round" fill="none" d="
M 409.7420166015625 0
L 481.7654541015625 0 481.7654541015625 52 409.7420166015625 52 409.7420166015625 0 Z"/>

<path id="s_0_Layer0_11_1_STROKES" stroke="#335A97" stroke-opacity="0" stroke-width="1" stroke-linejoin="round" stroke-linecap="round" fill="none" d="
M 113.7420166015625 54
L 185.7654541015625 54 185.7654541015625 106 113.7420166015625 106 113.7420166015625 54 Z"/>

<path id="s_0_Layer0_12_1_STROKES" stroke="#335A97" stroke-opacity="0" stroke-width="1" stroke-linejoin="round" stroke-linecap="round" fill="none" d="
M 187.74201660156248 54
L 259.7654541015625 54 259.7654541015625 106 187.74201660156248 106 187.74201660156248 54 Z"/>

<path id="s_0_Layer0_13_1_STROKES" stroke="#335A97" stroke-opacity="0" stroke-width="1" stroke-linejoin="round" stroke-linecap="round" fill="none" d="
M 113.7420166015625 108
L 185.7654541015625 108 185.7654541015625 160 113.7420166015625 160 113.7420166015625 108 Z"/>

<path id="s_0_Layer0_14_1_STROKES" stroke="#335A97" stroke-opacity="0" stroke-width="1" stroke-linejoin="round" stroke-linecap="round" fill="none" d="
M 113.7420166015625 162
L 185.7654541015625 162 185.7654541015625 214 113.7420166015625 214 113.7420166015625 162 Z"/>

<path id="s_0_Layer0_15_1_STROKES" stroke="#335A97" stroke-opacity="0" stroke-width="1" stroke-linejoin="round" stroke-linecap="round" fill="none" d="
M 187.74201660156248 108
L 259.7654541015625 108 259.7654541015625 160 187.74201660156248 160 187.74201660156248 108 Z"/>

<path id="s_0_Layer0_16_1_STROKES" stroke="#335A97" stroke-opacity="0" stroke-width="1" stroke-linejoin="round" stroke-linecap="round" fill="none" d="
M 261.7420166015625 108
L 333.7654541015625 108 333.7654541015625 160 261.7420166015625 160 261.7420166015625 108 Z"/>

<path id="s_0_Layer0_17_1_STROKES" stroke="#335A97" stroke-opacity="0" stroke-width="1" stroke-linejoin="round" stroke-linecap="round" fill="none" d="
M 261.0420166015625 54
L 333.0654541015625 54 333.0654541015625 106 261.0420166015625 106 261.0420166015625 54 Z"/>

<path id="s_0_Layer0_18_1_STROKES" stroke="#335A97" stroke-opacity="0" stroke-width="1" stroke-linejoin="round" stroke-linecap="round" fill="none" d="
M 187.74201660156248 162
L 259.7654541015625 162 259.7654541015625 214 187.74201660156248 214 187.74201660156248 162 Z"/>

<path id="s_0_Layer0_19_1_STROKES" stroke="#335A97" stroke-opacity="0" stroke-width="1" stroke-linejoin="round" stroke-linecap="round" fill="none" d="
M 113.7420166015625 216
L 185.7654541015625 216 185.7654541015625 268 113.7420166015625 268 113.7420166015625 216 Z"/>

<path id="s_0_Layer0_20_1_STROKES" stroke="#335A97" stroke-opacity="0" stroke-width="1" stroke-linejoin="round" stroke-linecap="round" fill="none" d="
M 261.0420166015625 162
L 333.0654541015625 162 333.0654541015625 214 261.0420166015625 214 261.0420166015625 162 Z"/>

<path id="s_0_Layer0_21_1_STROKES" stroke="#335A97" stroke-opacity="0" stroke-width="1" stroke-linejoin="round" stroke-linecap="round" fill="none" d="
M 335.7420166015625 108
L 407.7654541015625 108 407.7654541015625 160 335.7420166015625 160 335.7420166015625 108 Z"/>

<path id="s_0_Layer0_22_1_STROKES" stroke="#335A97" stroke-opacity="0" stroke-width="1" stroke-linejoin="round" stroke-linecap="round" fill="none" d="
M 335.7420166015625 54
L 407.7654541015625 54 407.7654541015625 106 335.7420166015625 106 335.7420166015625 54 Z"/>

<path id="s_0_Layer0_23_1_STROKES" stroke="#335A97" stroke-opacity="0" stroke-width="1" stroke-linejoin="round" stroke-linecap="round" fill="none" d="
M 335.7420166015625 162
L 407.7654541015625 162 407.7654541015625 214 335.7420166015625 214 335.7420166015625 162 Z"/>

<path id="s_0_Layer0_24_1_STROKES" stroke="#335A97" stroke-opacity="0" stroke-width="1" stroke-linejoin="round" stroke-linecap="round" fill="none" d="
M 187.74201660156248 216
L 259.7654541015625 216 259.7654541015625 268 187.74201660156248 268 187.74201660156248 216 Z"/>

<path id="s_0_Layer0_25_1_STROKES" stroke="#335A97" stroke-opacity="0" stroke-width="1" stroke-linejoin="round" stroke-linecap="round" fill="none" d="
M 261.7420166015625 216
L 333.7654541015625 216 333.7654541015625 268 261.7420166015625 268 261.7420166015625 216 Z"/>

<path id="s_0_Layer0_26_1_STROKES" stroke="#335A97" stroke-opacity="0" stroke-width="1" stroke-linejoin="round" stroke-linecap="round" fill="none" d="
M 335.7420166015625 216
L 407.7654541015625 216 407.7654541015625 268 335.7420166015625 268 335.7420166015625 216 Z"/>

<path id="s_0_Layer0_27_1_STROKES" stroke="#335A97" stroke-opacity="0" stroke-width="1" stroke-linejoin="round" stroke-linecap="round" fill="none" d="
M 409.7420166015625 216
L 481.7654541015625 216 481.7654541015625 268 409.7420166015625 268 409.7420166015625 216 Z"/>

<path id="s_0_Layer0_28_1_STROKES" stroke="#335A97" stroke-opacity="0" stroke-width="1" stroke-linejoin="round" stroke-linecap="round" fill="none" d="
M 409.7420166015625 54
L 481.7654541015625 54 481.7654541015625 106 409.7420166015625 106 409.7420166015625 54 Z"/>

<path id="s_0_Layer0_29_1_STROKES" stroke="#335A97" stroke-opacity="0" stroke-width="1" stroke-linejoin="round" stroke-linecap="round" fill="none" d="
M 409.7420166015625 108
L 481.7654541015625 108 481.7654541015625 160 409.7420166015625 160 409.7420166015625 108 Z"/>

<path id="s_0_Layer0_30_1_STROKES" stroke="#335A97" stroke-opacity="0" stroke-width="1" stroke-linejoin="round" stroke-linecap="round" fill="none" d="
M 409.7420166015625 162
L 481.7654541015625 162 481.7654541015625 214 409.7420166015625 214 409.7420166015625 162 Z"/>
</defs>

<g transform="matrix( 1, 0, 0, 1, 13.05,38.05) ">
<g transform="matrix( 1, 0, 0, 1, -13.05,-38.05) ">
<use xlink:href="#s_0_Layer0_0_FILL"/>

<use xlink:href="#s_0_Layer0_0_1_STROKES"/>
</g>

<g transform="matrix( 1, 0, 0, 1, -14.05,15.95) ">
<use xlink:href="#s_0_Layer0_1_FILL"/>

<use xlink:href="#s_0_Layer0_1_1_STROKES"/>
</g>

<g transform="matrix( 1, 0, 0, 1, -14.05,69.95) ">
<use xlink:href="#s_0_Layer0_2_FILL"/>

<use xlink:href="#s_0_Layer0_2_1_STROKES"/>
</g>

<g transform="matrix( 1, 0, 0, 1, -14.05,123.95) ">
<use xlink:href="#s_0_Layer0_3_FILL"/>

<use xlink:href="#s_0_Layer0_3_1_STROKES"/>
</g>

<g transform="matrix( 1, 0, 0, 1, -14.05,177.95) ">
<use xlink:href="#s_0_Layer0_4_FILL"/>

<use xlink:href="#s_0_Layer0_4_1_STROKES"/>
</g>

<g transform="matrix( 1, 0, 0, 1, -13.05,-30.05) ">
<use xlink:href="#s_0_Layer0_5_FILL"/>

<use xlink:href="#s_0_Layer0_5_1_STROKES"/>
</g>

<g transform="matrix( 0.64306640625, 0, 0, 1, 105.35,-38.05) ">
<use xlink:href="#s_0_Layer0_6_FILL"/>

<use xlink:href="#s_0_Layer0_6_1_STROKES" transform="matrix( 1.5550384521484375, 0, 0, 0.9999847412109375, -163.8,38.05) "/>
</g>

<g transform="matrix( 0.64306640625, 0, 0, 1, 179.35,-38.05) ">
<use xlink:href="#s_0_Layer0_7_FILL"/>

<use xlink:href="#s_0_Layer0_7_1_STROKES" transform="matrix( 1.5550384521484375, 0, 0, 0.9999847412109375, -278.85,38.05) "/>
</g>

<g transform="matrix( 0.64306640625, 0, 0, 1, 253.35,-38.05) ">
<use xlink:href="#s_0_Layer0_8_FILL"/>

<use xlink:href="#s_0_Layer0_8_1_STROKES" transform="matrix( 1.5550384521484375, 0, 0, 0.9999847412109375, -393.95,38.05) "/>
</g>

<g transform="matrix( 0.64306640625, 0, 0, 1, 327.35,-38.05) ">
<use xlink:href="#s_0_Layer0_9_FILL"/>

<use xlink:href="#s_0_Layer0_9_1_STROKES" transform="matrix( 1.5550384521484375, 0, 0, 0.9999847412109375, -509,38.05) "/>
</g>

<g transform="matrix( 0.64306640625, 0, 0, 1, 401.35,-38.05) ">
<use xlink:href="#s_0_Layer0_10_FILL"/>

<use xlink:href="#s_0_Layer0_10_1_STROKES" transform="matrix( 1.5550384521484375, 0, 0, 0.9999847412109375, -624.1,38.05) "/>
</g>

<g transform="matrix( 0.64306640625, 0, 0, 1, 105.35,15.95) ">
<use xlink:href="#s_0_Layer0_11_FILL"/>

<use xlink:href="#s_0_Layer0_11_1_STROKES" transform="matrix( 1.5550384521484375, 0, 0, 0.9999847412109375, -163.8,-15.95) "/>
</g>

<g transform="matrix( 0.64306640625, 0, 0, 1, 179.35,15.95) ">
<use xlink:href="#s_0_Layer0_12_FILL"/>

<use xlink:href="#s_0_Layer0_12_1_STROKES" transform="matrix( 1.5550384521484375, 0, 0, 0.9999847412109375, -278.85,-15.95) "/>
</g>

<g transform="matrix( 0.64306640625, 0, 0, 1, 105.35,69.95) ">
<use xlink:href="#s_0_Layer0_13_FILL"/>

<use xlink:href="#s_0_Layer0_13_1_STROKES" transform="matrix( 1.5550384521484375, 0, 0, 0.9999847412109375, -163.8,-69.95) "/>
</g>

<g transform="matrix( 0.64306640625, 0, 0, 1, 105.35,123.95) ">
<use xlink:href="#s_0_Layer0_14_FILL"/>

<use xlink:href="#s_0_Layer0_14_1_STROKES" transform="matrix( 1.5550384521484375, 0, 0, 0.9999847412109375, -163.8,-123.95) "/>
</g>

<g transform="matrix( 0.64306640625, 0, 0, 1, 179.35,69.95) ">
<use xlink:href="#s_0_Layer0_15_FILL"/>

<use xlink:href="#s_0_Layer0_15_1_STROKES" transform="matrix( 1.5550384521484375, 0, 0, 0.9999847412109375, -278.85,-69.95) "/>
</g>

<g transform="matrix( 0.64306640625, 0, 0, 1, 253.35,69.95) ">
<use xlink:href="#s_0_Layer0_16_FILL"/>

<use xlink:href="#s_0_Layer0_16_1_STROKES" transform="matrix( 1.5550384521484375, 0, 0, 0.9999847412109375, -393.95,-69.95) "/>
</g>

<g transform="matrix( 0.64306640625, 0, 0, 1, 252.65,15.95) ">
<use xlink:href="#s_0_Layer0_17_FILL"/>

<use xlink:href="#s_0_Layer0_17_1_STROKES" transform="matrix( 1.5550384521484375, 0, 0, 0.9999847412109375, -392.85,-15.95) "/>
</g>

<g transform="matrix( 0.64306640625, 0, 0, 1, 179.35,123.95) ">
<use xlink:href="#s_0_Layer0_18_FILL"/>

<use xlink:href="#s_0_Layer0_18_1_STROKES" transform="matrix( 1.5550384521484375, 0, 0, 0.9999847412109375, -278.85,-123.95) "/>
</g>

<g transform="matrix( 0.64306640625, 0, 0, 1, 105.35,177.95) ">
<use xlink:href="#s_0_Layer0_19_FILL"/>

<use xlink:href="#s_0_Layer0_19_1_STROKES" transform="matrix( 1.5550384521484375, 0, 0, 0.9999847412109375, -163.8,-177.9) "/>
</g>

<g transform="matrix( 0.64306640625, 0, 0, 1, 252.65,123.95) ">
<use xlink:href="#s_0_Layer0_20_FILL"/>

<use xlink:href="#s_0_Layer0_20_1_STROKES" transform="matrix( 1.5550384521484375, 0, 0, 0.9999847412109375, -392.85,-123.95) "/>
</g>

<g transform="matrix( 0.64306640625, 0, 0, 1, 327.35,69.95) ">
<use xlink:href="#s_0_Layer0_21_FILL"/>

<use xlink:href="#s_0_Layer0_21_1_STROKES" transform="matrix( 1.5550384521484375, 0, 0, 0.9999847412109375, -509,-69.95) "/>
</g>

<g transform="matrix( 0.64306640625, 0, 0, 1, 327.35,15.95) ">
<use xlink:href="#s_0_Layer0_22_FILL"/>

<use xlink:href="#s_0_Layer0_22_1_STROKES" transform="matrix( 1.5550384521484375, 0, 0, 0.9999847412109375, -509,-15.95) "/>
</g>

<g transform="matrix( 0.64306640625, 0, 0, 1, 327.35,123.95) ">
<use xlink:href="#s_0_Layer0_23_FILL"/>

<use xlink:href="#s_0_Layer0_23_1_STROKES" transform="matrix( 1.5550384521484375, 0, 0, 0.9999847412109375, -509,-123.95) "/>
</g>

<g transform="matrix( 0.64306640625, 0, 0, 1, 179.35,177.95) ">
<use xlink:href="#s_0_Layer0_24_FILL"/>

<use xlink:href="#s_0_Layer0_24_1_STROKES" transform="matrix( 1.5550384521484375, 0, 0, 0.9999847412109375, -278.85,-177.9) "/>
</g>

<g transform="matrix( 0.64306640625, 0, 0, 1, 253.35,177.95) ">
<use xlink:href="#s_0_Layer0_25_FILL"/>

<use xlink:href="#s_0_Layer0_25_1_STROKES" transform="matrix( 1.5550384521484375, 0, 0, 0.9999847412109375, -393.95,-177.9) "/>
</g>

<g transform="matrix( 0.64306640625, 0, 0, 1, 327.35,177.95) ">
<use xlink:href="#s_0_Layer0_26_FILL"/>

<use xlink:href="#s_0_Layer0_26_1_STROKES" transform="matrix( 1.5550384521484375, 0, 0, 0.9999847412109375, -509,-177.9) "/>
</g>

<g transform="matrix( 0.64306640625, 0, 0, 1, 401.35,177.95) ">
<use xlink:href="#s_0_Layer0_27_FILL"/>

<use xlink:href="#s_0_Layer0_27_1_STROKES" transform="matrix( 1.5550384521484375, 0, 0, 0.9999847412109375, -624.1,-177.9) "/>
</g>

<g transform="matrix( 0.64306640625, 0, 0, 1, 401.35,15.95) ">
<use xlink:href="#s_0_Layer0_28_FILL"/>

<use xlink:href="#s_0_Layer0_28_1_STROKES" transform="matrix( 1.5550384521484375, 0, 0, 0.9999847412109375, -624.1,-15.95) "/>
</g>

<g transform="matrix( 0.64306640625, 0, 0, 1, 401.35,69.95) ">
<use xlink:href="#s_0_Layer0_29_FILL"/>

<use xlink:href="#s_0_Layer0_29_1_STROKES" transform="matrix( 1.5550384521484375, 0, 0, 0.9999847412109375, -624.1,-69.95) "/>
</g>

<g transform="matrix( 0.64306640625, 0, 0, 1, 401.35,123.95) ">
<use xlink:href="#s_0_Layer0_30_FILL"/>

<use xlink:href="#s_0_Layer0_30_1_STROKES" transform="matrix( 1.5550384521484375, 0, 0, 0.9999847412109375, -624.1,-123.95) "/>
</g>

<g id="c5d3e289_a6e9_462f_b142_a00e1f73ec95" transform="matrix( 1, 0, 0, 1, 53.75,58) ">
<clipPath id="Mask_Mask_1">
<rect x="62.1" y="-2" width="19.8" height="19.6" fill="#FFFFFF" stroke="none"/>
</clipPath>

<text clip-path="url(#Mask_Mask_1)" writing-mode="lr"><tspan x="64.2" y="12.65" baseline-shift="0%" font-family="Arial" font-weight="bold" font-size="14" fill="#FFFFFF" xml:space="preserve">20</tspan></text>
</g>

<g id="b3637aaa_02bf_4dea_98c9_029747a98c5b" transform="matrix( 1, 0, 0, 1, 128.05,58) ">
<clipPath id="Mask_Mask_2">
<rect x="62.1" y="-2" width="19.8" height="19.6" fill="#FFFFFF" stroke="none"/>
</clipPath>

<text clip-path="url(#Mask_Mask_2)" writing-mode="lr"><tspan x="64.2" y="12.65" baseline-shift="0%" font-family="Arial" font-weight="bold" font-size="14" fill="#FFFFFF" xml:space="preserve">16</tspan></text>
</g>

<g id="FL_328bcc52_b54a_4204_85ea_1d49bedc48c4" transform="matrix( 1, 0, 0, 1, 201.65,58) ">
<clipPath id="Mask_Mask_3">
<rect x="62.1" y="-2" width="19.8" height="19.6" fill="#FFFFFF" stroke="none"/>
</clipPath>

<text clip-path="url(#Mask_Mask_3)" writing-mode="lr"><tspan x="64.2" y="12.65" baseline-shift="0%" font-family="Arial" font-weight="bold" font-size="14" fill="#FFFFFF" xml:space="preserve">12</tspan></text>
</g>

<g id="FL_7d094c96_6988_4ae2_9d38_73557c5c1a77" transform="matrix( 1, 0, 0, 1, 272.45,58) ">
<clipPath id="Mask_Mask_4">
<rect x="66" y="-2" width="12" height="19.6" fill="#FFFFFF" stroke="none"/>
</clipPath>

<text clip-path="url(#Mask_Mask_4)" writing-mode="lr"><tspan x="68.1" y="12.65" baseline-shift="0%" font-family="Arial" font-weight="bold" font-size="14" fill="#FFFFFF" xml:space="preserve">8</tspan></text>
</g>

<g id="FL_93f2ced3_6ad2_4700_a62c_53b5485790e2" transform="matrix( 1, 0, 0, 1, 345.75,58) ">
<clipPath id="Mask_Mask_5">
<rect x="66" y="-2" width="12" height="19.6" fill="#FFFFFF" stroke="none"/>
</clipPath>

<text clip-path="url(#Mask_Mask_5)" writing-mode="lr"><tspan x="68.1" y="12.65" baseline-shift="0%" font-family="Arial" font-weight="bold" font-size="14" fill="#FFFFFF" xml:space="preserve">4</tspan></text>
</g>

<g id="cebee9ca_6714_43f7_bae3_9db0467bc97a" transform="matrix( 1, 0, 0, 1, 53.75,110.1) ">
<clipPath id="Mask_Mask_6">
<rect x="62.1" y="-2" width="19.8" height="19.6" fill="#FFFFFF" stroke="none"/>
</clipPath>

<text clip-path="url(#Mask_Mask_6)" writing-mode="lr"><tspan x="64.2" y="12.65" baseline-shift="0%" font-family="Arial" font-weight="bold" font-size="14" fill="#FFFFFF" xml:space="preserve">15</tspan></text>
</g>

<g id="FL_838a645e_7e7d_4f5f_8350_8127e4f8ded1" transform="matrix( 1, 0, 0, 1, 128.05,112) ">
<clipPath id="Mask_Mask_7">
<rect x="62.1" y="-2" width="19.8" height="19.6" fill="#FFFFFF" stroke="none"/>
</clipPath>

<text clip-path="url(#Mask_Mask_7)" writing-mode="lr"><tspan x="64.2" y="12.65" baseline-shift="0%" font-family="Arial" font-weight="bold" font-size="14" fill="#FFFFFF" xml:space="preserve">12</tspan></text>
</g>

<g id="FL_7faf7586_236b_432d_905b_8a40f7c5aa23" transform="matrix( 1, 0, 0, 1, 197.75,112) ">
<clipPath id="Mask_Mask_8">
<rect x="66" y="-2" width="12" height="19.6" fill="#FFFFFF" stroke="none"/>
</clipPath>

<text clip-path="url(#Mask_Mask_8)" writing-mode="lr"><tspan x="68.1" y="12.65" baseline-shift="0%" font-family="Arial" font-weight="bold" font-size="14" fill="#FFFFFF" xml:space="preserve">9</tspan></text>
</g>

<g id="dcb05bbc_f1a8_407c_9bdd_a5045b95740c" transform="matrix( 1, 0, 0, 1, 272.45,112) ">
<clipPath id="Mask_Mask_9">
<rect x="66" y="-2" width="12" height="19.6" fill="#FFFFFF" stroke="none"/>
</clipPath>

<text clip-path="url(#Mask_Mask_9)" writing-mode="lr"><tspan x="68.1" y="12.65" baseline-shift="0%" font-family="Arial" font-weight="bold" font-size="14" fill="#FFFFFF" xml:space="preserve">6</tspan></text>
</g>

<g id="FL_68b67362_3470_4bcf_9803_92cd8850fee0" transform="matrix( 1, 0, 0, 1, 345.75,112) ">
<clipPath id="Mask_Mask_10">
<rect x="66" y="-2" width="12" height="19.6" fill="#FFFFFF" stroke="none"/>
</clipPath>

<text clip-path="url(#Mask_Mask_10)" writing-mode="lr"><tspan x="68.1" y="12.65" baseline-shift="0%" font-family="Arial" font-weight="bold" font-size="14" fill="#FFFFFF" xml:space="preserve">3</tspan></text>
</g>

<g id="e6b61c1b_32ad_4416_87e0_5f24a9b04132" transform="matrix( 1, 0, 0, 1, 345.75,166.85) ">
<clipPath id="Mask_Mask_11">
<rect x="66" y="-2" width="12" height="19.6" fill="#FFFFFF" stroke="none"/>
</clipPath>

<text clip-path="url(#Mask_Mask_11)" writing-mode="lr"><tspan x="68.1" y="12.65" baseline-shift="0%" font-family="Arial" font-weight="bold" font-size="14" fill="#FFFFFF" xml:space="preserve">2</tspan></text>
</g>

<g id="a65393c3_d791_43c6_a79a_fd4a6ad90978" transform="matrix( 1, 0, 0, 1, 345.75,222.75) ">
<clipPath id="Mask_Mask_12">
<rect x="66" y="-2" width="12" height="19.6" fill="#FFFFFF" stroke="none"/>
</clipPath>

<text clip-path="url(#Mask_Mask_12)" writing-mode="lr"><tspan x="68.1" y="12.65" baseline-shift="0%" font-family="Arial" font-weight="bold" font-size="14" fill="#FFFFFF" xml:space="preserve">1</tspan></text>
</g>

<g id="FL_4d544447_9241_4f4c_9ffa_be7174a2ec1d" transform="matrix( 1, 0, 0, 1, 272.45,220.85) ">
<clipPath id="Mask_Mask_13">
<rect x="66" y="-2" width="12" height="19.6" fill="#FFFFFF" stroke="none"/>
</clipPath>

<text clip-path="url(#Mask_Mask_13)" writing-mode="lr"><tspan x="68.1" y="12.65" baseline-shift="0%" font-family="Arial" font-weight="bold" font-size="14" fill="#FFFFFF" xml:space="preserve">2</tspan></text>
</g>

<g id="f60274e6_bae6_4a4d_9bff_54f51bdfa3a5" transform="matrix( 1, 0, 0, 1, 272.45,168.75) ">
<clipPath id="Mask_Mask_14">
<rect x="66" y="-2" width="12" height="19.6" fill="#FFFFFF" stroke="none"/>
</clipPath>

<text clip-path="url(#Mask_Mask_14)" writing-mode="lr"><tspan x="68.1" y="12.65" baseline-shift="0%" font-family="Arial" font-weight="bold" font-size="14" fill="#FFFFFF" xml:space="preserve">4</tspan></text>
</g>

<g id="FL_2675bad5_f186_450a_bec9_144d23d7e2af" transform="matrix( 1, 0, 0, 1, 197.75,222.75) ">
<clipPath id="Mask_Mask_15">
<rect x="66" y="-2" width="12" height="19.6" fill="#FFFFFF" stroke="none"/>
</clipPath>

<text clip-path="url(#Mask_Mask_15)" writing-mode="lr"><tspan x="68.1" y="12.65" baseline-shift="0%" font-family="Arial" font-weight="bold" font-size="14" fill="#FFFFFF" xml:space="preserve">3</tspan></text>
</g>

<g id="dbe7611e_d311_4811_9863_206382ad634d" transform="matrix( 1, 0, 0, 1, 124.15,220.85) ">
<clipPath id="Mask_Mask_16">
<rect x="66" y="-2" width="12" height="19.6" fill="#FFFFFF" stroke="none"/>
</clipPath>

<text clip-path="url(#Mask_Mask_16)" writing-mode="lr"><tspan x="68.1" y="12.65" baseline-shift="0%" font-family="Arial" font-weight="bold" font-size="14" fill="#FFFFFF" xml:space="preserve">4</tspan></text>
</g>

<g id="c40f5c12_4551_4d57_9c70_20477cabd6e8" transform="matrix( 1, 0, 0, 1, 49.85,220.85) ">
<clipPath id="Mask_Mask_17">
<rect x="66" y="-2" width="12" height="19.6" fill="#FFFFFF" stroke="none"/>
</clipPath>

<text clip-path="url(#Mask_Mask_17)" writing-mode="lr"><tspan x="68.1" y="12.65" baseline-shift="0%" font-family="Arial" font-weight="bold" font-size="14" fill="#FFFFFF" xml:space="preserve">5</tspan></text>
</g>

<g id="d985cdd3_92d1_49df_934d_7c3822e84bd3" transform="matrix( 1, 0, 0, 1, 53.75,166.85) ">
<clipPath id="Mask_Mask_18">
<rect x="62.1" y="-2" width="19.8" height="19.6" fill="#FFFFFF" stroke="none"/>
</clipPath>

<text clip-path="url(#Mask_Mask_18)" writing-mode="lr"><tspan x="64.2" y="12.65" baseline-shift="0%" font-family="Arial" font-weight="bold" font-size="14" fill="#FFFFFF" xml:space="preserve">10</tspan></text>
</g>

<g id="d1012c11_1257_4157_8d56_eb55084c641e" transform="matrix( 1, 0, 0, 1, 126.85,166.85) ">
<clipPath id="Mask_Mask_19">
<rect x="63.3" y="-2" width="17.4" height="19.6" fill="#FFFFFF" stroke="none"/>
</clipPath>

<text clip-path="url(#Mask_Mask_19)" writing-mode="lr"><tspan x="65.35" y="12.65" baseline-shift="0%" font-family="Arial" font-weight="bold" font-size="14" fill="#FFFFFF" xml:space="preserve">8*</tspan></text>
</g>

<g id="FL_11c5f05e_dd14_4272_b8b4_26ddd3dd7547" transform="matrix( 1, 0, 0, 1, 197.75,166.85) ">
<clipPath id="Mask_Mask_20">
<rect x="66" y="-2" width="12" height="19.6" fill="#FFFFFF" stroke="none"/>
</clipPath>

<text clip-path="url(#Mask_Mask_20)" writing-mode="lr"><tspan x="68.1" y="12.65" baseline-shift="0%" font-family="Arial" font-weight="bold" font-size="14" fill="#FFFFFF" xml:space="preserve">6</tspan></text>
</g>

<g id="d83df6bc_d4e4_4528_a350_7e0a752db5ab" transform="matrix( 1, 0, 0, 1, -27.3,222.75) ">
<clipPath id="Mask_Mask_21">
<rect x="29.2" y="-2" width="96.15" height="17.7" fill="#FFFFFF" stroke="none"/>
</clipPath>

<text clip-path="url(#Mask_Mask_21)" writing-mode="lr"><tspan x="31.2" y="11.15" baseline-shift="0%" font-family="Arial" font-weight="bold" font-size="12" fill="#FFFFFF" xml:space="preserve">Despreciable - 1</tspan></text>
</g>

<g id="f2a35a76_fc1f_43f6_ba42_9ca69a44c466" transform="matrix( 1, 0, 0, 1, -34.65,168.75) ">
<clipPath id="Mask_Mask_22">
<rect x="36.55" y="-2" width="70.9" height="17.7" fill="#FFFFFF" stroke="none"/>
</clipPath>

<text clip-path="url(#Mask_Mask_22)" writing-mode="lr"><tspan x="38.55" y="11.15" baseline-shift="0%" font-family="Arial" font-weight="bold" font-size="12" fill="#FFFFFF" xml:space="preserve">Marginal - 2</tspan></text>
</g>

<g id="FL_4a28de1e_97e6_4472_838a_a6034d2e1c4e" transform="matrix( 1, 0, 0, 1, -42.35,112) ">
<clipPath id="Mask_Mask_23">
<rect x="44.25" y="-2" width="59.55" height="17.7" fill="#FFFFFF" stroke="none"/>
</clipPath>

<text clip-path="url(#Mask_Mask_23)" writing-mode="lr"><tspan x="46.25" y="11.15" baseline-shift="0%" font-family="Arial" font-weight="bold" font-size="12" fill="#FFFFFF" xml:space="preserve">Crítico - 3</tspan></text>
</g>

<g id="FL_31e65ef2_7878_4d19_b869_b1a3b7267f5b" transform="matrix( 1, 0, 0, 1, -22.7,58) ">
<clipPath id="Mask_Mask_24">
<rect x="24.6" y="-2" width="91.5" height="17.7" fill="#FFFFFF" stroke="none"/>
</clipPath>

<text clip-path="url(#Mask_Mask_24)" writing-mode="lr"><tspan x="26.6" y="11.15" baseline-shift="0%" font-family="Arial" font-weight="bold" font-size="12" fill="#FFFFFF" xml:space="preserve">Catastrófico - 4</tspan></text>
</g>

<g id="f8c728aa_799e_46f5_ad41_049957f24707" transform="matrix( 1, 0, 0, 1, -40.35,4) ">
<clipPath id="Mask_Mask_25">
<rect x="42.25" y="-2" width="59.5" height="17.7" fill="#FFFFFF" stroke="none"/>
</clipPath>

<text clip-path="url(#Mask_Mask_25)" writing-mode="lr"><tspan x="44.25" y="11.15" baseline-shift="0%" font-family="Arial" font-weight="bold" font-size="12" fill="#FFFFFF" xml:space="preserve">Categoría</tspan></text>
</g>

<g id="b0e5b2d8_1568_4a7c_995f_1d3818a2a1a6" transform="matrix( 1, 0, 0, 1, 72.5,4) ">
<clipPath id="Mask_Mask_26">
<rect x="41.25" y="-2" width="61.5" height="33.4" fill="#FFFFFF" stroke="none"/>
</clipPath>

<text clip-path="url(#Mask_Mask_26)" writing-mode="lr"><tspan x="43.35" y="11.15" baseline-shift="0%" font-family="Arial" font-weight="bold" font-size="12" fill="#FFFFFF" xml:space="preserve">Frecuente</tspan><tspan x="65" y="24.85" baseline-shift="0%" font-family="Arial" font-weight="bold" font-size="12" fill="#FFFFFF" xml:space="preserve">- 5</tspan></text>
</g>

<g id="FL_70db8e6f_060a_4116_8661_033f6e229787" transform="matrix( 1, 0, 0, 1, 134.8,4) ">
<clipPath id="Mask_Mask_27">
<rect x="52.95" y="-2" width="71.25" height="33.4" fill="#FFFFFF" stroke="none"/>
</clipPath>

<text clip-path="url(#Mask_Mask_27)" writing-mode="lr"><tspan x="54.95" y="11.15" baseline-shift="0%" font-family="Arial" font-weight="bold" font-size="12" fill="#FFFFFF" xml:space="preserve">Probable</tspan><tspan x="54.95" y="24.85" baseline-shift="0%" font-family="Arial" font-weight="bold" font-size="12" fill="#FFFFFF" xml:space="preserve">- 4</tspan></text>
</g>

<g id="ec72358a_8f0c_40ee_8c41_0d1f86a48a63" transform="matrix( 1, 0, 0, 1, 235.85,4) ">
<clipPath id="Mask_Mask_28">
<rect x="25.9" y="-2" width="61.55" height="33.4" fill="#FFFFFF" stroke="none"/>
</clipPath>

<text clip-path="url(#Mask_Mask_28)" writing-mode="lr"><tspan x="27.9" y="11.15" baseline-shift="0%" font-family="Arial" font-weight="bold" font-size="12" fill="#FFFFFF" xml:space="preserve">Ocasional</tspan><tspan x="27.9" y="24.85" baseline-shift="0%" font-family="Arial" font-weight="bold" font-size="12" fill="#FFFFFF" xml:space="preserve">- 3</tspan></text>
</g>

<g id="a40b85c0_bbc8_4f35_8880_8a6ca5ecbeb6" transform="matrix( 1, 0, 0, 1, 296.2,4) ">
<clipPath id="Mask_Mask_29">
<rect x="39.55" y="-2" width="68.65" height="33.4" fill="#FFFFFF" stroke="none"/>
</clipPath>

<text clip-path="url(#Mask_Mask_29)" writing-mode="lr"><tspan x="41.55" y="11.15" baseline-shift="0%" font-family="Arial" font-weight="bold" font-size="12" fill="#FFFFFF" xml:space="preserve">Raramente</tspan><tspan x="41.55" y="24.85" baseline-shift="0%" font-family="Arial" font-weight="bold" font-size="12" fill="#FFFFFF" xml:space="preserve">- 2</tspan></text>
</g>

<g id="FL_47e6a95e_f525_4463_91f3_7c0467fc0a47" transform="matrix( 1, 0, 0, 1, 371.45,4) ">
<clipPath id="Mask_Mask_30">
<rect x="38.3" y="-2" width="70.1" height="33.4" fill="#FFFFFF" stroke="none"/>
</clipPath>

<text clip-path="url(#Mask_Mask_30)" writing-mode="lr"><tspan x="40.3" y="11.15" baseline-shift="0%" font-family="Arial" font-weight="bold" font-size="12" fill="#FFFFFF" xml:space="preserve">Improbable</tspan><tspan x="40.3" y="24.85" baseline-shift="0%" font-family="Arial" font-weight="bold" font-size="12" fill="#FFFFFF" xml:space="preserve">- 1</tspan></text>
</g>

<g id="FL_156553f4_0fde_4cb3_bcc3_6fa72f840d27" transform="matrix( 1, 0, 0, 1, -25.95,283.8) ">
<clipPath id="Mask_Mask_31">
<rect x="25.95" y="-2" width="111.5" height="16.55" fill="#FFFFFF" stroke="none"/>
</clipPath>

<text clip-path="url(#Mask_Mask_31)" writing-mode="lr"><tspan x="32.25" y="10.2" baseline-shift="0%" font-family="Arial" font-weight="bold" font-size="11" fill="#FFFFFF" xml:space="preserve">* Falla del Servidor</tspan></text>
</g>
</g>
</svg>
