
<svg xmlns="http://www.w3.org/2000/svg" version="1.1" xmlns:xlink="http://www.w3.org/1999/xlink" preserveAspectRatio="none" x="0px" y="0px" width="512px" height="400px" viewBox="0 0 512 400">
<defs>
<g id="s_0_Layer0_3_FILL">
<path fill="#E2231A" stroke="none" d="
M 12.05 248.05
L 12.05 314.05 286 314.05 286 248.05 12.05 248.05 Z"/>
</g>

<g id="s_0_Layer0_4_FILL">
<path fill="#E2231A" stroke="none" d="
M 354 390.05
L 354 327.05 84.05 327.05 84.05 390.05 354 390.05 Z"/>
</g>

<g id="s_0_Layer0_5_FILL">
<path fill="#E2231A" stroke="none" d="
M 341 211.05
L 341 249.05 503 249.05 503 211.05 341 211.05 Z"/>
</g>

<g id="s_0_Layer0_6_FILL">
<path fill="#ECEDEE" stroke="none" d="
M 13.05 101.05
L 13.05 149.05 89.05 149.05 89.05 101.05 13.05 101.05 Z"/>
</g>

<g id="s_0_Layer0_7_FILL">
<path fill="#1E4471" stroke="none" d="
M 498 148.05
L 498 100.05 13.05 100.05 13.05 148.05 498 148.05 Z"/>
</g>

<g id="s_0_Layer0_8_FILL">
<path fill="#1E4471" stroke="none" d="
M 498 148.05
L 498 100.05 13.05 100.05 13.05 148.05 498 148.05 Z"/>
</g>

<g id="s_0_Layer0_9_FILL">
<path fill="#1E4471" stroke="none" d="
M 498 148.05
L 498 100.05 13.05 100.05 13.05 148.05 498 148.05 Z"/>
</g>

<g id="s_0_Layer0_10_FILL">
<path fill="#1E4471" stroke="none" d="
M 498 148.05
L 498 100.05 13.05 100.05 13.05 148.05 498 148.05 Z"/>
</g>

<g id="s_0_Layer0_11_FILL">
<path fill="#1E4471" stroke="none" d="
M 58.1 216.05
L 58.1 280.05 178.05 280.05 178.05 216.05 58.1 216.05 Z"/>
</g>

<g id="s_0_Layer0_12_FILL">
<path fill="#ECEDEE" stroke="none" d="
M 498 148.05
L 498 100.05 13.05 100.05 13.05 148.05 498 148.05 Z"/>
</g>

<g id="s_0_Layer0_13_FILL">
<path fill="#ECEDEE" stroke="none" d="
M 498 148.05
L 498 100.05 13.05 100.05 13.05 148.05 498 148.05 Z"/>
</g>

<g id="s_0_Layer0_14_FILL">
<path fill="#ECEDEE" stroke="none" d="
M 498 148.05
L 498 100.05 13.05 100.05 13.05 148.05 498 148.05 Z"/>
</g>

<g id="s_0_Layer0_15_FILL">
<path fill="#ECEDEE" stroke="none" d="
M 58.1 216.05
L 58.1 280.05 178.05 280.05 178.05 216.05 58.1 216.05 Z"/>
</g>

<g id="s_0_Layer0_16_FILL">
<path fill="#000000" stroke="none" d="
M 261.45 240.95
L 274.85 217.7 248 217.7 261.45 240.95 Z"/>
</g>

<g id="s_0_Layer0_17_FILL">
<path fill="#000000" stroke="none" d="
M 261.45 240.95
L 274.85 217.7 248 217.7 261.45 240.95 Z"/>
</g>

<g id="s_0_Layer0_18_FILL">
<path fill="#000000" stroke="none" d="
M 261.45 240.95
L 274.85 217.7 248 217.7 261.45 240.95 Z"/>
</g>

<path id="s_0_Layer0_0_1_STROKES" stroke="#000000" stroke-width="5" stroke-linejoin="round" stroke-linecap="round" fill="none" d="
M 219 227.05
L 219 144.05"/>

<path id="s_0_Layer0_1_1_STROKES" stroke="#000000" stroke-width="5" stroke-linejoin="round" stroke-linecap="round" fill="none" d="
M 311 307.05
L 311 143.05"/>

<path id="s_0_Layer0_2_1_STROKES" stroke="#000000" stroke-width="5" stroke-linejoin="round" stroke-linecap="round" fill="none" d="
M 458 193.05
L 458 143.05"/>

<path id="s_0_Layer0_3_1_STROKES" stroke="#000000" stroke-opacity="0" stroke-width="5" stroke-linejoin="round" stroke-linecap="round" fill="none" d="
M 12.05 248.05
L 286 248.05 286 314.05 12.05 314.05 12.05 248.05 Z"/>

<path id="s_0_Layer0_4_1_STROKES" stroke="#000000" stroke-opacity="0" stroke-width="5" stroke-linejoin="round" stroke-linecap="round" fill="none" d="
M 84.05 327.05
L 354 327.05 354 390.05 84.05 390.05 84.05 327.05 Z"/>

<path id="s_0_Layer0_5_1_STROKES" stroke="#000000" stroke-opacity="0" stroke-width="5" stroke-linejoin="round" stroke-linecap="round" fill="none" d="
M 341 211.05
L 503 211.05 503 249.05 341 249.05 341 211.05 Z"/>

<path id="s_0_Layer0_6_1_STROKES" stroke="#000000" stroke-opacity="0" stroke-width="5" stroke-linejoin="round" stroke-linecap="round" fill="none" d="
M 13.05 101.05
L 89.05 101.05 89.05 149.05 13.05 149.05 13.05 101.05 Z"/>

<path id="s_0_Layer0_7_1_STROKES" stroke="#000000" stroke-opacity="0" stroke-width="5" stroke-linejoin="round" stroke-linecap="round" fill="none" d="
M -0.005361938476562411 -0.0020355224609431843
L 75.9752685546875 -0.0020355224609431843 75.9752685546875 63.996987915039085 -0.005361938476562411 63.996987915039085 -0.005361938476562411 -0.0020355224609431843 Z"/>

<path id="s_0_Layer0_8_1_STROKES" stroke="#000000" stroke-opacity="0" stroke-width="5" stroke-linejoin="round" stroke-linecap="round" fill="none" d="
M 78.54463806152344 -0.0020355224609431843
L 154.5252685546875 -0.0020355224609431843 154.5252685546875 63.996987915039085 78.54463806152344 63.996987915039085 78.54463806152344 -0.0020355224609431843 Z"/>

<path id="s_0_Layer0_9_1_STROKES" stroke="#000000" stroke-opacity="0" stroke-width="5" stroke-linejoin="round" stroke-linecap="round" fill="none" d="
M 156.5297119140625 -0.0020355224609431843
L 250.5361328125 -0.0020355224609431843 250.5361328125 63.996987915039085 156.5297119140625 63.996987915039085 156.5297119140625 -0.0020355224609431843 Z"/>

<path id="s_0_Layer0_10_1_STROKES" stroke="#000000" stroke-opacity="0" stroke-width="5" stroke-linejoin="round" stroke-linecap="round" fill="none" d="
M 252.5290466308594 -0.0020355224609431843
L 372.523388671875 -0.0020355224609431843 372.523388671875 63.996987915039085 252.5290466308594 63.996987915039085 252.5290466308594 -0.0020355224609431843 Z"/>

<path id="s_0_Layer0_11_1_STROKES" stroke="#000000" stroke-opacity="0" stroke-width="5" stroke-linejoin="round" stroke-linecap="round" fill="none" d="
M 58.1 216.05
L 178.05 216.05 178.05 280.05 58.1 280.05 58.1 216.05 Z"/>

<path id="s_0_Layer0_12_1_STROKES" stroke="#000000" stroke-opacity="0" stroke-width="5" stroke-linejoin="round" stroke-linecap="round" fill="none" d="
M 78.54463806152344 65.9984733581543
L 154.5252685546875 65.9984733581543 154.5252685546875 113.9977409362793 78.54463806152344 113.9977409362793 78.54463806152344 65.9984733581543 Z"/>

<path id="s_0_Layer0_13_1_STROKES" stroke="#000000" stroke-opacity="0" stroke-width="5" stroke-linejoin="round" stroke-linecap="round" fill="none" d="
M 156.5297119140625 65.9984733581543
L 250.5361328125 65.9984733581543 250.5361328125 113.9977409362793 156.5297119140625 113.9977409362793 156.5297119140625 65.9984733581543 Z"/>

<path id="s_0_Layer0_14_1_STROKES" stroke="#000000" stroke-opacity="0" stroke-width="5" stroke-linejoin="round" stroke-linecap="round" fill="none" d="
M 252.5290466308594 65.9984733581543
L 372.523388671875 65.9984733581543 372.523388671875 113.9977409362793 252.5290466308594 113.9977409362793 252.5290466308594 65.9984733581543 Z"/>

<path id="s_0_Layer0_15_1_STROKES" stroke="#000000" stroke-opacity="0" stroke-width="5" stroke-linejoin="round" stroke-linecap="round" fill="none" d="
M 58.1 216.05
L 178.05 216.05 178.05 280.05 58.1 280.05 58.1 216.05 Z"/>

<path id="s_0_Layer0_16_1_STROKES" stroke="#000000" stroke-opacity="0" stroke-width="5" stroke-linejoin="round" stroke-linecap="round" fill="none" d="
M 261.45 240.95
L 248 217.7 274.85 217.7 261.45 240.95 Z"/>

<path id="s_0_Layer0_17_1_STROKES" stroke="#000000" stroke-opacity="0" stroke-width="5" stroke-linejoin="round" stroke-linecap="round" fill="none" d="
M 261.45 240.95
L 248 217.7 274.85 217.7 261.45 240.95 Z"/>

<path id="s_0_Layer0_18_1_STROKES" stroke="#000000" stroke-opacity="0" stroke-width="5" stroke-linejoin="round" stroke-linecap="round" fill="none" d="
M 261.45 240.95
L 248 217.7 274.85 217.7 261.45 240.95 Z"/>
</defs>

<g transform="matrix( 1, 0, 0, 1, 7.5,35.05) ">
<g transform="matrix( 1, 0, 0, 1, -7.5,-35.05) ">
<use xlink:href="#s_0_Layer0_0_1_STROKES"/>
</g>

<g transform="matrix( 1, 0, 0, 1, -7.5,-35.05) ">
<use xlink:href="#s_0_Layer0_1_1_STROKES"/>
</g>

<g transform="matrix( 1, 0, 0, 1, -7.5,-35.05) ">
<use xlink:href="#s_0_Layer0_2_1_STROKES"/>
</g>

<g transform="matrix( 1, 0, 0, 1, -7.5,-35.05) ">
<use xlink:href="#s_0_Layer0_3_FILL"/>

<use xlink:href="#s_0_Layer0_3_1_STROKES"/>
</g>

<g transform="matrix( 1, 0, 0, 1, -7.5,-35.05) ">
<use xlink:href="#s_0_Layer0_4_FILL"/>

<use xlink:href="#s_0_Layer0_4_1_STROKES"/>
</g>

<g transform="matrix( 1, 0, 0, 1, -7.5,-35.05) ">
<use xlink:href="#s_0_Layer0_5_FILL"/>

<use xlink:href="#s_0_Layer0_5_1_STROKES"/>
</g>

<g transform="matrix( 1, 0, 0, 1, -13.05,-35.05) ">
<use xlink:href="#s_0_Layer0_6_FILL"/>

<use xlink:href="#s_0_Layer0_6_1_STROKES"/>
</g>

<g transform="matrix( 0.15667724609375, 0, 0, 1.33331298828125, -2.05,-133.4) ">
<use xlink:href="#s_0_Layer0_7_FILL"/>

<use xlink:href="#s_0_Layer0_7_1_STROKES" transform="matrix( 6.382537841796875, 0, 0, 0.75, 13.05,100.05) "/>
</g>

<g transform="matrix( 0.15667724609375, 0, 0, 1.33331298828125, 76.5,-133.4) ">
<use xlink:href="#s_0_Layer0_8_FILL"/>

<use xlink:href="#s_0_Layer0_8_1_STROKES" transform="matrix( 6.382537841796875, 0, 0, 0.75, -488.25,100.05) "/>
</g>

<g transform="matrix( 0.19384765625, 0, 0, 1.33331298828125, 154,-133.4) ">
<use xlink:href="#s_0_Layer0_9_FILL"/>

<use xlink:href="#s_0_Layer0_9_1_STROKES" transform="matrix( 5.1586761474609375, 0, 0, 0.75, -794.4,100.05) "/>
</g>

<g transform="matrix( 0.2474365234375, 0, 0, 1.33331298828125, 249.3,-133.4) ">
<use xlink:href="#s_0_Layer0_10_FILL"/>

<use xlink:href="#s_0_Layer0_10_1_STROKES" transform="matrix( 4.0414276123046875, 0, 0, 0.75, -1007.5,100.05) "/>
</g>

<g transform="matrix( 1, 0, 0, 1, 316.45,-216.05) ">
<use xlink:href="#s_0_Layer0_11_FILL"/>

<use xlink:href="#s_0_Layer0_11_1_STROKES"/>
</g>

<g transform="matrix( 0.15667724609375, 0, 0, 0.9999847412109375, 76.5,-34.05) ">
<use xlink:href="#s_0_Layer0_12_FILL"/>

<use xlink:href="#s_0_Layer0_12_1_STROKES" transform="matrix( 6.382537841796875, 0, 0, 1, -488.25,34.05) "/>
</g>

<g transform="matrix( 0.19384765625, 0, 0, 0.9999847412109375, 154,-34.05) ">
<use xlink:href="#s_0_Layer0_13_FILL"/>

<use xlink:href="#s_0_Layer0_13_1_STROKES" transform="matrix( 5.1586761474609375, 0, 0, 1.0000152587890625, -794.4,34.05) "/>
</g>

<g transform="matrix( 0.2474365234375, 0, 0, 0.9999847412109375, 249.3,-34.05) ">
<use xlink:href="#s_0_Layer0_14_FILL"/>

<use xlink:href="#s_0_Layer0_14_1_STROKES" transform="matrix( 4.0414276123046875, 0, 0, 1.0000152587890625, -1007.5,34.05) "/>
</g>

<g transform="matrix( 1, 0, 0, 0.75, 316.45,-96.05) ">
<use xlink:href="#s_0_Layer0_15_FILL"/>

<use xlink:href="#s_0_Layer0_15_1_STROKES"/>
</g>

<g transform="matrix( 1, 0, 0, 1, -49.5,-27.95) ">
<use xlink:href="#s_0_Layer0_16_FILL"/>

<use xlink:href="#s_0_Layer0_16_1_STROKES"/>
</g>

<g transform="matrix( 1, 0, 0, 1, 42.5,51.3) ">
<use xlink:href="#s_0_Layer0_17_FILL"/>

<use xlink:href="#s_0_Layer0_17_1_STROKES"/>
</g>

<g transform="matrix( 1, 0, 0, 1, 189.5,-64.95) ">
<use xlink:href="#s_0_Layer0_18_FILL"/>

<use xlink:href="#s_0_Layer0_18_1_STROKES"/>
</g>

<g id="FL_77c03774_4570_4ada_8b8c_efb4f19bcc49" transform="matrix( 1, 0, 0, 1, -48.55,7.25) ">
<clipPath id="Mask_Mask_1">
<rect x="48.55" y="-2" width="46.9" height="19.6" fill="#FFFFFF" stroke="none"/>
</clipPath>

<text clip-path="url(#Mask_Mask_1)" writing-mode="lr"><tspan x="50.6" y="12.65" baseline-shift="0%" font-family="Arial" font-weight="bold" font-size="14" fill="#FFFFFF" xml:space="preserve">Activo</tspan></text>
</g>

<g id="b1ad4f7d_a0c2_4d82_bdc6_b6cd376d4360" transform="matrix( 1, 0, 0, 1, 40.35,6) ">
<clipPath id="Mask_Mask_2">
<rect x="39.2" y="-2" width="65.6" height="19.6" fill="#FFFFFF" stroke="none"/>
</clipPath>

<text clip-path="url(#Mask_Mask_2)" writing-mode="lr"><tspan x="41.25" y="12.65" baseline-shift="0%" font-family="Arial" font-weight="bold" font-size="14" fill="#FFFFFF" xml:space="preserve">Amenaza</tspan></text>
</g>

<g id="FL_76498a9a_ffed_43b8_b6ac_879e17897481" transform="matrix( 1, 0, 0, 1, 210.65,5.9) ">
<clipPath id="Mask_Mask_3">
<rect x="-52.55" y="-2" width="90.45" height="49.1" fill="#FFFFFF" stroke="none"/>
</clipPath>

<text clip-path="url(#Mask_Mask_3)" writing-mode="lr"><tspan x="-49.3" y="11.15" baseline-shift="0%" font-family="Arial" font-weight="bold" font-size="12" fill="#FFFFFF" xml:space="preserve">Expectativa de </tspan><tspan x="-49.7" y="24.85" baseline-shift="0%" font-family="Arial" font-weight="bold" font-size="12" fill="#FFFFFF" xml:space="preserve">pérdida simple </tspan><tspan x="-23" y="38.55" baseline-shift="0%" font-family="Arial" font-weight="bold" font-size="12" fill="#FFFFFF" xml:space="preserve">(SLE) </tspan></text>
</g>

<g id="FL_94380862_a12f_4f53_b1d8_cac8e3e9c56a" transform="matrix( 1, 0, 0, 1, 274.45,6) ">
<clipPath id="Mask_Mask_4">
<rect x="-22.4" y="-2" width="119.4" height="33.4" fill="#FFFFFF" stroke="none"/>
</clipPath>

<text clip-path="url(#Mask_Mask_4)" writing-mode="lr"><tspan x="-18.35" y="11.15" baseline-shift="0%" font-family="Arial" font-weight="bold" font-size="12" fill="#FFFFFF" xml:space="preserve">Tasa de Ocurrencia </tspan><tspan x="1.6" y="24.85" baseline-shift="0%" font-family="Arial" font-weight="bold" font-size="12" fill="#FFFFFF" xml:space="preserve">Anual (ARO)</tspan></text>
</g>

<g id="FL_40c48829_119c_4708_9817_782c6993c150" transform="matrix( 1, 0, 0, 1, 408.05,5.9) ">
<clipPath id="Mask_Mask_5">
<rect x="-31.55" y="-2" width="113.45" height="49.1" fill="#FFFFFF" stroke="none"/>
</clipPath>

<text clip-path="url(#Mask_Mask_5)" writing-mode="lr"><tspan x="-16.8" y="11.15" baseline-shift="0%" font-family="Arial" font-weight="bold" font-size="12" fill="#FFFFFF" xml:space="preserve">Expectativa de </tspan><tspan x="-15.2" y="24.85" baseline-shift="0%" font-family="Arial" font-weight="bold" font-size="12" fill="#FFFFFF" xml:space="preserve">Pérdida Anual </tspan><tspan x="9.15" y="38.55" baseline-shift="0%" font-family="Arial" font-weight="bold" font-size="12" fill="#FFFFFF" xml:space="preserve">(ALE)</tspan></text>
</g>

<g id="FL_6becc121_3fbc_4b62_acfb_9b806289a960" transform="matrix( 1, 0, 0, 1, -0.15,71.25) ">
<clipPath id="Mask_Mask_6">
<rect x="0.7" y="-2" width="74" height="33.4" fill="#FFFFFF" stroke="none"/>
</clipPath>

<text clip-path="url(#Mask_Mask_6)" writing-mode="lr"><tspan x="2.7" y="11.15" baseline-shift="0%" font-family="Arial" font-weight="bold" font-size="12" fill="#1E4471" xml:space="preserve">Servidor de </tspan><tspan x="2.7" y="24.85" baseline-shift="0%" font-family="Arial" font-weight="bold" font-size="12" fill="#1E4471" xml:space="preserve">archivos</tspan></text>
</g>

<g id="f7bc7633_ce9f_4184_acaa_87e1359c0279" transform="matrix( 1, 0, 0, 1, 28.6,72) ">
<clipPath id="Mask_Mask_7">
<rect x="53.95" y="-2" width="36.1" height="19.6" fill="#FFFFFF" stroke="none"/>
</clipPath>

<text clip-path="url(#Mask_Mask_7)" writing-mode="lr"><tspan x="56.05" y="12.65" baseline-shift="0%" font-family="Arial" font-weight="bold" font-size="14" fill="#1E4471" xml:space="preserve">Falla</tspan></text>
</g>

<g id="FL_55c73ae1_05f1_4836_81a9_fe53e3d780e0" transform="matrix( 1, 0, 0, 1, 116.05,71.25) ">
<clipPath id="Mask_Mask_8">
<rect x="44.55" y="-2" width="54.9" height="19.6" fill="#FFFFFF" stroke="none"/>
</clipPath>

<text clip-path="url(#Mask_Mask_8)" writing-mode="lr"><tspan x="46.65" y="12.65" baseline-shift="0%" font-family="Arial" font-weight="bold" font-size="14" fill="#1E4471" xml:space="preserve">$15,000</tspan></text>
</g>

<g id="FL_6344bc2d_73f1_490c_96ec_2450adf486d2" transform="matrix( 1, 0, 0, 1, 200.65,72) ">
<clipPath id="Mask_Mask_9">
<rect x="55.9" y="-2" width="32.2" height="19.6" fill="#FFFFFF" stroke="none"/>
</clipPath>

<text clip-path="url(#Mask_Mask_9)" writing-mode="lr"><tspan x="57.95" y="12.65" baseline-shift="0%" font-family="Arial" font-weight="bold" font-size="14" fill="#1E4471" xml:space="preserve">15%</tspan></text>
</g>

<g id="c8038c4e_7640_4bb4_b8c3_0de84b9f59a5" transform="matrix( 1, 0, 0, 1, 328.05,72) ">
<clipPath id="Mask_Mask_10">
<rect x="48.45" y="-2" width="47.1" height="19.6" fill="#FFFFFF" stroke="none"/>
</clipPath>

<text clip-path="url(#Mask_Mask_10)" writing-mode="lr"><tspan x="50.55" y="12.65" baseline-shift="0%" font-family="Arial" font-weight="bold" font-size="14" fill="#1E4471" xml:space="preserve">$2,250</tspan></text>
</g>

<g id="d0bbd0a7_2162_405d_8ae1_cbb56d55624f" transform="matrix( 1, 0, 0, 1, 342.6,185) ">
<clipPath id="Mask_Mask_11">
<rect x="11" y="-2" width="122" height="19.6" fill="#FFFFFF" stroke="none"/>
</clipPath>

<text clip-path="url(#Mask_Mask_11)" writing-mode="lr"><tspan x="13.05" y="12.65" baseline-shift="0%" font-family="Arial" font-weight="bold" font-size="14" fill="#FFFFFF" xml:space="preserve">SLE x ARO = ALE</tspan></text>
</g>

<g id="FL_2055b565_82af_4554_a272_b96bee9eaf1c" transform="matrix( 1, 0, 0, 1, 88.95,220) ">
<clipPath id="Mask_Mask_12">
<rect x="-82.4" y="-2" width="269.95" height="54.8" fill="#FFFFFF" stroke="none"/>
</clipPath>

<text clip-path="url(#Mask_Mask_12)" writing-mode="lr"><tspan x="-78.8" y="12.65" baseline-shift="0%" font-family="Arial" font-weight="bold" font-size="14" fill="#FFFFFF" xml:space="preserve">Valor del Activo x Factor de Exposición </tspan><tspan x="32.9" y="28.25" baseline-shift="0%" font-family="Arial" font-weight="bold" font-size="14" fill="#FFFFFF" xml:space="preserve">= SLE</tspan><tspan x="-23.7" y="43.85" baseline-shift="0%" font-family="Arial" font-weight="bold" font-size="14" fill="#FFFFFF" xml:space="preserve">$15,000 x 1.0 = $15,000</tspan></text>
</g>

<g id="FL_1d586a74_db85_4cf4_b008_6d49392edca3" transform="matrix( 1, 0, 0, 1, 82.55,298.2) ">
<clipPath id="Mask_Mask_13">
<rect x="-2" y="-2" width="252.95" height="54.8" fill="#FFFFFF" stroke="none"/>
</clipPath>

<text clip-path="url(#Mask_Mask_13)" writing-mode="lr"><tspan x="10.55" y="12.65" baseline-shift="0%" font-family="Arial" font-weight="bold" font-size="14" fill="#FFFFFF" xml:space="preserve">La frecuencia estimada con la que </tspan><tspan x="12.65" y="28.25" baseline-shift="0%" font-family="Arial" font-weight="bold" font-size="14" fill="#FFFFFF" xml:space="preserve">ocurre una amenaza dentro de un </tspan><tspan x="31.65" y="43.85" baseline-shift="0%" font-family="Arial" font-weight="bold" font-size="14" fill="#FFFFFF" xml:space="preserve">marco de tiempo de un año.</tspan></text>
</g>
</g>
</svg>
