
<svg xmlns="http://www.w3.org/2000/svg" version="1.1" xmlns:xlink="http://www.w3.org/1999/xlink" preserveAspectRatio="none" x="0px" y="0px" width="512px" height="500px" viewBox="0 0 512 500">
<defs>
<g id="s_0_Layer0_1_FILL">
<path fill="#FFFFFF" stroke="none" d="
M 302.5 199.6
L 262.9 207.85 287 234.85 326.6 226.6 302.5 199.6 Z"/>
</g>

<g id="s_0_Layer0_2_FILL">
<path fill="#FFFFFF" stroke="none" d="
M 329.3 226
L 366.05 218.35 341.95 191.35 305.2 199 329.3 226 Z"/>
</g>

<g id="s_0_Layer0_3_FILL">
<path fill="#FFFFFF" stroke="none" d="
M 380.1 183.4
L 344.65 190.8 368.75 217.8 404.2 210.4 380.1 183.4 Z"/>
</g>

<g id="s_0_Layer0_4_FILL">
<path fill="#FFFFFF" stroke="none" d="
M 431 240.45
L 406.05 212.5 370.6 219.85 395.6 247.85 431 240.45 Z"/>
</g>

<g id="s_0_Layer0_5_FILL">
<path fill="#FFFFFF" stroke="none" d="
M 331.15 228.1
L 356.15 256.05 392.85 248.4 367.9 220.45 331.15 228.1 Z"/>
</g>

<g id="s_0_Layer0_6_FILL">
<path fill="#FFFFFF" stroke="none" d="
M 353.45 256.6
L 328.45 228.65 288.85 236.9 313.85 264.9 353.45 256.6 Z"/>
</g>

<g id="s_0_Layer0_7_FILL">
<path fill="#FFFFFF" stroke="none" d="
M 382.25 288.85
L 355.3 258.7 315.7 266.95 342.65 297.1 382.25 288.85 Z"/>
</g>

<g id="s_0_Layer0_8_FILL">
<path fill="#FFFFFF" stroke="none" d="
M 358 258.15
L 384.95 288.3 421.65 280.65 394.75 250.5 358 258.15 Z"/>
</g>

<g id="s_0_Layer0_9_FILL">
<path fill="#FFFFFF" stroke="none" d="
M 459.8 272.7
L 432.85 242.5 397.45 249.9 424.4 280.05 459.8 272.7 Z"/>
</g>

<g id="s_0_Layer0_10_FILL">
<path fill="#FFFFFF" stroke="none" d="
M 460.3 275.05
L 425.4 282.3 413.8 317.6 448.7 310.3 460.3 275.05 Z"/>
</g>

<g id="s_0_Layer0_11_FILL">
<path fill="#FFFFFF" stroke="none" d="
M 435.95 348.95
L 447.85 312.95 412.95 320.25 401.1 356.2 435.95 348.95 Z"/>
</g>

<g id="s_0_Layer0_12_FILL">
<path fill="#FFFFFF" stroke="none" d="
M 411.1 318.15
L 422.7 282.9 385.2 290.7 373.6 325.95 411.1 318.15 Z"/>
</g>

<g id="s_0_Layer0_13_FILL">
<path fill="#FFFFFF" stroke="none" d="
M 372.75 328.6
L 360.9 364.6 398.35 356.8 410.2 320.8 372.75 328.6 Z"/>
</g>

<g id="s_0_Layer0_14_FILL">
<path fill="#FFFFFF" stroke="none" d="
M 422.9 388.75
L 435.1 351.6 400.2 358.85 388 396 422.9 388.75 Z"/>
</g>

<g id="s_0_Layer0_15_FILL">
<path fill="#FFFFFF" stroke="none" d="
M 397.5 359.45
L 360 367.25 347.8 404.4 385.25 396.6 397.5 359.45 Z"/>
</g>

<g id="s_0_Layer0_16_FILL">
<path fill="#FFFFFF" stroke="none" d="
M 345.05 404.95
L 357.3 367.8 317.95 376 305.7 413.15 345.05 404.95 Z"/>
</g>

<g id="s_0_Layer0_17_FILL">
<path fill="#FFFFFF" stroke="none" d="
M 358.15 365.15
L 370 329.2 330.65 337.4 318.8 373.4 358.15 365.15 Z"/>
</g>

<g id="s_0_Layer0_18_FILL">
<path fill="#FFFFFF" stroke="none" d="
M 343.15 299.45
L 331.5 334.75 370.9 326.55 382.5 291.25 343.15 299.45 Z"/>
</g>

<g id="s_0_Layer0_19_FILL">
<path fill="#212529" stroke="none" d="
M 315.65 375.25
L 288.85 345.25 276.6 382.4 303.4 412.4 315.65 375.25 Z"/>
</g>

<g id="s_0_Layer0_20_FILL">
<path fill="#6C757D" stroke="none" d="
M 301.55 306.65
L 289.7 342.65 316.5 372.6 328.35 336.65 301.55 306.65 Z"/>
</g>

<g id="s_0_Layer0_21_FILL">
<path fill="#ADB5BD" stroke="none" d="
M 329.25 334
L 340.85 298.7 314.05 268.75 302.45 304 329.25 334 Z"/>
</g>

<g id="s_0_Layer0_22_FILL">
<path fill="#ADB5BD" stroke="none" d="
M 312.2 266.65
L 286.7 238.1 275.1 273.4 300.6 301.95 312.2 266.65 Z"/>
</g>

<g id="s_0_Layer0_23_FILL">
<path fill="#6C757D" stroke="none" d="
M 287.85 340.55
L 299.7 304.55 274.2 276 262.35 312 287.85 340.55 Z"/>
</g>

<g id="s_0_Layer0_24_FILL">
<path fill="#212529" stroke="none" d="
M 249.25 351.8
L 274.75 380.35 287 343.2 261.5 314.65 249.25 351.8 Z"/>
</g>

<g id="s_0_Layer0_25_FILL">
<path fill="#212529" stroke="none" d="
M 247.4 349.75
L 259.65 312.6 235.9 286 223.65 323.15 247.4 349.75 Z"/>
</g>

<g id="s_0_Layer0_26_FILL">
<path fill="#6C757D" stroke="none" d="
M 272.35 273.95
L 248.6 247.35 236.75 283.35 260.5 309.95 272.35 273.95 Z"/>
</g>

<g id="s_0_Layer0_27_FILL">
<path fill="#ADB5BD" stroke="none" d="
M 261.1 209.45
L 249.5 244.7 273.25 271.3 284.85 236.05 261.1 209.45 Z"/>
</g>

<g id="s_0_Layer0_28_FILL">
<path fill="#CED4DA" stroke="none" d="
M 381.4 181.3
Q 381 180.8 380.25 180.9
L 260.35 205.9 221.15 323.05
Q 221 323.75 221.4 324.25
L 303 415.55
Q 303.5 416.1 304.15 415.95
L 424.05 390.95
Q 424.7 390.8 424.95 390.15
L 463.25 273.8
Q 463.5 273.15 463 272.65
L 381.4 181.3
M 344.65 190.8
L 380.1 183.4 404.2 210.4 368.75 217.8 344.65 190.8
M 406.05 212.5
L 431 240.45 395.6 247.85 370.6 219.85 406.05 212.5
M 425.4 282.3
L 460.3 275.05 448.7 310.3 413.8 317.6 425.4 282.3
M 432.85 242.5
L 459.8 272.7 424.4 280.05 397.45 249.9 432.85 242.5
M 328.45 228.65
L 353.45 256.6 313.85 264.9 288.85 236.9 328.45 228.65
M 356.15 256.05
L 331.15 228.1 367.9 220.45 392.85 248.4 356.15 256.05
M 355.3 258.7
L 382.25 288.85 342.65 297.1 315.7 266.95 355.3 258.7
M 384.95 288.3
L 358 258.15 394.75 250.5 421.65 280.65 384.95 288.3
M 366.05 218.35
L 329.3 226 305.2 199 341.95 191.35 366.05 218.35
M 340.85 298.7
L 329.25 334 302.45 304 314.05 268.75 340.85 298.7
M 331.5 334.75
L 343.15 299.45 382.5 291.25 370.9 326.55 331.5 334.75
M 370 329.2
L 358.15 365.15 318.8 373.4 330.65 337.4 370 329.2
M 360 367.25
L 397.5 359.45 385.25 396.6 347.8 404.4 360 367.25
M 360.9 364.6
L 372.75 328.6 410.2 320.8 398.35 356.8 360.9 364.6
M 435.1 351.6
L 422.9 388.75 388 396 400.2 358.85 435.1 351.6
M 447.85 312.95
L 435.95 348.95 401.1 356.2 412.95 320.25 447.85 312.95
M 422.7 282.9
L 411.1 318.15 373.6 325.95 385.2 290.7 422.7 282.9
M 249.5 244.7
L 261.1 209.45 284.85 236.05 273.25 271.3 249.5 244.7
M 286.7 238.1
L 312.2 266.65 300.6 301.95 275.1 273.4 286.7 238.1
M 262.9 207.85
L 302.5 199.6 326.6 226.6 287 234.85 262.9 207.85
M 248.6 247.35
L 272.35 273.95 260.5 309.95 236.75 283.35 248.6 247.35
M 299.7 304.55
L 287.85 340.55 262.35 312 274.2 276 299.7 304.55
M 289.7 342.65
L 301.55 306.65 328.35 336.65 316.5 372.6 289.7 342.65
M 274.75 380.35
L 249.25 351.8 261.5 314.65 287 343.2 274.75 380.35
M 288.85 345.25
L 315.65 375.25 303.4 412.4 276.6 382.4 288.85 345.25
M 259.65 312.6
L 247.4 349.75 223.65 323.15 235.9 286 259.65 312.6
M 357.3 367.8
L 345.05 404.95 305.7 413.15 317.95 376 357.3 367.8 Z"/>
</g>

<g id="s_0_Layer0_32_MEMBER_0_MEMBER_1_MEMBER_0_FILL">
<path fill="#ADB5BD" stroke="none" d="
M 150.05 214.4
L 150.05 210.05 145 205 139.9 210.05 139.9 214.4 145 209.3 150.05 214.4 Z"/>
</g>

<g id="s_0_Layer0_33_MEMBER_0_MEMBER_1_MEMBER_0_FILL">
<path fill="#212529" stroke="none" d="
M 124.55 425.9
L 124.55 421.55 119.5 416.5 114.4 421.55 114.4 425.9 119.5 420.8 124.55 425.9 Z"/>
</g>

<g id="s_0_Layer0_34_MEMBER_0_MEMBER_1_MEMBER_0_FILL">
<path fill="#6C757D" stroke="none" d="
M 177.4 279.4
L 173.05 279.4 168 284.5 173.05 289.55 177.4 289.55 172.3 284.5 177.4 279.4 Z"/>
</g>

<path id="s_0_Layer0_0_1_STROKES" stroke="#1B2A49" stroke-width="1" stroke-linejoin="round" stroke-linecap="round" fill="none" d="
M 594.55 0
L 598.05 0"/>

<path id="s_0_Layer0_32_MEMBER_0_MEMBER_0_1_STROKES" stroke="#ADB5BD" stroke-width="3" stroke-linejoin="miter" stroke-linecap="butt" stroke-miterlimit="10" fill="none" d="
M 267 234
L 145 234 145 208.4"/>

<path id="s_0_Layer0_33_MEMBER_0_MEMBER_0_1_STROKES" stroke="#212529" stroke-width="3" stroke-linejoin="miter" stroke-linecap="butt" stroke-miterlimit="10" fill="none" d="
M 289.5 376.5
L 289.5 436.5 119.5 436.5 119.5 419.9"/>

<path id="s_0_Layer0_34_MEMBER_0_MEMBER_0_1_STROKES" stroke="#6C757D" stroke-width="3" stroke-linejoin="miter" stroke-linecap="butt" stroke-miterlimit="10" fill="none" d="
M 254.5 284.5
L 171.4 284.5"/>
</defs>

<g transform="matrix( 1, 0, 0, 1, 49.55,64.65) ">
<g transform="matrix( 1, 0, 0, 1, 0,0) ">
<use xlink:href="#s_0_Layer0_0_1_STROKES"/>
</g>

<g transform="matrix( 1, 0, 0, 1, -50,-115.55) ">
<use xlink:href="#s_0_Layer0_1_FILL"/>
</g>

<g transform="matrix( 1, 0, 0, 1, -50,-115.55) ">
<use xlink:href="#s_0_Layer0_2_FILL"/>
</g>

<g transform="matrix( 1, 0, 0, 1, -50,-115.55) ">
<use xlink:href="#s_0_Layer0_3_FILL"/>
</g>

<g transform="matrix( 1, 0, 0, 1, -50,-115.55) ">
<use xlink:href="#s_0_Layer0_4_FILL"/>
</g>

<g transform="matrix( 1, 0, 0, 1, -50,-115.55) ">
<use xlink:href="#s_0_Layer0_5_FILL"/>
</g>

<g transform="matrix( 1, 0, 0, 1, -50,-115.55) ">
<use xlink:href="#s_0_Layer0_6_FILL"/>
</g>

<g transform="matrix( 1, 0, 0, 1, -50,-115.55) ">
<use xlink:href="#s_0_Layer0_7_FILL"/>
</g>

<g transform="matrix( 1, 0, 0, 1, -50,-115.55) ">
<use xlink:href="#s_0_Layer0_8_FILL"/>
</g>

<g transform="matrix( 1, 0, 0, 1, -50,-115.55) ">
<use xlink:href="#s_0_Layer0_9_FILL"/>
</g>

<g transform="matrix( 1, 0, 0, 1, -50,-115.55) ">
<use xlink:href="#s_0_Layer0_10_FILL"/>
</g>

<g transform="matrix( 1, 0, 0, 1, -50,-115.55) ">
<use xlink:href="#s_0_Layer0_11_FILL"/>
</g>

<g transform="matrix( 1, 0, 0, 1, -50,-115.55) ">
<use xlink:href="#s_0_Layer0_12_FILL"/>
</g>

<g transform="matrix( 1, 0, 0, 1, -50,-115.55) ">
<use xlink:href="#s_0_Layer0_13_FILL"/>
</g>

<g transform="matrix( 1, 0, 0, 1, -50,-115.55) ">
<use xlink:href="#s_0_Layer0_14_FILL"/>
</g>

<g transform="matrix( 1, 0, 0, 1, -50,-115.55) ">
<use xlink:href="#s_0_Layer0_15_FILL"/>
</g>

<g transform="matrix( 1, 0, 0, 1, -50,-115.55) ">
<use xlink:href="#s_0_Layer0_16_FILL"/>
</g>

<g transform="matrix( 1, 0, 0, 1, -50,-115.55) ">
<use xlink:href="#s_0_Layer0_17_FILL"/>
</g>

<g transform="matrix( 1, 0, 0, 1, -50,-115.55) ">
<use xlink:href="#s_0_Layer0_18_FILL"/>
</g>

<g transform="matrix( 1, 0, 0, 1, -50,-115.55) ">
<use xlink:href="#s_0_Layer0_19_FILL"/>
</g>

<g transform="matrix( 1, 0, 0, 1, -50,-115.55) ">
<use xlink:href="#s_0_Layer0_20_FILL"/>
</g>

<g transform="matrix( 1, 0, 0, 1, -50,-115.55) ">
<use xlink:href="#s_0_Layer0_21_FILL"/>
</g>

<g transform="matrix( 1, 0, 0, 1, -50,-115.55) ">
<use xlink:href="#s_0_Layer0_22_FILL"/>
</g>

<g transform="matrix( 1, 0, 0, 1, -50,-115.55) ">
<use xlink:href="#s_0_Layer0_23_FILL"/>
</g>

<g transform="matrix( 1, 0, 0, 1, -50,-115.55) ">
<use xlink:href="#s_0_Layer0_24_FILL"/>
</g>

<g transform="matrix( 1, 0, 0, 1, -50,-115.55) ">
<use xlink:href="#s_0_Layer0_25_FILL"/>
</g>

<g transform="matrix( 1, 0, 0, 1, -50,-115.55) ">
<use xlink:href="#s_0_Layer0_26_FILL"/>
</g>

<g transform="matrix( 1, 0, 0, 1, -50,-115.55) ">
<use xlink:href="#s_0_Layer0_27_FILL"/>
</g>

<g transform="matrix( 1, 0, 0, 1, -50,-115.55) ">
<use xlink:href="#s_0_Layer0_28_FILL"/>
</g>

<g id="FL_978d6238_502a_44ff_955b_ccf469e84577" transform="matrix( 1, 0, 0, 1, 2,52.5) ">
<clipPath id="Mask_Mask_1">
<rect x="-2" y="-2" width="199" height="33.45" fill="#FFFFFF" stroke="none"/>
</clipPath>

<text clip-path="url(#Mask_Mask_1)" writing-mode="lr"><tspan x="0" y="23.85" baseline-shift="0%" font-family="Arial" font-size="26.35" fill="#000000" xml:space="preserve">Confidencialidad</tspan></text>
</g>

<g id="FL_72cb2e6b_1f6b_433b_9fc5_f21c334d331e" transform="matrix( 1, 0, 0, 1, -2.8,152) ">
<clipPath id="Mask_Mask_2">
<rect x="-2" y="-2" width="121.3" height="33.45" fill="#FFFFFF" stroke="none"/>
</clipPath>

<text clip-path="url(#Mask_Mask_2)" writing-mode="lr"><tspan x="0" y="23.85" baseline-shift="0%" font-family="Arial" font-size="26.35" fill="#000000" xml:space="preserve">Integridad</tspan></text>
</g>

<g id="FL_9e09c3cb_1780_4f4c_9c71_031b9b705962" transform="matrix( 1, 0, 0, 1, 2,265.5) ">
<clipPath id="Mask_Mask_3">
<rect x="-2" y="-2" width="164.7" height="33.45" fill="#FFFFFF" stroke="none"/>
</clipPath>

<text clip-path="url(#Mask_Mask_3)" writing-mode="lr"><tspan x="0" y="23.85" baseline-shift="0%" font-family="Arial" font-size="26.35" fill="#000000" xml:space="preserve">Disponibilidad</tspan></text>
</g>

<g transform="matrix( 1, 0, 0, 1, -50,-115.55) ">
<use xlink:href="#s_0_Layer0_32_MEMBER_0_MEMBER_0_1_STROKES"/>
</g>

<g transform="matrix( 1, 0, 0, 1, -50,-115.55) ">
<use xlink:href="#s_0_Layer0_32_MEMBER_0_MEMBER_1_MEMBER_0_FILL"/>
</g>

<g transform="matrix( 1, 0, 0, 1, -50,-115.55) ">
<use xlink:href="#s_0_Layer0_33_MEMBER_0_MEMBER_0_1_STROKES"/>
</g>

<g transform="matrix( 1, 0, 0, 1, -50,-115.55) ">
<use xlink:href="#s_0_Layer0_33_MEMBER_0_MEMBER_1_MEMBER_0_FILL"/>
</g>

<g transform="matrix( 1, 0, 0, 1, -50,-115.55) ">
<use xlink:href="#s_0_Layer0_34_MEMBER_0_MEMBER_0_1_STROKES"/>
</g>

<g transform="matrix( 1, 0, 0, 1, -50,-115.55) ">
<use xlink:href="#s_0_Layer0_34_MEMBER_0_MEMBER_1_MEMBER_0_FILL"/>
</g>
</g>
</svg>
