<svg width="1024" height="460" viewBox="0 0 1024 460" fill="none" xmlns="http://www.w3.org/2000/svg">
<path d="M1011.75 12.4C1005.58 6.23333 998.133 3.15 989.4 3.15H34.55C25.8167 3.15 18.3833 6.23333 12.25 12.4C6.08333 18.5333 3 25.9667 3 34.7V424.55C3 433.283 6.08333 440.733 12.25 446.9C18.3833 453.067 25.8167 456.15 34.55 456.15H989.4C998.133 456.15 1005.58 453.067 1011.75 446.9C1017.92 440.733 1021 433.283 1021 424.55V34.7C1021 25.9667 1017.92 18.5333 1011.75 12.4Z" fill="white"/>
<path d="M478.95 296.4C474.917 292.4 470.067 290.4 464.4 290.4C458.767 290.4 453.933 292.4 449.9 296.4C445.9 300.433 443.9 305.267 443.9 310.9C443.9 316.567 445.9 321.417 449.9 325.45C453.9 329.45 458.733 331.45 464.4 331.45C470.067 331.45 474.917 329.45 478.95 325.45C482.95 321.417 484.95 316.567 484.95 310.9C484.95 305.233 482.95 300.4 478.95 296.4Z" fill="#E3E2E2"/>
<path d="M511.55 129.4C511.55 123.733 509.55 118.883 505.55 114.85C501.55 110.85 496.717 108.85 491.05 108.85C485.383 108.85 480.55 110.85 476.55 114.85C472.55 118.883 470.55 123.733 470.55 129.4C470.55 135.067 472.55 139.9 476.55 143.9C480.55 147.9 485.383 149.9 491.05 149.9C496.717 149.9 501.55 147.9 505.55 143.9C509.55 139.9 511.55 135.067 511.55 129.4Z" fill="#E3E2E2"/>
<path d="M103.8 222C103.8 216.333 101.8 211.5 97.8 207.5C93.8 203.5 88.9667 201.5 83.3 201.5C77.6667 201.5 72.8333 203.5 68.8 207.5C64.8 211.533 62.8 216.367 62.8 222C62.8 227.667 64.8 232.5 68.8 236.5C72.8 240.5 77.6333 242.5 83.3 242.5C88.9667 242.5 93.8 240.5 97.8 236.5C101.8 232.5 103.8 227.667 103.8 222Z" fill="#E3E2E2"/>
<path d="M465.25 183.45C465.248 183.176 465.148 182.943 464.95 182.75C464.757 182.552 464.524 182.452 464.25 182.45C463.976 182.452 463.743 182.552 463.55 182.75C463.352 182.943 463.252 183.176 463.25 183.45V192.45C463.252 192.724 463.352 192.957 463.55 193.15C463.743 193.348 463.976 193.448 464.25 193.45C464.524 193.448 464.757 193.348 464.95 193.15C465.148 192.957 465.248 192.724 465.25 192.45V183.45ZM464.25 164.45C463.976 164.452 463.743 164.552 463.55 164.75C463.352 164.943 463.252 165.176 463.25 165.45V174.45C463.252 174.724 463.352 174.957 463.55 175.15C463.743 175.348 463.976 175.448 464.25 175.45C464.524 175.448 464.757 175.348 464.95 175.15C465.148 174.957 465.248 174.724 465.25 174.45V165.45C465.248 165.176 465.148 164.943 464.95 164.75C464.757 164.552 464.524 164.452 464.25 164.45ZM463.55 146.75C463.352 146.943 463.252 147.176 463.25 147.45V156.45C463.252 156.724 463.352 156.957 463.55 157.15C463.743 157.348 463.976 157.448 464.25 157.45C464.524 157.448 464.757 157.348 464.95 157.15C465.148 156.957 465.248 156.724 465.25 156.45V147.45C465.248 147.176 465.148 146.943 464.95 146.75C464.757 146.552 464.524 146.452 464.25 146.45C463.976 146.452 463.743 146.552 463.55 146.75ZM465.25 129.45C465.248 129.176 465.148 128.943 464.95 128.75C464.757 128.552 464.524 128.452 464.25 128.45C463.976 128.452 463.743 128.552 463.55 128.75C463.352 128.943 463.252 129.176 463.25 129.45V138.45C463.252 138.724 463.352 138.957 463.55 139.15C463.743 139.348 463.976 139.448 464.25 139.45C464.524 139.448 464.757 139.348 464.95 139.15C465.148 138.957 465.248 138.724 465.25 138.45V129.45ZM464.95 110.75C464.757 110.552 464.524 110.452 464.25 110.45C463.976 110.452 463.743 110.552 463.55 110.75C463.352 110.943 463.252 111.176 463.25 111.45V120.45C463.252 120.724 463.352 120.957 463.55 121.15C463.743 121.348 463.976 121.448 464.25 121.45C464.524 121.448 464.757 121.348 464.95 121.15C465.148 120.957 465.248 120.724 465.25 120.45V111.45C465.248 111.176 465.148 110.943 464.95 110.75ZM463.55 92.75C463.352 92.9428 463.252 93.1762 463.25 93.45V102.45C463.252 102.724 463.352 102.957 463.55 103.15C463.743 103.348 463.976 103.448 464.25 103.45C464.524 103.448 464.757 103.348 464.95 103.15C465.148 102.957 465.248 102.724 465.25 102.45V93.45C465.248 93.1762 465.148 92.9428 464.95 92.75C464.757 92.5523 464.524 92.4523 464.25 92.45C463.976 92.4523 463.743 92.5523 463.55 92.75ZM463.55 79.35C463.352 79.5428 463.252 79.7762 463.25 80.05V84.45C463.252 84.7238 463.352 84.9572 463.55 85.15C463.743 85.3477 463.976 85.4477 464.25 85.45C464.524 85.4477 464.757 85.3477 464.95 85.15C465.148 84.9572 465.248 84.7238 465.25 84.45V80.05C465.248 79.7762 465.148 79.5428 464.95 79.35C464.757 79.1523 464.524 79.0523 464.25 79.05C463.976 79.0523 463.743 79.1523 463.55 79.35Z" fill="#1C2A4A"/>
<path d="M749.65 114.2C749.73 113.951 749.696 113.701 749.55 113.45C749.403 113.231 749.186 113.081 748.9 113C748.651 112.954 748.401 113.004 748.15 113.15L741.35 117.35C741.132 117.497 740.982 117.697 740.9 117.95C740.854 118.233 740.904 118.483 741.05 118.7C741.197 118.952 741.397 119.102 741.65 119.15C741.932 119.23 742.182 119.196 742.4 119.05L749.2 114.85C749.451 114.703 749.601 114.486 749.65 114.2ZM762.8 106.45C763.051 106.303 763.201 106.086 763.25 105.8C763.33 105.551 763.296 105.301 763.15 105.05C763.003 104.831 762.786 104.681 762.5 104.6C762.251 104.554 762.001 104.604 761.75 104.75L754.95 108.95C754.732 109.097 754.582 109.297 754.5 109.55C754.454 109.833 754.504 110.083 754.65 110.3C754.797 110.552 754.997 110.702 755.25 110.75C755.532 110.83 755.782 110.796 756 110.65L762.8 106.45ZM728.05 127.55C728.332 127.63 728.582 127.596 728.8 127.45L735.6 123.25C735.851 123.103 736.001 122.886 736.05 122.6C736.13 122.351 736.096 122.101 735.95 121.85C735.803 121.631 735.586 121.481 735.3 121.4C735.051 121.354 734.801 121.404 734.55 121.55L727.75 125.75C727.532 125.897 727.382 126.097 727.3 126.35C727.254 126.633 727.304 126.883 727.45 127.1C727.597 127.352 727.797 127.502 728.05 127.55ZM721.7 129.8C721.451 129.754 721.201 129.804 720.95 129.95L714.15 134.15C713.932 134.297 713.782 134.497 713.7 134.75C713.654 135.033 713.704 135.283 713.85 135.5C713.997 135.752 714.197 135.902 714.45 135.95C714.732 136.03 714.982 135.996 715.2 135.85L722 131.65C722.251 131.503 722.401 131.286 722.45 131C722.53 130.751 722.496 130.501 722.35 130.25C722.203 130.031 721.986 129.881 721.7 129.8ZM796.1 85.65C796.369 85.7206 796.619 85.6706 796.85 85.5L797.15 85.3C797.379 85.1663 797.512 84.9663 797.55 84.7C797.621 84.4302 797.571 84.1802 797.4 83.95C797.266 83.7206 797.066 83.5706 796.8 83.5C796.531 83.4628 796.281 83.5128 796.05 83.65L795.75 83.85C795.521 84.0169 795.371 84.2336 795.3 84.5C795.263 84.7698 795.313 85.0198 795.45 85.25C795.617 85.4794 795.833 85.6128 796.1 85.65ZM789.7 87.8C789.451 87.7538 789.201 87.8038 788.95 87.95L782.15 92.15C781.932 92.2973 781.782 92.4973 781.7 92.75C781.654 93.0328 781.704 93.2828 781.85 93.5C781.997 93.7522 782.197 93.9022 782.45 93.95C782.732 94.0296 782.982 93.9962 783.2 93.85L790 89.65C790.251 89.5027 790.401 89.2861 790.45 89C790.53 88.7505 790.496 88.5005 790.35 88.25C790.203 88.031 789.986 87.881 789.7 87.8ZM776.1 96.2C775.851 96.1538 775.601 96.2038 775.35 96.35L768.55 100.55C768.332 100.697 768.182 100.897 768.1 101.15C768.054 101.433 768.104 101.683 768.25 101.9C768.397 102.152 768.597 102.302 768.85 102.35C769.132 102.43 769.382 102.396 769.6 102.25L776.4 98.05C776.651 97.9027 776.801 97.6861 776.85 97.4C776.93 97.1505 776.896 96.9005 776.75 96.65C776.603 96.431 776.386 96.281 776.1 96.2Z" fill="#1C2A4A"/>
<path d="M501.65 241.3C501.633 241.576 501.717 241.809 501.9 242C502.088 242.22 502.321 242.337 502.6 242.35L510 242.75C510.276 242.766 510.509 242.683 510.7 242.5C510.92 242.312 511.037 242.078 511.05 241.8C511.067 241.524 510.983 241.274 510.8 241.05C510.612 240.863 510.379 240.763 510.1 240.75L502.7 240.35C502.424 240.334 502.174 240.417 501.95 240.6C501.763 240.788 501.663 241.022 501.65 241.3ZM550.05 243.05C549.774 243.034 549.524 243.117 549.3 243.3C549.113 243.489 549.013 243.722 549 244C548.984 244.276 549.067 244.51 549.25 244.7C549.439 244.92 549.672 245.037 549.95 245.05L557.95 245.45C558.226 245.466 558.46 245.383 558.65 245.2C558.871 245.011 558.987 244.778 559 244.5C559.016 244.223 558.933 243.973 558.75 243.75C558.561 243.563 558.328 243.463 558.05 243.45L550.05 243.05ZM527 242.7C527.016 242.423 526.933 242.173 526.75 241.95C526.561 241.763 526.328 241.663 526.05 241.65L518.05 241.25C517.774 241.234 517.524 241.317 517.3 241.5C517.113 241.689 517.013 241.922 517 242.2C516.984 242.476 517.067 242.71 517.25 242.9C517.439 243.12 517.672 243.237 517.95 243.25L525.95 243.65C526.226 243.666 526.46 243.583 526.65 243.4C526.871 243.211 526.987 242.978 527 242.7ZM534.05 242.15C533.774 242.134 533.524 242.217 533.3 242.4C533.113 242.589 533.013 242.822 533 243.1C532.984 243.376 533.067 243.61 533.25 243.8C533.439 244.02 533.672 244.137 533.95 244.15L541.95 244.55C542.226 244.566 542.46 244.483 542.65 244.3C542.871 244.111 542.987 243.878 543 243.6C543.016 243.323 542.933 243.073 542.75 242.85C542.561 242.663 542.328 242.563 542.05 242.55L534.05 242.15ZM638.75 248.25C638.561 248.063 638.328 247.963 638.05 247.95L630.05 247.55C629.774 247.534 629.524 247.617 629.3 247.8C629.113 247.989 629.013 248.222 629 248.5C628.984 248.776 629.067 249.01 629.25 249.2C629.439 249.42 629.672 249.537 629.95 249.55L637.95 249.95C638.226 249.966 638.46 249.883 638.65 249.7C638.871 249.511 638.987 249.278 639 249C639.016 248.723 638.933 248.473 638.75 248.25ZM597.3 246C597.113 246.189 597.013 246.422 597 246.7C596.984 246.976 597.067 247.21 597.25 247.4C597.439 247.62 597.672 247.737 597.95 247.75L605.95 248.15C606.226 248.166 606.46 248.083 606.65 247.9C606.871 247.711 606.987 247.478 607 247.2C607.016 246.923 606.933 246.673 606.75 246.45C606.561 246.263 606.328 246.163 606.05 246.15L598.05 245.75C597.774 245.734 597.524 245.817 597.3 246ZM581 245.8C580.984 246.076 581.067 246.31 581.25 246.5C581.439 246.72 581.672 246.837 581.95 246.85L589.95 247.25C590.226 247.266 590.46 247.183 590.65 247C590.871 246.811 590.987 246.578 591 246.3C591.016 246.023 590.933 245.773 590.75 245.55C590.561 245.363 590.328 245.263 590.05 245.25L582.05 244.85C581.774 244.834 581.524 244.917 581.3 245.1C581.113 245.289 581.013 245.522 581 245.8ZM573.95 246.35C574.226 246.366 574.46 246.283 574.65 246.1C574.871 245.911 574.987 245.678 575 245.4C575.016 245.123 574.933 244.873 574.75 244.65C574.561 244.463 574.328 244.363 574.05 244.35L566.05 243.95C565.774 243.934 565.524 244.017 565.3 244.2C565.113 244.389 565.013 244.622 565 244.9C564.984 245.176 565.067 245.41 565.25 245.6C565.439 245.82 565.672 245.937 565.95 245.95L573.95 246.35ZM614.05 246.65C613.774 246.634 613.524 246.717 613.3 246.9C613.113 247.089 613.013 247.322 613 247.6C612.984 247.876 613.067 248.11 613.25 248.3C613.439 248.52 613.672 248.637 613.95 248.65L621.95 249.05C622.226 249.066 622.46 248.983 622.65 248.8C622.871 248.611 622.987 248.378 623 248.1C623.016 247.823 622.933 247.573 622.75 247.35C622.561 247.163 622.328 247.063 622.05 247.05L614.05 246.65ZM702.75 251.5C702.561 251.313 702.328 251.213 702.05 251.2L694.05 250.8C693.774 250.784 693.524 250.867 693.3 251.05C693.113 251.239 693.013 251.472 693 251.75C692.984 252.026 693.067 252.26 693.25 252.45C693.439 252.67 693.672 252.787 693.95 252.8L701.95 253.2C702.226 253.216 702.46 253.133 702.65 252.95C702.871 252.761 702.987 252.528 703 252.25C703.016 251.973 702.933 251.723 702.75 251.5ZM709.25 253.25C709.439 253.47 709.672 253.587 709.95 253.6L717.95 254C718.226 254.016 718.46 253.933 718.65 253.75C718.871 253.561 718.987 253.328 719 253.05C719.016 252.773 718.933 252.523 718.75 252.3C718.561 252.113 718.328 252.013 718.05 252L710.05 251.6C709.774 251.584 709.524 251.667 709.3 251.85C709.113 252.039 709.013 252.272 709 252.55C708.984 252.826 709.067 253.06 709.25 253.25ZM654.75 249.1C654.561 248.913 654.328 248.813 654.05 248.8L646.05 248.4C645.774 248.384 645.524 248.467 645.3 248.65C645.113 248.839 645.013 249.072 645 249.35C644.984 249.626 645.067 249.86 645.25 250.05C645.439 250.27 645.672 250.387 645.95 250.4L653.95 250.8C654.226 250.816 654.46 250.733 654.65 250.55C654.871 250.361 654.987 250.128 655 249.85C655.016 249.573 654.933 249.323 654.75 249.1ZM669.95 251.6C670.226 251.616 670.46 251.533 670.65 251.35C670.871 251.161 670.987 250.928 671 250.65C671.016 250.373 670.933 250.123 670.75 249.9C670.561 249.713 670.328 249.613 670.05 249.6L662.05 249.2C661.774 249.184 661.524 249.267 661.3 249.45C661.113 249.639 661.013 249.872 661 250.15C660.984 250.426 661.067 250.66 661.25 250.85C661.439 251.07 661.672 251.187 661.95 251.2L669.95 251.6ZM686.75 250.7C686.561 250.513 686.328 250.413 686.05 250.4L678.05 250C677.774 249.984 677.524 250.067 677.3 250.25C677.113 250.439 677.013 250.672 677 250.95C676.984 251.226 677.067 251.46 677.25 251.65C677.439 251.87 677.672 251.987 677.95 252L685.95 252.4C686.226 252.416 686.46 252.333 686.65 252.15C686.871 251.961 686.987 251.728 687 251.45C687.016 251.173 686.933 250.923 686.75 250.7ZM734.75 253.1C734.561 252.913 734.328 252.813 734.05 252.8L726.05 252.4C725.774 252.384 725.524 252.467 725.3 252.65C725.113 252.839 725.013 253.072 725 253.35C724.984 253.626 725.067 253.86 725.25 254.05C725.439 254.27 725.672 254.387 725.95 254.4L733.95 254.8C734.226 254.816 734.46 254.733 734.65 254.55C734.871 254.361 734.987 254.128 735 253.85C735.016 253.573 734.933 253.323 734.75 253.1ZM749.95 255.6C750.226 255.616 750.46 255.533 750.65 255.35C750.871 255.161 750.987 254.928 751 254.65C751.016 254.373 750.933 254.123 750.75 253.9C750.561 253.713 750.328 253.613 750.05 253.6L742.05 253.2C741.774 253.184 741.524 253.267 741.3 253.45C741.113 253.639 741.013 253.872 741 254.15C740.984 254.426 741.067 254.66 741.25 254.85C741.439 255.07 741.672 255.187 741.95 255.2L749.95 255.6ZM766.75 254.7C766.561 254.513 766.328 254.413 766.05 254.4L758.05 254C757.774 253.984 757.524 254.067 757.3 254.25C757.113 254.439 757.013 254.672 757 254.95C756.984 255.226 757.067 255.46 757.25 255.65C757.439 255.87 757.672 255.987 757.95 256L765.95 256.4C766.226 256.416 766.46 256.333 766.65 256.15C766.871 255.961 766.987 255.728 767 255.45C767.016 255.173 766.933 254.923 766.75 254.7Z" fill="#1C2A4A"/>
<path d="M870.1 388C869.854 388.123 869.687 388.306 869.6 388.55C869.511 388.831 869.528 389.098 869.65 389.35C869.772 389.596 869.956 389.762 870.2 389.85L877.8 392.45C878.081 392.539 878.348 392.522 878.6 392.4C878.846 392.277 879.013 392.077 879.1 391.8C879.189 391.552 879.173 391.302 879.05 391.05C878.928 390.804 878.728 390.638 878.45 390.55L870.85 387.95C870.602 387.861 870.352 387.878 870.1 388ZM855 382.75C854.754 382.873 854.587 383.056 854.5 383.3C854.411 383.581 854.428 383.848 854.55 384.1C854.672 384.346 854.856 384.512 855.1 384.6L862.7 387.2C862.981 387.289 863.248 387.272 863.5 387.15C863.746 387.027 863.913 386.827 864 386.55C864.089 386.302 864.073 386.052 863.95 385.8C863.828 385.554 863.628 385.388 863.35 385.3L855.75 382.7C855.502 382.611 855.252 382.628 855 382.75ZM848.75 380.6C848.628 380.363 848.428 380.196 848.15 380.1L840.6 377.5C840.361 377.411 840.111 377.428 839.85 377.55C839.613 377.672 839.446 377.856 839.35 378.1C839.261 378.372 839.278 378.622 839.4 378.85C839.522 379.12 839.705 379.304 839.95 379.4L847.5 382C847.772 382.089 848.022 382.072 848.25 381.95C848.521 381.828 848.704 381.628 848.8 381.35C848.889 381.111 848.873 380.861 848.75 380.6ZM825.4 372.3C825.152 372.211 824.902 372.228 824.65 372.35C824.404 372.473 824.237 372.656 824.15 372.9C824.061 373.181 824.078 373.448 824.2 373.7C824.322 373.946 824.506 374.112 824.75 374.2L832.35 376.8C832.631 376.889 832.898 376.872 833.15 376.75C833.396 376.627 833.563 376.427 833.65 376.15C833.739 375.902 833.723 375.652 833.6 375.4C833.478 375.154 833.278 374.988 833 374.9L825.4 372.3ZM832.2 364.05C832.398 363.857 832.498 363.624 832.5 363.35C832.498 363.076 832.398 362.843 832.2 362.65C832.007 362.452 831.774 362.352 831.5 362.35C831.226 362.352 830.993 362.452 830.8 362.65L825.2 368.25C825.002 368.443 824.902 368.676 824.9 368.95C824.902 369.224 825.002 369.457 825.2 369.65C825.393 369.848 825.626 369.948 825.9 369.95C826.174 369.948 826.407 369.848 826.6 369.65L832.2 364.05ZM842.9 350.95C842.626 350.952 842.393 351.052 842.2 351.25L836.5 356.95C836.302 357.143 836.202 357.376 836.2 357.65C836.202 357.924 836.302 358.157 836.5 358.35C836.693 358.548 836.926 358.648 837.2 358.65C837.474 358.648 837.707 358.548 837.9 358.35L843.6 352.65C843.798 352.457 843.898 352.224 843.9 351.95C843.898 351.676 843.798 351.443 843.6 351.25C843.407 351.052 843.174 350.952 842.9 350.95ZM854.3 339.55C854.026 339.552 853.793 339.652 853.6 339.85L847.9 345.55C847.702 345.743 847.602 345.976 847.6 346.25C847.602 346.524 847.702 346.757 847.9 346.95C848.093 347.148 848.326 347.248 848.6 347.25C848.874 347.248 849.107 347.148 849.3 346.95L855 341.25C855.198 341.057 855.298 340.824 855.3 340.55C855.298 340.276 855.198 340.043 855 339.85C854.807 339.652 854.574 339.552 854.3 339.55ZM865.7 328.15C865.426 328.152 865.193 328.252 865 328.45L859.3 334.15C859.102 334.343 859.002 334.576 859 334.85C859.002 335.124 859.102 335.357 859.3 335.55C859.493 335.748 859.726 335.848 860 335.85C860.274 335.848 860.507 335.748 860.7 335.55L866.4 329.85C866.598 329.657 866.698 329.424 866.7 329.15C866.698 328.876 866.598 328.643 866.4 328.45C866.207 328.252 865.974 328.152 865.7 328.15ZM877.8 318.55C877.998 318.357 878.098 318.124 878.1 317.85C878.098 317.576 877.998 317.343 877.8 317.15C877.607 316.952 877.374 316.852 877.1 316.85C876.826 316.852 876.593 316.952 876.4 317.15L870.7 322.85C870.502 323.043 870.402 323.276 870.4 323.55C870.402 323.824 870.502 324.057 870.7 324.25C870.893 324.448 871.126 324.548 871.4 324.55C871.674 324.548 871.907 324.448 872.1 324.25L877.8 318.55ZM888.5 305.55C888.229 305.543 887.995 305.627 887.8 305.8L882.1 311.4C881.903 311.618 881.803 311.868 881.8 312.15C881.793 312.422 881.877 312.655 882.05 312.85C882.268 313.047 882.518 313.147 882.8 313.15C883.071 313.157 883.305 313.057 883.5 312.85L889.2 307.25C889.397 307.066 889.497 306.832 889.5 306.55C889.507 306.278 889.407 306.045 889.2 305.85C889.016 305.653 888.782 305.553 888.5 305.55ZM878.25 290.05C878.348 290.304 878.515 290.488 878.75 290.6L886.05 294C886.322 294.123 886.589 294.139 886.85 294.05C887.104 293.953 887.288 293.769 887.4 293.5C887.523 293.262 887.539 293.012 887.45 292.75C887.352 292.496 887.168 292.313 886.9 292.2L879.6 288.8C879.361 288.677 879.111 288.661 878.85 288.75C878.596 288.847 878.412 289.014 878.3 289.25C878.177 289.521 878.161 289.788 878.25 290.05ZM865.1 282C864.861 281.877 864.611 281.861 864.35 281.95C864.096 282.047 863.912 282.214 863.8 282.45C863.677 282.721 863.661 282.988 863.75 283.25C863.848 283.504 864.015 283.688 864.25 283.8L871.55 287.2C871.822 287.323 872.089 287.339 872.35 287.25C872.604 287.153 872.788 286.969 872.9 286.7C873.023 286.462 873.039 286.212 872.95 285.95C872.852 285.696 872.668 285.513 872.4 285.4L865.1 282ZM849.25 276.45C849.348 276.704 849.515 276.888 849.75 277L857.05 280.4C857.322 280.523 857.589 280.539 857.85 280.45C858.104 280.353 858.288 280.169 858.4 279.9C858.523 279.662 858.539 279.412 858.45 279.15C858.352 278.896 858.168 278.713 857.9 278.6L850.6 275.2C850.361 275.077 850.111 275.061 849.85 275.15C849.596 275.247 849.412 275.414 849.3 275.65C849.177 275.921 849.161 276.188 849.25 276.45ZM829.25 265.55C829.153 265.305 828.97 265.122 828.7 265L821.5 261.6C821.271 261.478 821.021 261.461 820.75 261.55C820.505 261.647 820.322 261.813 820.2 262.05C820.077 262.312 820.061 262.562 820.15 262.8C820.247 263.078 820.413 263.278 820.65 263.4L827.85 266.8C828.112 266.922 828.362 266.939 828.6 266.85C828.878 266.753 829.079 266.57 829.2 266.3C829.323 266.071 829.339 265.821 829.25 265.55ZM834.65 269.65C834.748 269.904 834.915 270.088 835.15 270.2L842.45 273.6C842.722 273.723 842.989 273.739 843.25 273.65C843.504 273.553 843.687 273.369 843.8 273.1C843.923 272.862 843.939 272.612 843.85 272.35C843.752 272.096 843.568 271.913 843.3 271.8L836 268.4C835.761 268.277 835.511 268.261 835.25 268.35C834.996 268.447 834.813 268.614 834.7 268.85C834.577 269.121 834.561 269.388 834.65 269.65ZM892.75 296.1C892.661 296.348 892.661 296.598 892.75 296.85C892.866 297.114 893.049 297.297 893.3 297.4L895.35 298.3L893.5 300.2C893.302 300.393 893.202 300.626 893.2 300.9C893.202 301.174 893.302 301.407 893.5 301.6C893.693 301.798 893.926 301.898 894.2 301.9C894.474 301.898 894.707 301.798 894.9 301.6L897.8 298.7C897.964 298.547 898.064 298.364 898.1 298.15C898.128 297.929 898.078 297.713 897.95 297.5C897.856 297.314 897.706 297.164 897.5 297.05L894.1 295.55C893.852 295.461 893.602 295.461 893.35 295.55C893.086 295.665 892.886 295.849 892.75 296.1Z" fill="#1C2A4A"/>
<path d="M800.9 69.1L792.3 70.7V78.25L800.9 77.4V69.1Z" fill="#F7AA1E"/>
<path d="M859.35 107.15V100.15L850.75 101V108.85L859.35 107.15Z" fill="#FFCB03"/>
<path d="M850.75 79.55V88.15H859.35V80.35L850.75 79.55Z" fill="#EA921E"/>
<path d="M839 67V76.25L859.35 78.25V70.7L839 67Z" fill="#FFCB03"/>
<path d="M848.65 101.2L825.85 103.4L814.75 102.35V111.6L825.85 113.8L848.65 109.3V101.2Z" fill="#EA921E"/>
<path d="M812.65 111.2V102.15L792.3 100.15V107.15L812.65 111.2Z" fill="#FFCB03"/>
<path d="M825.85 75L836.95 76.05V66.6L825.85 64.6L803 68.75V77.2L825.85 75Z" fill="#EA921E"/>
<path d="M800.9 98.85V90.25H792.3V98.05L800.9 98.85Z" fill="#EA921E"/>
<path d="M812.65 88.15V78.4L792.3 80.35V88.15H812.65Z" fill="#FFCB03"/>
<path d="M825.85 101.3L836.95 100.2V90.25H803V99.05L825.85 101.3Z" fill="#F7AA1E"/>
<path d="M848.65 79.35L825.85 77.1L814.75 78.2V88.15H848.65V79.35Z" fill="#F3BB07"/>
<path d="M859.35 98.05V90.25H839V100L859.35 98.05Z" fill="#F7AA1E"/>
<path d="M825.85 64.6V75L836.95 76.05V66.6L825.85 64.6Z" fill="#F7AA1E"/>
<path d="M848.65 79.35L825.85 77.1V88.15H848.65V79.35Z" fill="#FFCB03"/>
<path d="M836.95 90.25H825.85V101.3L836.95 100.2V90.25Z" fill="#EA921E"/>
<path d="M848.65 101.2L825.85 103.4V113.8L848.65 109.3V101.2Z" fill="#F7AA1E"/>
<path d="M859.35 36.95L825.85 26.7L792.3 38.5V68.5L825.65 61.95L859.35 68.5V36.95Z" fill="#04ADD3"/>
<path d="M825.85 26.7L825.65 61.95L859.35 68.5V36.95L825.85 26.7Z" fill="#0FB9E8"/>
<path d="M968.25 404.5H971.8C972.067 404.5 972.3 404.4 972.5 404.2C972.7 404 972.8 403.767 972.8 403.5V397.65C972.8 397.383 972.7 397.15 972.5 396.95C972.3 396.75 972.067 396.65 971.8 396.65H931.35C931.083 396.65 930.85 396.75 930.65 396.95C930.45 397.15 930.35 397.383 930.35 397.65V403.5C930.35 403.767 930.45 404 930.65 404.2C930.85 404.4 931.083 404.5 931.35 404.5H934.85V431.7C934.85 431.967 934.95 432.2 935.15 432.4C935.35 432.6 935.583 432.7 935.85 432.7H967.25C967.517 432.7 967.75 432.6 967.95 432.4C968.15 432.2 968.25 431.967 968.25 431.7V404.5Z" fill="#EA921E"/>
<path d="M910.7 392.85C911.367 392.983 912.033 392.933 912.7 392.7L931.9 387.7C932.433 387.533 932.833 387.217 933.1 386.75C933.4 386.25 933.5 385.733 933.4 385.2C933.3 384.567 933 384.05 932.5 383.65C932 383.283 931.417 383.15 930.75 383.25L913.15 384L903.4 374.55C901.733 372.95 899.75 372.2 897.45 372.3C895.25 372.4 893.4 373.267 891.9 374.9C890.433 376.5 889.733 378.4 889.8 380.6L890.8 403.9L890.85 404.05V404.55C890.95 405.183 891 405.517 891 405.55C891.067 405.95 891.233 406.6 891.5 407.5C891.967 408.633 892.633 409.633 893.5 410.5C894.2 411.233 895.05 411.883 896.05 412.45C896.95 412.917 897.85 413.25 898.75 413.45C899.417 413.65 900.3 413.75 901.4 413.75L917 413.15L917.5 426.15C917.567 427.517 918.083 428.7 919.05 429.7C920.017 430.7 921.2 431.217 922.6 431.25C924.067 431.317 925.333 430.85 926.4 429.85C927.5 428.85 928.067 427.617 928.1 426.15L928.7 410L928.75 409.95L928.7 409.7V409.25L928.4 407.5C928.067 406.433 927.55 405.433 926.85 404.5C926.25 403.767 925.517 403.1 924.65 402.5C923.783 401.967 922.967 401.583 922.2 401.35C921.367 401.117 920.517 400.967 919.65 400.9L904.95 400.35L905.45 388.5L908.65 391.65L908.95 391.9C909.417 392.367 910 392.683 910.7 392.85Z" fill="#2E3E50"/>
<path d="M907.85 357.15C907.85 354.717 906.983 352.617 905.25 350.85C903.517 349.117 901.417 348.25 898.95 348.25C896.517 348.25 894.417 349.117 892.65 350.85C890.917 352.617 890.05 354.717 890.05 357.15C890.05 359.617 890.917 361.717 892.65 363.45C894.383 365.183 896.483 366.05 898.95 366.05C901.417 366.05 903.517 365.183 905.25 363.45C906.983 361.717 907.85 359.617 907.85 357.15Z" fill="#2E3E50"/>
<path d="M886.6 384.95C886.6 384.083 886.283 383.333 885.65 382.7C885.017 382.067 884.25 381.75 883.35 381.75C882.45 381.75 881.683 382.067 881.05 382.7C880.417 383.333 880.1 384.083 880.1 384.95V407.95C880.1 412.017 881.55 415.5 884.45 418.4C887.317 421.267 890.783 422.7 894.85 422.7H905.8C906.333 422.7 906.783 422.883 907.15 423.25C907.517 423.65 907.7 424.117 907.7 424.65V431.55C907.7 432.417 908.017 433.167 908.65 433.8C909.283 434.433 910.05 434.75 910.95 434.75C911.85 434.75 912.617 434.433 913.25 433.8C913.883 433.167 914.2 432.417 914.2 431.55V424.65C914.2 422.317 913.383 420.333 911.75 418.7C910.083 417.067 908.1 416.25 905.8 416.25H894.85C892.583 416.25 890.633 415.433 889 413.8C887.4 412.167 886.6 410.217 886.6 407.95V384.95Z" fill="#EA921E"/>
<path d="M905.85 431.2C904.083 431.2 902.567 431.833 901.3 433.1C900.033 434.367 899.4 435.883 899.4 437.65C899.4 438.283 899.617 438.817 900.05 439.25C900.483 439.683 901.017 439.9 901.65 439.9C902.25 439.9 902.783 439.683 903.25 439.25C903.683 438.817 903.9 438.283 903.9 437.65C903.9 437.117 904.083 436.65 904.45 436.25C904.85 435.883 905.317 435.7 905.85 435.7H914.55C915.117 435.7 915.583 435.883 915.95 436.25C916.317 436.65 916.5 437.133 916.5 437.7C916.5 438.333 916.733 438.867 917.2 439.3C917.633 439.733 918.15 439.95 918.75 439.95C919.383 439.95 919.917 439.717 920.35 439.25C920.783 438.817 921 438.283 921 437.65C921 435.883 920.367 434.367 919.1 433.1C917.833 431.833 916.317 431.2 914.55 431.2H905.85Z" fill="#EA921E"/>
<path d="M937.85 388.9C937.917 389.033 938.033 389.1 938.2 389.1L959.95 388.75C960.183 388.75 960.333 388.633 960.4 388.4L964.25 372.2C964.317 371.833 964.15 371.65 963.75 371.65H941.9C941.667 371.65 941.517 371.767 941.45 372L937.75 388.5C937.717 388.633 937.75 388.767 937.85 388.9Z" fill="#0FB9E8"/>
<path d="M935.15 390.35C934.85 390.35 934.7 390.517 934.7 390.85L934.8 393C934.867 393.3 935.033 393.45 935.3 393.45H959.6C959.933 393.45 960.1 393.3 960.1 393V390.85C960.1 390.517 959.933 390.35 959.6 390.35H935.15Z" fill="#0FB9E8"/>
<path d="M801.95 354.3C801.683 354.3 801.45 354.4 801.25 354.6C801.05 354.8 800.95 355.05 800.95 355.35V361.15C800.95 361.417 801.05 361.65 801.25 361.85C801.45 362.05 801.683 362.15 801.95 362.15H805.45V389.4C805.45 389.667 805.55 389.9 805.75 390.1C805.95 390.3 806.183 390.4 806.45 390.4H837.85C838.117 390.4 838.35 390.3 838.55 390.1C838.75 389.9 838.85 389.667 838.85 389.4V362.15H842.4C842.667 362.15 842.9 362.05 843.1 361.85C843.3 361.65 843.4 361.417 843.4 361.15V355.35C843.4 355.05 843.3 354.8 843.1 354.6C842.9 354.4 842.667 354.3 842.4 354.3H801.95Z" fill="#EA921E"/>
<path d="M803.7 344.4C804 343.9 804.1 343.383 804 342.85C803.9 342.217 803.6 341.717 803.1 341.35C802.567 340.95 801.983 340.8 801.35 340.9L783.75 341.65L774 332.25C772.3 330.617 770.317 329.85 768.05 329.95C765.85 330.05 764.017 330.917 762.55 332.55C761.05 334.15 760.35 336.067 760.45 338.3L761.4 361.55L761.45 361.75V362.25L761.6 363.25C761.7 363.85 761.883 364.483 762.15 365.15C762.583 366.317 763.233 367.333 764.1 368.2C764.933 369.033 765.783 369.667 766.65 370.1C767.517 370.6 768.417 370.95 769.35 371.15C770.25 371.35 771.133 371.45 772 371.45L787.6 370.85L788.1 383.8C788.167 385.2 788.683 386.383 789.65 387.35C790.617 388.383 791.8 388.917 793.2 388.95C794.667 389.017 795.933 388.533 797 387.5C798.1 386.5 798.667 385.267 798.7 383.8L799.3 367.95L799.35 367.65V367.4L799.2 366.05L799 365.15C798.633 364.017 798.117 363.033 797.45 362.2C796.85 361.4 796.117 360.733 795.25 360.2C794.583 359.733 793.767 359.333 792.8 359C791.967 358.767 791.133 358.617 790.3 358.55L775.55 358L776.05 346.2L779.55 349.6C780.617 350.6 781.867 350.867 783.3 350.4L802.5 345.4C803.033 345.2 803.433 344.867 803.7 344.4Z" fill="#2E3E50"/>
<path d="M778.45 314.85C778.45 312.383 777.583 310.283 775.85 308.55C774.117 306.817 772.017 305.95 769.55 305.95C767.083 305.95 764.983 306.817 763.25 308.55C761.517 310.283 760.65 312.383 760.65 314.85C760.65 317.317 761.517 319.417 763.25 321.15C765.017 322.883 767.117 323.75 769.55 323.75C772.017 323.75 774.117 322.883 775.85 321.15C777.583 319.417 778.45 317.317 778.45 314.85Z" fill="#2E3E50"/>
<path d="M757.2 342.65C757.2 341.75 756.883 340.983 756.25 340.35C755.617 339.717 754.85 339.4 753.95 339.4C753.05 339.4 752.3 339.717 751.7 340.35C751.067 340.983 750.75 341.75 750.75 342.65V365.65C750.75 369.717 752.183 373.183 755.05 376.05C757.95 378.917 761.417 380.35 765.45 380.35H776.4C776.933 380.35 777.383 380.55 777.75 380.95C778.117 381.317 778.3 381.767 778.3 382.3V389.2C778.3 390.1 778.617 390.867 779.25 391.5C779.883 392.133 780.65 392.45 781.55 392.45C782.45 392.45 783.217 392.133 783.85 391.5C784.483 390.867 784.8 390.1 784.8 389.2V382.3C784.8 379.967 783.983 377.983 782.35 376.35C780.683 374.717 778.7 373.9 776.4 373.9H765.45C763.183 373.9 761.233 373.1 759.6 371.5C758 369.867 757.2 367.917 757.2 365.65V342.65Z" fill="#EA921E"/>
<path d="M776.45 388.85C774.683 388.85 773.167 389.483 771.9 390.75C770.633 392.017 770 393.533 770 395.3C770 395.933 770.217 396.467 770.65 396.9C771.083 397.333 771.617 397.55 772.25 397.55C772.85 397.55 773.383 397.333 773.85 396.9C774.283 396.467 774.5 395.933 774.5 395.3C774.5 394.767 774.683 394.317 775.05 393.95C775.45 393.55 775.917 393.35 776.45 393.35H785.15C785.717 393.35 786.183 393.55 786.55 393.95C786.95 394.35 787.15 394.833 787.15 395.4C787.15 396.033 787.367 396.55 787.8 396.95C788.233 397.383 788.75 397.6 789.35 397.6C789.983 397.6 790.517 397.367 790.95 396.9C791.383 396.467 791.6 395.933 791.6 395.3C791.6 393.533 790.967 392.017 789.7 390.75C788.433 389.483 786.917 388.85 785.15 388.85H776.45Z" fill="#EA921E"/>
<path d="M808.35 346.2C808.283 346.567 808.433 346.75 808.8 346.75L830.55 346.4C830.783 346.4 830.933 346.283 831 346.05L834.85 329.9C834.917 329.5 834.75 329.3 834.35 329.3H812.5C812.267 329.3 812.117 329.417 812.05 329.65L808.35 346.2Z" fill="#0FB9E8"/>
<path d="M805.75 348.05C805.45 348.05 805.3 348.217 805.3 348.55L805.4 350.7C805.467 351 805.633 351.15 805.9 351.15H830.2C830.533 351.15 830.7 350.983 830.7 350.65V348.5C830.7 348.2 830.533 348.05 830.2 348.05H805.75Z" fill="#0FB9E8"/>
<path d="M918.05 284.15H921.6C921.867 284.15 922.1 284.05 922.3 283.85C922.5 283.65 922.6 283.417 922.6 283.15V277.3C922.6 277.033 922.5 276.8 922.3 276.6C922.1 276.4 921.867 276.3 921.6 276.3H881.15C880.85 276.3 880.6 276.4 880.4 276.6C880.2 276.8 880.1 277.033 880.1 277.3V283.15C880.1 283.417 880.2 283.65 880.4 283.85C880.6 284.05 880.85 284.15 881.15 284.15H884.65V311.35C884.65 311.617 884.75 311.85 884.95 312.05C885.15 312.25 885.383 312.35 885.65 312.35H917.05C917.317 312.35 917.55 312.25 917.75 312.05C917.95 311.85 918.05 311.617 918.05 311.35V284.15Z" fill="#EA921E"/>
<path d="M922.15 262.9C921.517 262.8 920.95 262.933 920.45 263.3C919.917 263.7 919.6 264.217 919.5 264.85C919.433 265.383 919.533 265.9 919.8 266.4C920.1 266.867 920.5 267.183 921 267.35L940.2 272.35C940.867 272.583 941.55 272.633 942.25 272.5C942.917 272.333 943.483 272.017 943.95 271.55L944.25 271.3L947.5 268.15L948 280L933.25 280.55C932.417 280.617 931.567 280.767 930.7 281C929.9 281.267 929.083 281.65 928.25 282.15C927.417 282.75 926.683 283.417 926.05 284.15C925.317 285.117 924.817 286.117 924.55 287.15L924.3 288L924.2 288.9L924.8 305.8C924.867 307.267 925.433 308.5 926.5 309.5C927.567 310.5 928.833 310.967 930.3 310.9C931.7 310.867 932.883 310.35 933.85 309.35C934.85 308.383 935.383 307.2 935.45 305.8L935.9 292.8L951.5 293.4C952.567 293.4 953.467 293.3 954.2 293.1C955.2 292.867 956.1 292.533 956.9 292.1C957.967 291.467 958.8 290.817 959.4 290.15C960.267 289.283 960.933 288.283 961.4 287.15C961.7 286.417 961.883 285.767 961.95 285.2L962.1 283.7L963.1 260.25C963.2 258.05 962.5 256.15 961 254.55C959.5 252.917 957.65 252.05 955.45 251.95C953.183 251.85 951.217 252.6 949.55 254.2L939.8 263.65L922.15 262.9Z" fill="#2E3E50"/>
<path d="M947.65 230.5C945.917 232.267 945.05 234.367 945.05 236.8C945.05 239.267 945.917 241.367 947.65 243.1C949.383 244.833 951.483 245.7 953.95 245.7C956.417 245.7 958.517 244.833 960.25 243.1C961.983 241.367 962.85 239.267 962.85 236.8C962.85 234.333 961.983 232.233 960.25 230.5C958.517 228.767 956.417 227.9 953.95 227.9C951.517 227.9 949.417 228.767 947.65 230.5Z" fill="#2E3E50"/>
<path d="M972.8 287.6V264.6C972.8 263.733 972.483 262.983 971.85 262.35C971.217 261.717 970.45 261.4 969.55 261.4C968.65 261.4 967.883 261.717 967.25 262.35C966.617 262.983 966.3 263.733 966.3 264.6V287.6C966.3 289.867 965.5 291.817 963.9 293.45C962.267 295.083 960.317 295.9 958.05 295.9H947.15C944.817 295.9 942.833 296.717 941.2 298.35C939.567 299.983 938.75 301.967 938.75 304.3V311.2C938.75 312.067 939.067 312.817 939.7 313.45C940.333 314.083 941.083 314.4 941.95 314.4C942.85 314.4 943.617 314.083 944.25 313.45C944.883 312.817 945.2 312.067 945.2 311.2V304.3C945.2 303.767 945.383 303.3 945.75 302.9C946.15 302.533 946.617 302.35 947.15 302.35H958.05C962.117 302.35 965.6 300.917 968.5 298.05C971.367 295.15 972.8 291.667 972.8 287.6Z" fill="#EA921E"/>
<path d="M952.9 318.9C953.333 318.467 953.55 317.933 953.55 317.3C953.55 315.533 952.917 314.017 951.65 312.75C950.383 311.483 948.85 310.85 947.05 310.85H938.35C936.583 310.85 935.067 311.483 933.8 312.75C932.533 314.017 931.9 315.533 931.9 317.3C931.9 317.933 932.117 318.467 932.55 318.9C932.983 319.367 933.517 319.6 934.15 319.6C934.783 319.6 935.317 319.383 935.75 318.95C936.183 318.517 936.4 317.983 936.4 317.35C936.4 316.783 936.583 316.3 936.95 315.9C937.317 315.533 937.783 315.35 938.35 315.35H947.05C947.617 315.35 948.083 315.533 948.45 315.9C948.85 316.3 949.05 316.767 949.05 317.3C949.05 317.933 949.267 318.467 949.7 318.9C950.133 319.333 950.667 319.55 951.3 319.55C951.9 319.55 952.433 319.333 952.9 318.9Z" fill="#EA921E"/>
<path d="M911.5 251.65C911.433 251.417 911.267 251.3 911 251.3H889.15C888.983 251.3 888.867 251.35 888.8 251.45C888.7 251.583 888.667 251.717 888.7 251.85L892.5 268.05C892.567 268.283 892.717 268.4 892.95 268.4L914.7 268.75C914.867 268.75 915 268.683 915.1 268.55C915.2 268.417 915.217 268.283 915.15 268.15L911.5 251.65Z" fill="#0FB9E8"/>
<path d="M918.2 270.5C918.2 270.167 918.05 270 917.75 270H893.3C893 270 892.85 270.167 892.85 270.5V272.65C892.85 272.95 893 273.1 893.3 273.1H917.65C917.95 273.1 918.1 272.95 918.1 272.65L918.2 270.5Z" fill="#0FB9E8"/>
<path d="M310.8 292.95C310.526 292.952 310.293 293.052 310.1 293.25C309.902 293.443 309.802 293.676 309.8 293.95C309.802 294.224 309.902 294.457 310.1 294.65C310.293 294.848 310.526 294.948 310.8 294.95H318.8C319.074 294.948 319.307 294.848 319.5 294.65C319.698 294.457 319.798 294.224 319.8 293.95C319.798 293.676 319.698 293.443 319.5 293.25C319.307 293.052 319.074 292.952 318.8 292.95H310.8ZM297.3 293.95C297.302 294.224 297.402 294.457 297.6 294.65C297.793 294.848 298.026 294.948 298.3 294.95H302.8C303.074 294.948 303.307 294.848 303.5 294.65C303.698 294.457 303.798 294.224 303.8 293.95C303.798 293.676 303.698 293.443 303.5 293.25C303.307 293.052 303.074 292.952 302.8 292.95H298.3C298.026 292.952 297.793 293.052 297.6 293.25C297.402 293.443 297.302 293.676 297.3 293.95ZM361.2 288.35C361.002 288.543 360.902 288.776 360.9 289.05V292.95H358.8C358.526 292.952 358.293 293.052 358.1 293.25C357.902 293.443 357.802 293.676 357.8 293.95C357.802 294.224 357.902 294.457 358.1 294.65C358.293 294.848 358.526 294.948 358.8 294.95H361.9C362.174 294.948 362.407 294.848 362.6 294.65C362.798 294.457 362.898 294.224 362.9 293.95V289.05C362.898 288.776 362.798 288.543 362.6 288.35C362.407 288.152 362.174 288.052 361.9 288.05C361.626 288.052 361.393 288.152 361.2 288.35ZM362.6 281.75C362.798 281.557 362.898 281.324 362.9 281.05V273.05C362.898 272.776 362.798 272.543 362.6 272.35C362.407 272.152 362.174 272.052 361.9 272.05C361.626 272.052 361.393 272.152 361.2 272.35C361.002 272.543 360.902 272.776 360.9 273.05V281.05C360.902 281.324 361.002 281.557 361.2 281.75C361.393 281.948 361.626 282.048 361.9 282.05C362.174 282.048 362.407 281.948 362.6 281.75ZM341.8 293.95C341.802 294.224 341.902 294.457 342.1 294.65C342.293 294.848 342.526 294.948 342.8 294.95H350.8C351.074 294.948 351.307 294.848 351.5 294.65C351.698 294.457 351.798 294.224 351.8 293.95C351.798 293.676 351.698 293.443 351.5 293.25C351.307 293.052 351.074 292.952 350.8 292.95H342.8C342.526 292.952 342.293 293.052 342.1 293.25C341.902 293.443 341.802 293.676 341.8 293.95ZM326.1 294.65C326.293 294.848 326.526 294.948 326.8 294.95H334.8C335.074 294.948 335.307 294.848 335.5 294.65C335.698 294.457 335.798 294.224 335.8 293.95C335.798 293.676 335.698 293.443 335.5 293.25C335.307 293.052 335.074 292.952 334.8 292.95H326.8C326.526 292.952 326.293 293.052 326.1 293.25C325.902 293.443 325.802 293.676 325.8 293.95C325.802 294.224 325.902 294.457 326.1 294.65ZM361.2 256.35C361.002 256.543 360.902 256.776 360.9 257.05V265.05C360.902 265.324 361.002 265.557 361.2 265.75C361.393 265.948 361.626 266.048 361.9 266.05C362.174 266.048 362.407 265.948 362.6 265.75C362.798 265.557 362.898 265.324 362.9 265.05V257.05C362.898 256.776 362.798 256.543 362.6 256.35C362.407 256.152 362.174 256.052 361.9 256.05C361.626 256.052 361.393 256.152 361.2 256.35ZM361.2 240.35C361.002 240.543 360.902 240.776 360.9 241.05V249.05C360.902 249.324 361.002 249.557 361.2 249.75C361.393 249.948 361.626 250.048 361.9 250.05C362.174 250.048 362.407 249.948 362.6 249.75C362.798 249.557 362.898 249.324 362.9 249.05V241.05C362.898 240.776 362.798 240.543 362.6 240.35C362.407 240.152 362.174 240.052 361.9 240.05C361.626 240.052 361.393 240.152 361.2 240.35ZM362.9 225.05C362.898 224.776 362.798 224.543 362.6 224.35C362.407 224.152 362.174 224.052 361.9 224.05C361.626 224.052 361.393 224.152 361.2 224.35C361.002 224.543 360.902 224.776 360.9 225.05V233.05C360.902 233.324 361.002 233.557 361.2 233.75C361.393 233.948 361.626 234.048 361.9 234.05C362.174 234.048 362.407 233.948 362.6 233.75C362.798 233.557 362.898 233.324 362.9 233.05V225.05ZM368.05 216.15C368.324 216.148 368.557 216.048 368.75 215.85C368.948 215.657 369.048 215.424 369.05 215.15C369.048 214.876 368.948 214.643 368.75 214.45C368.557 214.252 368.324 214.152 368.05 214.15H361.9C361.626 214.152 361.393 214.252 361.2 214.45C361.002 214.643 360.902 214.876 360.9 215.15V217.05C360.902 217.324 361.002 217.557 361.2 217.75C361.393 217.948 361.626 218.048 361.9 218.05C362.174 218.048 362.407 217.948 362.6 217.75C362.798 217.557 362.898 217.324 362.9 217.05V216.15H368.05ZM384.75 215.85C384.948 215.657 385.048 215.424 385.05 215.15C385.048 214.876 384.948 214.643 384.75 214.45C384.557 214.252 384.324 214.152 384.05 214.15H376.05C375.776 214.152 375.543 214.252 375.35 214.45C375.152 214.643 375.052 214.876 375.05 215.15C375.052 215.424 375.152 215.657 375.35 215.85C375.543 216.048 375.776 216.148 376.05 216.15H384.05C384.324 216.148 384.557 216.048 384.75 215.85ZM391.35 215.85C391.543 216.048 391.776 216.148 392.05 216.15H400.05C400.324 216.148 400.557 216.048 400.75 215.85C400.948 215.657 401.048 215.424 401.05 215.15C401.048 214.876 400.948 214.643 400.75 214.45C400.557 214.252 400.324 214.152 400.05 214.15H392.05C391.776 214.152 391.543 214.252 391.35 214.45C391.152 214.643 391.052 214.876 391.05 215.15C391.052 215.424 391.152 215.657 391.35 215.85ZM407.35 215.85C407.543 216.048 407.776 216.148 408.05 216.15H416.05C416.324 216.148 416.557 216.048 416.75 215.85C416.948 215.657 417.048 215.424 417.05 215.15C417.048 214.876 416.948 214.643 416.75 214.45C416.557 214.252 416.324 214.152 416.05 214.15H408.05C407.776 214.152 407.543 214.252 407.35 214.45C407.152 214.643 407.052 214.876 407.05 215.15C407.052 215.424 407.152 215.657 407.35 215.85ZM432.05 216.15C432.324 216.148 432.557 216.048 432.75 215.85C432.948 215.657 433.048 215.424 433.05 215.15C433.048 214.876 432.948 214.643 432.75 214.45C432.557 214.252 432.324 214.152 432.05 214.15H424.05C423.776 214.152 423.543 214.252 423.35 214.45C423.152 214.643 423.052 214.876 423.05 215.15C423.052 215.424 423.152 215.657 423.35 215.85C423.543 216.048 423.776 216.148 424.05 216.15H432.05ZM448.75 214.45C448.557 214.252 448.324 214.152 448.05 214.15H440.05C439.776 214.152 439.543 214.252 439.35 214.45C439.152 214.643 439.052 214.876 439.05 215.15C439.052 215.424 439.152 215.657 439.35 215.85C439.543 216.048 439.776 216.148 440.05 216.15H448.05C448.324 216.148 448.557 216.048 448.75 215.85C448.948 215.657 449.048 215.424 449.05 215.15C449.048 214.876 448.948 214.643 448.75 214.45ZM455.05 215.15C455.052 215.424 455.152 215.657 455.35 215.85C455.543 216.048 455.776 216.148 456.05 216.15H464.05C464.324 216.148 464.557 216.048 464.75 215.85C464.948 215.657 465.048 215.424 465.05 215.15C465.048 214.876 464.948 214.643 464.75 214.45C464.557 214.252 464.324 214.152 464.05 214.15H456.05C455.776 214.152 455.543 214.252 455.35 214.45C455.152 214.643 455.052 214.876 455.05 215.15Z" fill="#1C2A4A"/>
<path d="M516.1 211.75C515.847 211.669 515.597 211.686 515.35 211.8L508.05 215.1C507.798 215.212 507.615 215.395 507.5 215.65C507.419 215.903 507.436 216.153 507.55 216.4C507.662 216.652 507.845 216.819 508.1 216.9C508.352 217.014 508.602 217.014 508.85 216.9L516.15 213.6C516.402 213.488 516.568 213.305 516.65 213.05C516.764 212.797 516.764 212.547 516.65 212.3C516.538 212.048 516.355 211.865 516.1 211.75ZM530.7 205.15C530.447 205.069 530.197 205.086 529.95 205.2L522.65 208.5C522.398 208.612 522.215 208.795 522.1 209.05C522.019 209.303 522.036 209.553 522.15 209.8C522.262 210.052 522.445 210.219 522.7 210.3C522.952 210.414 523.202 210.414 523.45 210.3L530.75 207C531.002 206.888 531.168 206.705 531.25 206.45C531.364 206.197 531.364 205.947 531.25 205.7C531.138 205.448 530.955 205.265 530.7 205.15ZM545.3 198.55C545.047 198.469 544.797 198.486 544.55 198.6L537.25 201.9C536.998 202.012 536.815 202.195 536.7 202.45C536.619 202.703 536.636 202.953 536.75 203.2C536.862 203.452 537.045 203.619 537.3 203.7C537.552 203.814 537.802 203.814 538.05 203.7L545.35 200.4C545.602 200.288 545.768 200.105 545.85 199.85C545.964 199.597 545.964 199.347 545.85 199.1C545.738 198.848 545.555 198.665 545.3 198.55ZM617.55 165.9L610.25 169.1C610 169.228 609.816 169.411 609.7 169.65C609.611 169.927 609.611 170.193 609.7 170.45C609.827 170.701 610.011 170.868 610.25 170.95C610.526 171.073 610.792 171.073 611.05 170.95L618.35 167.75C618.6 167.656 618.767 167.472 618.85 167.2C618.973 166.957 618.973 166.707 618.85 166.45C618.756 166.199 618.573 166.016 618.3 165.9C618.058 165.811 617.808 165.811 617.55 165.9ZM633.45 159.95C633.338 159.698 633.155 159.515 632.9 159.4C632.647 159.319 632.397 159.336 632.15 159.45L624.85 162.75C624.598 162.862 624.415 163.045 624.3 163.3C624.219 163.553 624.236 163.803 624.35 164.05C624.462 164.302 624.645 164.469 624.9 164.55C625.152 164.664 625.402 164.664 625.65 164.55L632.95 161.25C633.202 161.138 633.368 160.955 633.45 160.7C633.564 160.447 633.564 160.197 633.45 159.95ZM581.05 182.1C580.8 182.228 580.616 182.411 580.5 182.65C580.411 182.927 580.411 183.193 580.5 183.45C580.627 183.701 580.811 183.868 581.05 183.95C581.326 184.073 581.592 184.073 581.85 183.95L589.15 180.75C589.4 180.656 589.567 180.472 589.65 180.2C589.773 179.957 589.773 179.707 589.65 179.45C589.556 179.199 589.372 179.016 589.1 178.9C588.858 178.811 588.608 178.811 588.35 178.9L581.05 182.1ZM604.25 172.95C604.156 172.699 603.973 172.516 603.7 172.4C603.458 172.311 603.208 172.311 602.95 172.4L595.65 175.6C595.4 175.728 595.216 175.911 595.1 176.15C595.011 176.427 595.011 176.693 595.1 176.95C595.227 177.201 595.411 177.368 595.65 177.45C595.926 177.573 596.192 177.573 596.45 177.45L603.75 174.25C604 174.156 604.167 173.972 604.25 173.7C604.373 173.457 604.373 173.207 604.25 172.95ZM565.95 190C566.062 190.252 566.245 190.419 566.5 190.5C566.752 190.614 567.002 190.614 567.25 190.5L574.55 187.25C574.802 187.138 574.968 186.955 575.05 186.7C575.164 186.447 575.164 186.197 575.05 185.95C574.938 185.698 574.755 185.515 574.5 185.4C574.247 185.319 573.997 185.336 573.75 185.45L566.45 188.7C566.198 188.812 566.015 188.995 565.9 189.25C565.819 189.503 565.836 189.753 565.95 190ZM551.9 197.1C552.152 197.214 552.402 197.214 552.65 197.1L559.95 193.8C560.202 193.688 560.368 193.505 560.45 193.25C560.564 192.997 560.564 192.747 560.45 192.5C560.338 192.248 560.155 192.065 559.9 191.95C559.647 191.869 559.397 191.886 559.15 192L551.85 195.3C551.598 195.412 551.415 195.595 551.3 195.85C551.219 196.103 551.236 196.353 551.35 196.6C551.462 196.852 551.645 197.019 551.9 197.1ZM648.05 154.2C648.164 153.947 648.164 153.697 648.05 153.45C647.938 153.198 647.755 153.015 647.5 152.9C647.247 152.819 646.997 152.836 646.75 152.95L639.45 156.25C639.198 156.362 639.015 156.545 638.9 156.8C638.819 157.053 638.836 157.303 638.95 157.55C639.062 157.802 639.245 157.969 639.5 158.05C639.752 158.164 640.002 158.164 640.25 158.05L647.55 154.75C647.802 154.638 647.968 154.455 648.05 154.2ZM668.1 143.8C668.019 144.053 668.036 144.303 668.15 144.55C668.262 144.802 668.445 144.969 668.7 145.05C668.952 145.164 669.202 145.164 669.45 145.05L676.75 141.75C677.002 141.638 677.168 141.455 677.25 141.2C677.364 140.947 677.364 140.697 677.25 140.45C677.138 140.198 676.955 140.015 676.7 139.9C676.447 139.819 676.197 139.836 675.95 139.95L668.65 143.25C668.398 143.362 668.215 143.545 668.1 143.8ZM662.1 146.4C661.847 146.319 661.597 146.336 661.35 146.45L654.05 149.75C653.798 149.862 653.615 150.045 653.5 150.3C653.419 150.553 653.436 150.803 653.55 151.05C653.662 151.302 653.845 151.469 654.1 151.55C654.352 151.664 654.602 151.664 654.85 151.55L662.15 148.25C662.402 148.138 662.568 147.955 662.65 147.7C662.764 147.447 662.764 147.197 662.65 146.95C662.538 146.698 662.355 146.515 662.1 146.4ZM690.75 133.7C690.498 133.611 690.248 133.611 690 133.7L683.25 136.7C682.999 136.837 682.815 137.037 682.7 137.3C682.619 137.552 682.636 137.802 682.75 138.05C682.861 138.302 683.045 138.468 683.3 138.55C683.552 138.673 683.802 138.673 684.05 138.55L690.8 135.55C691.051 135.447 691.218 135.263 691.3 135C691.414 134.748 691.414 134.498 691.3 134.25C691.189 133.998 691.005 133.815 690.75 133.7Z" fill="#1C2A4A"/>
<path d="M790.8 153.9C790.613 153.689 790.379 153.572 790.1 153.55L782.1 153.05C781.833 153.033 781.6 153.117 781.4 153.3C781.188 153.479 781.072 153.696 781.05 153.95C781.033 154.242 781.116 154.492 781.3 154.7C781.487 154.911 781.721 155.028 782 155.05L790 155.55C790.267 155.567 790.5 155.483 790.7 155.3C790.912 155.121 791.028 154.887 791.05 154.6C791.067 154.342 790.984 154.108 790.8 153.9ZM806 156.45C806.276 156.466 806.51 156.383 806.7 156.2C806.921 156.011 807.037 155.778 807.05 155.5C807.066 155.223 806.983 154.973 806.8 154.75C806.611 154.563 806.378 154.463 806.1 154.45L798.1 154.05C797.824 154.034 797.574 154.117 797.35 154.3C797.163 154.489 797.063 154.722 797.05 155C797.034 155.276 797.117 155.51 797.3 155.7C797.489 155.92 797.722 156.037 798 156.05L806 156.45ZM742 152.55C742.267 152.567 742.5 152.483 742.7 152.3C742.912 152.121 743.028 151.887 743.05 151.6C743.067 151.342 742.984 151.108 742.8 150.9C742.613 150.689 742.379 150.572 742.1 150.55L734.1 150.05C733.833 150.033 733.6 150.117 733.4 150.3C733.188 150.479 733.072 150.696 733.05 150.95C733.033 151.242 733.116 151.492 733.3 151.7C733.487 151.911 733.721 152.028 734 152.05L742 152.55ZM759.05 152.6C759.067 152.342 758.984 152.108 758.8 151.9C758.613 151.689 758.379 151.572 758.1 151.55L750.1 151.05C749.833 151.033 749.6 151.117 749.4 151.3C749.188 151.479 749.072 151.696 749.05 151.95C749.033 152.242 749.116 152.492 749.3 152.7C749.487 152.911 749.721 153.028 750 153.05L758 153.55C758.267 153.567 758.5 153.483 758.7 153.3C758.912 153.121 759.028 152.887 759.05 152.6ZM765.3 153.7C765.487 153.911 765.721 154.028 766 154.05L774 154.55C774.267 154.567 774.5 154.483 774.7 154.3C774.912 154.121 775.028 153.887 775.05 153.6C775.067 153.342 774.984 153.108 774.8 152.9C774.613 152.689 774.379 152.572 774.1 152.55L766.1 152.05C765.833 152.033 765.6 152.117 765.4 152.3C765.188 152.479 765.072 152.696 765.05 152.95C765.033 153.242 765.116 153.492 765.3 153.7ZM902.8 160.15C902.611 159.963 902.378 159.863 902.1 159.85L894.1 159.45C893.824 159.434 893.574 159.517 893.35 159.7C893.163 159.889 893.063 160.122 893.05 160.4C893.034 160.676 893.117 160.91 893.3 161.1C893.489 161.32 893.722 161.437 894 161.45L902 161.85C902.276 161.866 902.51 161.783 902.7 161.6C902.921 161.411 903.037 161.178 903.05 160.9C903.066 160.623 902.983 160.373 902.8 160.15ZM917 161.7C917.016 161.424 916.933 161.174 916.75 160.95C916.561 160.763 916.328 160.663 916.05 160.65L910.1 160.35C909.823 160.334 909.573 160.417 909.35 160.6C909.163 160.789 909.063 161.022 909.05 161.3C909.034 161.576 909.117 161.81 909.3 162C909.489 162.22 909.722 162.337 910 162.35L915.95 162.65C916.227 162.666 916.46 162.583 916.65 162.4C916.871 162.211 916.987 161.978 917 161.7ZM871.05 159.1C871.066 158.823 870.983 158.573 870.8 158.35C870.611 158.163 870.378 158.063 870.1 158.05L862.1 157.65C861.824 157.634 861.574 157.717 861.35 157.9C861.163 158.089 861.063 158.322 861.05 158.6C861.034 158.876 861.117 159.11 861.3 159.3C861.489 159.52 861.722 159.637 862 159.65L870 160.05C870.276 160.066 870.51 159.983 870.7 159.8C870.921 159.611 871.037 159.378 871.05 159.1ZM886.7 160.7C886.921 160.511 887.037 160.278 887.05 160C887.066 159.723 886.983 159.473 886.8 159.25C886.611 159.063 886.378 158.963 886.1 158.95L878.1 158.55C877.824 158.534 877.574 158.617 877.35 158.8C877.163 158.989 877.063 159.222 877.05 159.5C877.034 159.776 877.117 160.01 877.3 160.2C877.489 160.42 877.722 160.537 878 160.55L886 160.95C886.276 160.966 886.51 160.883 886.7 160.7ZM822 157.35C822.276 157.366 822.51 157.283 822.7 157.1C822.921 156.911 823.037 156.678 823.05 156.4C823.066 156.123 822.983 155.873 822.8 155.65C822.611 155.463 822.378 155.363 822.1 155.35L814.1 154.95C813.824 154.934 813.574 155.017 813.35 155.2C813.163 155.389 813.063 155.622 813.05 155.9C813.034 156.176 813.117 156.41 813.3 156.6C813.489 156.82 813.722 156.937 814 156.95L822 157.35ZM839.05 157.3C839.066 157.023 838.983 156.773 838.8 156.55C838.611 156.363 838.378 156.263 838.1 156.25L830.1 155.85C829.824 155.834 829.574 155.917 829.35 156.1C829.163 156.289 829.063 156.522 829.05 156.8C829.034 157.076 829.117 157.31 829.3 157.5C829.489 157.72 829.722 157.837 830 157.85L838 158.25C838.276 158.266 838.51 158.183 838.7 158C838.921 157.811 839.037 157.578 839.05 157.3ZM846.1 156.75C845.824 156.734 845.574 156.817 845.35 157C845.163 157.189 845.063 157.422 845.05 157.7C845.034 157.976 845.117 158.21 845.3 158.4C845.489 158.62 845.722 158.737 846 158.75L854 159.15C854.276 159.166 854.51 159.083 854.7 158.9C854.921 158.711 855.037 158.478 855.05 158.2C855.066 157.923 854.983 157.673 854.8 157.45C854.611 157.263 854.378 157.163 854.1 157.15L846.1 156.75Z" fill="#1C2A4A"/>
<path d="M155.05 80.8C155.007 80.5306 154.874 80.3139 154.65 80.15L148.25 75.35C148.025 75.181 147.775 75.1143 147.5 75.15C147.23 75.1923 147.014 75.3257 146.85 75.55C146.681 75.7745 146.614 76.0245 146.65 76.3C146.693 76.5694 146.826 76.7861 147.05 76.95L153.45 81.75C153.675 81.9189 153.925 81.9855 154.2 81.95C154.47 81.9077 154.686 81.7743 154.85 81.55C155.019 81.3255 155.086 81.0755 155.05 80.8ZM142.25 71.2C142.207 70.9306 142.074 70.7139 141.85 70.55L135.45 65.75C135.225 65.581 134.975 65.5143 134.7 65.55C134.43 65.5923 134.214 65.7256 134.05 65.95C133.881 66.1745 133.814 66.4245 133.85 66.7C133.893 66.9694 134.026 67.1861 134.25 67.35L140.65 72.15C140.875 72.3189 141.125 72.3855 141.4 72.35C141.67 72.3077 141.886 72.1743 142.05 71.95C142.219 71.7255 142.286 71.4755 142.25 71.2ZM121.05 57.1C121.093 57.3694 121.226 57.5861 121.45 57.75L127.85 62.55C128.075 62.7189 128.325 62.7855 128.6 62.75C128.87 62.7077 129.086 62.5743 129.25 62.35C129.419 62.1255 129.486 61.8755 129.45 61.6C129.407 61.3306 129.274 61.1139 129.05 60.95L122.65 56.15C122.425 55.981 122.175 55.9143 121.9 55.95C121.63 55.9923 121.414 56.1256 121.25 56.35C121.081 56.5745 121.014 56.8245 121.05 57.1ZM108.25 47.5C108.293 47.7694 108.426 47.9861 108.65 48.15L115.05 52.95C115.275 53.1189 115.525 53.1855 115.8 53.15C116.07 53.1077 116.286 52.9743 116.45 52.75C116.619 52.5255 116.686 52.2755 116.65 52C116.607 51.7306 116.474 51.5139 116.25 51.35L109.85 46.55C109.625 46.381 109.375 46.3143 109.1 46.35C108.83 46.3923 108.614 46.5256 108.45 46.75C108.281 46.9745 108.214 47.2245 108.25 47.5ZM193.45 109.95C193.407 109.689 193.274 109.473 193.05 109.3L186.65 104.4C186.434 104.231 186.184 104.164 185.9 104.2C185.639 104.242 185.423 104.375 185.25 104.6C185.081 104.815 185.014 105.048 185.05 105.3C185.092 105.594 185.226 105.827 185.45 106L191.85 110.9C192.066 111.069 192.299 111.136 192.55 111.1C192.844 111.058 193.077 110.925 193.25 110.7C193.419 110.485 193.486 110.235 193.45 109.95ZM223.3 134.4C223.342 134.693 223.476 134.927 223.7 135.1L229 139.2C229.216 139.369 229.449 139.436 229.7 139.4C229.994 139.358 230.227 139.225 230.4 139C230.569 138.785 230.636 138.535 230.6 138.25C230.558 137.99 230.424 137.773 230.2 137.6L224.9 133.5C224.685 133.331 224.435 133.264 224.15 133.3C223.89 133.342 223.673 133.475 223.5 133.7C223.331 133.915 223.264 134.148 223.3 134.4ZM210.6 124.7C210.633 124.993 210.75 125.226 210.95 125.4L217.25 130.3C217.49 130.468 217.74 130.535 218 130.5C218.293 130.467 218.527 130.334 218.7 130.1C218.869 129.894 218.935 129.644 218.9 129.35C218.867 129.09 218.733 128.874 218.5 128.7L212.2 123.8C211.994 123.632 211.744 123.565 211.45 123.6C211.19 123.633 210.973 123.75 210.8 123.95C210.631 124.189 210.565 124.439 210.6 124.7ZM206.2 119.65C206.167 119.39 206.033 119.174 205.8 119L199.45 114.1C199.244 113.932 198.994 113.865 198.7 113.9C198.44 113.933 198.223 114.05 198.05 114.25C197.881 114.489 197.815 114.739 197.85 115C197.883 115.293 198 115.526 198.2 115.7L204.55 120.6C204.79 120.768 205.04 120.835 205.3 120.8C205.593 120.767 205.827 120.634 206 120.4C206.169 120.194 206.235 119.944 206.2 119.65ZM172.25 95.5C172.292 95.7937 172.426 96.0271 172.65 96.2L179.05 101.1C179.266 101.269 179.499 101.336 179.75 101.3C180.044 101.258 180.277 101.125 180.45 100.9C180.619 100.685 180.686 100.435 180.65 100.15C180.607 99.8895 180.474 99.6728 180.25 99.5L173.85 94.6C173.634 94.431 173.384 94.3643 173.1 94.4C172.839 94.4418 172.623 94.5751 172.45 94.8C172.281 95.0151 172.214 95.2484 172.25 95.5ZM167.85 90.45C167.807 90.1806 167.674 89.9639 167.45 89.8L161.05 84.95C160.825 84.781 160.575 84.7143 160.3 84.75C160.03 84.7923 159.814 84.9256 159.65 85.15C159.481 85.3745 159.414 85.6245 159.45 85.9C159.493 86.1694 159.626 86.3861 159.85 86.55L166.25 91.4C166.475 91.5689 166.725 91.6355 167 91.6C167.27 91.5577 167.486 91.4243 167.65 91.2C167.819 90.9755 167.886 90.7255 167.85 90.45Z" fill="#1C2A4A"/>
<path d="M176.9 329.05C177.128 328.901 177.261 328.684 177.3 328.4C177.379 328.14 177.346 327.89 177.2 327.65C177.051 327.422 176.835 327.272 176.55 327.2C176.291 327.154 176.041 327.204 175.8 327.35L169.1 331.65C168.872 331.799 168.722 331.999 168.65 332.25C168.604 332.543 168.654 332.81 168.8 333.05C168.949 333.278 169.149 333.412 169.4 333.45C169.692 333.529 169.959 333.496 170.2 333.35L176.9 329.05ZM190.6 319C190.451 318.772 190.235 318.622 189.95 318.55C189.691 318.504 189.441 318.554 189.2 318.7L182.5 323C182.272 323.149 182.122 323.349 182.05 323.6C182.004 323.893 182.054 324.16 182.2 324.4C182.349 324.628 182.549 324.762 182.8 324.8C183.092 324.879 183.359 324.846 183.6 324.7L190.3 320.4C190.528 320.251 190.661 320.034 190.7 319.75C190.779 319.49 190.746 319.24 190.6 319ZM203.35 309.85C203.081 309.813 202.831 309.863 202.6 310L195.9 314.4C195.671 314.567 195.521 314.784 195.45 315.05C195.413 315.319 195.463 315.569 195.6 315.8C195.766 316.029 195.983 316.163 196.25 316.2C196.519 316.27 196.769 316.22 197 316.05L203.7 311.65C203.929 311.516 204.062 311.316 204.1 311.05C204.171 310.781 204.121 310.531 203.95 310.3C203.817 310.071 203.617 309.921 203.35 309.85ZM216.75 301.15C216.481 301.113 216.231 301.163 216 301.3L209.3 305.7C209.071 305.867 208.921 306.084 208.85 306.35C208.813 306.619 208.863 306.869 209 307.1C209.166 307.329 209.383 307.462 209.65 307.5C209.919 307.57 210.169 307.52 210.4 307.35L217.1 302.95C217.329 302.816 217.462 302.616 217.5 302.35C217.571 302.081 217.521 301.831 217.35 301.6C217.217 301.371 217.017 301.221 216.75 301.15ZM225.8 295.35C225.532 295.305 225.282 295.355 225.05 295.5L222.75 297C222.521 297.158 222.372 297.375 222.3 297.65C222.263 297.919 222.313 298.169 222.45 298.4C222.616 298.629 222.833 298.762 223.1 298.8C223.369 298.879 223.619 298.845 223.85 298.7L226.15 297.2C226.379 297.042 226.512 296.825 226.55 296.55C226.621 296.281 226.571 296.031 226.4 295.8C226.267 295.571 226.067 295.421 225.8 295.35ZM136.35 353C136.091 352.954 135.841 353.004 135.6 353.15L128.9 357.45C128.672 357.599 128.522 357.799 128.45 358.05C128.404 358.343 128.454 358.61 128.6 358.85C128.749 359.078 128.949 359.212 129.2 359.25C129.492 359.329 129.759 359.296 130 359.15L136.7 354.85C136.928 354.701 137.061 354.485 137.1 354.2C137.179 353.94 137.146 353.69 137 353.45C136.851 353.222 136.635 353.072 136.35 353ZM96.8 379.25C96.6513 379.022 96.4346 378.872 96.15 378.8C95.891 378.754 95.641 378.804 95.4 378.95L88.7 383.25C88.4723 383.399 88.3223 383.599 88.25 383.85C88.2039 384.143 88.2539 384.41 88.4 384.65C88.5487 384.878 88.7487 385.012 89 385.05C89.2923 385.129 89.559 385.096 89.8 384.95L96.5 380.65C96.7276 380.501 96.861 380.284 96.9 380C96.9793 379.74 96.946 379.49 96.8 379.25ZM110.2 370.65C110.051 370.422 109.835 370.272 109.55 370.2C109.291 370.154 109.041 370.204 108.8 370.35L102.1 374.65C101.872 374.799 101.722 374.999 101.65 375.25C101.604 375.543 101.654 375.81 101.8 376.05C101.949 376.278 102.149 376.412 102.4 376.45C102.692 376.529 102.959 376.496 103.2 376.35L109.9 372.05C110.128 371.901 110.261 371.684 110.3 371.4C110.379 371.14 110.346 370.89 110.2 370.65ZM115.5 366.05C115.272 366.199 115.122 366.399 115.05 366.65C115.004 366.943 115.054 367.21 115.2 367.45C115.349 367.678 115.549 367.812 115.8 367.85C116.092 367.929 116.359 367.896 116.6 367.75L123.3 363.45C123.528 363.301 123.661 363.084 123.7 362.8C123.779 362.54 123.746 362.29 123.6 362.05C123.451 361.822 123.235 361.672 122.95 361.6C122.691 361.554 122.441 361.604 122.2 361.75L115.5 366.05ZM156 342.05C156.292 342.129 156.559 342.096 156.8 341.95L163.5 337.65C163.728 337.501 163.861 337.284 163.9 337C163.979 336.74 163.946 336.49 163.8 336.25C163.651 336.022 163.435 335.872 163.15 335.8C162.891 335.754 162.641 335.804 162.4 335.95L155.7 340.25C155.472 340.399 155.322 340.599 155.25 340.85C155.204 341.143 155.254 341.41 155.4 341.65C155.549 341.878 155.749 342.012 156 342.05ZM149.75 344.4C149.491 344.354 149.241 344.404 149 344.55L142.3 348.85C142.072 348.999 141.922 349.199 141.85 349.45C141.804 349.743 141.854 350.01 142 350.25C142.149 350.478 142.349 350.612 142.6 350.65C142.892 350.729 143.159 350.696 143.4 350.55L150.1 346.25C150.328 346.101 150.461 345.885 150.5 345.6C150.579 345.34 150.546 345.09 150.4 344.85C150.251 344.622 150.035 344.472 149.75 344.4Z" fill="#1C2A4A"/>
<path d="M308.75 143.8C308.476 143.802 308.243 143.902 308.05 144.1C307.852 144.293 307.752 144.526 307.75 144.8C307.752 145.074 307.852 145.307 308.05 145.5C308.243 145.698 308.476 145.798 308.75 145.8H316.75C317.024 145.798 317.257 145.698 317.45 145.5C317.648 145.307 317.748 145.074 317.75 144.8C317.748 144.526 317.648 144.293 317.45 144.1C317.257 143.902 317.024 143.802 316.75 143.8H308.75ZM292.75 143.8C292.476 143.802 292.243 143.902 292.05 144.1C291.852 144.293 291.752 144.526 291.75 144.8C291.752 145.074 291.852 145.307 292.05 145.5C292.243 145.698 292.476 145.798 292.75 145.8H300.75C301.024 145.798 301.257 145.698 301.45 145.5C301.648 145.307 301.748 145.074 301.75 144.8C301.748 144.526 301.648 144.293 301.45 144.1C301.257 143.902 301.024 143.802 300.75 143.8H292.75ZM361 203.15C360.802 203.343 360.702 203.576 360.7 203.85V211.85C360.702 212.124 360.802 212.357 361 212.55C361.193 212.748 361.426 212.848 361.7 212.85C361.974 212.848 362.207 212.748 362.4 212.55C362.598 212.357 362.698 212.124 362.7 211.85V203.85C362.698 203.576 362.598 203.343 362.4 203.15C362.207 202.952 361.974 202.852 361.7 202.85C361.426 202.852 361.193 202.952 361 203.15ZM361.7 186.85C361.426 186.852 361.193 186.952 361 187.15C360.802 187.343 360.702 187.576 360.7 187.85V195.85C360.702 196.124 360.802 196.357 361 196.55C361.193 196.748 361.426 196.848 361.7 196.85C361.974 196.848 362.207 196.748 362.4 196.55C362.598 196.357 362.698 196.124 362.7 195.85V187.85C362.698 187.576 362.598 187.343 362.4 187.15C362.207 186.952 361.974 186.852 361.7 186.85ZM361.7 170.85C361.426 170.852 361.193 170.952 361 171.15C360.802 171.343 360.702 171.576 360.7 171.85V179.85C360.702 180.124 360.802 180.357 361 180.55C361.193 180.748 361.426 180.848 361.7 180.85C361.974 180.848 362.207 180.748 362.4 180.55C362.598 180.357 362.698 180.124 362.7 179.85V171.85C362.698 171.576 362.598 171.343 362.4 171.15C362.207 170.952 361.974 170.852 361.7 170.85ZM362.7 155.85C362.698 155.576 362.598 155.343 362.4 155.15C362.207 154.952 361.974 154.852 361.7 154.85C361.426 154.852 361.193 154.952 361 155.15C360.802 155.343 360.702 155.576 360.7 155.85V163.85C360.702 164.124 360.802 164.357 361 164.55C361.193 164.748 361.426 164.848 361.7 164.85C361.974 164.848 362.207 164.748 362.4 164.55C362.598 164.357 362.698 164.124 362.7 163.85V155.85ZM356.75 143.8C356.476 143.802 356.243 143.902 356.05 144.1C355.852 144.293 355.752 144.526 355.75 144.8C355.752 145.074 355.852 145.307 356.05 145.5C356.243 145.698 356.476 145.798 356.75 145.8H360.7V147.85C360.702 148.124 360.802 148.357 361 148.55C361.193 148.748 361.426 148.848 361.7 148.85C361.974 148.848 362.207 148.748 362.4 148.55C362.598 148.357 362.698 148.124 362.7 147.85V144.8C362.698 144.526 362.598 144.293 362.4 144.1C362.207 143.902 361.974 143.802 361.7 143.8H356.75ZM339.75 144.8C339.752 145.074 339.852 145.307 340.05 145.5C340.243 145.698 340.476 145.798 340.75 145.8H348.75C349.024 145.798 349.257 145.698 349.45 145.5C349.648 145.307 349.748 145.074 349.75 144.8C349.748 144.526 349.648 144.293 349.45 144.1C349.257 143.902 349.024 143.802 348.75 143.8H340.75C340.476 143.802 340.243 143.902 340.05 144.1C339.852 144.293 339.752 144.526 339.75 144.8ZM333.45 145.5C333.648 145.307 333.748 145.074 333.75 144.8C333.748 144.526 333.648 144.293 333.45 144.1C333.257 143.902 333.024 143.802 332.75 143.8H324.75C324.476 143.802 324.243 143.902 324.05 144.1C323.852 144.293 323.752 144.526 323.75 144.8C323.752 145.074 323.852 145.307 324.05 145.5C324.243 145.698 324.476 145.798 324.75 145.8H332.75C333.024 145.798 333.257 145.698 333.45 145.5Z" fill="#1C2A4A"/>
<path d="M59.1 108.15C58.5 108.583 58.1 109.133 57.9 109.8H105.25C105.017 109.1 104.6 108.55 104 108.15C103.3 107.65 102.417 107.4 101.35 107.4H94.1C92.8667 107.4 91.7667 107.117 90.8 106.55C89.8333 105.983 89.2167 105.267 88.95 104.4C88.75 103.667 88.4333 102.233 88 100.1L87.45 97.15H75.65L75.1 100.1C74.6667 102.233 74.35 103.667 74.15 104.4C73.9167 105.267 73.3167 105.983 72.35 106.55C71.3833 107.117 70.2833 107.4 69.05 107.4H61.75C60.6833 107.4 59.8 107.65 59.1 108.15Z" fill="#111417"/>
<path d="M134.6 28.95C134.6 27.95 134.25 27.1 133.55 26.4C132.817 25.6667 131.95 25.3 130.95 25.3H32.15C31.15 25.3 30.3 25.6667 29.6 26.4C28.9 27.1 28.55 27.95 28.55 28.95V95.6C28.55 96.5667 28.9 97.4167 29.6 98.15C30.3 98.85 31.15 99.2 32.15 99.2H130.95C131.95 99.2 132.817 98.85 133.55 98.15C134.25 97.4167 134.6 96.5667 134.6 95.6V28.95Z" fill="#111417"/>
<path d="M132.8 27.1C132.3 26.6 131.683 26.35 130.95 26.35H32.15C31.45 26.35 30.85 26.6 30.35 27.1C29.85 27.6 29.6 28.2167 29.6 28.95V95.6C29.6 96.3 29.85 96.9 30.35 97.4C30.85 97.9 31.45 98.15 32.15 98.15H130.95C131.683 98.15 132.3 97.9 132.8 97.4C133.3 96.9 133.55 96.3 133.55 95.6V28.95C133.55 28.2167 133.3 27.6 132.8 27.1Z" fill="#464F5B"/>
<path d="M133.2 28.95C133.2 28.3167 132.983 27.7833 132.55 27.35C132.117 26.9167 131.583 26.7 130.95 26.7H32.15C31.55 26.7 31.0334 26.9167 30.6 27.35C30.1334 27.7833 29.9 28.3167 29.9 28.95V95.6C29.9 96.2 30.1334 96.7167 30.6 97.15C31.0334 97.5833 31.55 97.8 32.15 97.8H130.95C131.583 97.8 132.117 97.5833 132.55 97.15C132.983 96.7167 133.2 96.2 133.2 95.6V28.95Z" fill="#222730"/>
<path d="M130.6 88.6V29.3H32.55V88.6H130.6Z" fill="#E1251C"/>
<path d="M130.6 38.15V29.3H32.55V82.95L130.6 38.15Z" fill="#E1251C"/>
<path d="M126.9 92.05C126.533 91.6833 126.083 91.5 125.55 91.5C124.983 91.5 124.517 91.6833 124.15 92.05C123.75 92.45 123.55 92.9167 123.55 93.45C123.55 94.0167 123.75 94.4833 124.15 94.85C124.55 95.25 125.017 95.45 125.55 95.45C126.083 95.45 126.533 95.25 126.9 94.85C127.3 94.45 127.5 93.9833 127.5 93.45C127.5 92.9167 127.3 92.45 126.9 92.05Z" fill="#111417"/>
<path d="M126.35 92.65C126.117 92.4167 125.85 92.3 125.55 92.3C125.217 92.3 124.95 92.4167 124.75 92.65C124.517 92.85 124.4 93.1167 124.4 93.45C124.4 93.7833 124.517 94.05 124.75 94.25C124.95 94.4833 125.217 94.6 125.55 94.6C125.85 94.6 126.117 94.4833 126.35 94.25C126.55 94.05 126.65 93.7833 126.65 93.45C126.65 93.1167 126.55 92.85 126.35 92.65Z" fill="#222730"/>
<path d="M104 430C103.3 429.5 102.417 429.25 101.35 429.25H94.1C92.8667 429.25 91.7667 428.967 90.8 428.4C89.8333 427.833 89.2167 427.117 88.95 426.25C88.75 425.517 88.4333 424.083 88 421.95L87.45 419H75.65L75.1 421.95C74.6667 424.083 74.35 425.517 74.15 426.25C73.9167 427.117 73.3167 427.833 72.35 428.4C71.3833 428.967 70.2833 429.25 69.05 429.25H61.75C60.6833 429.25 59.8 429.5 59.1 430C58.5 430.433 58.1 430.983 57.9 431.65H105.25C105.017 430.95 104.6 430.4 104 430Z" fill="#111417"/>
<path d="M32.15 347.15C31.15 347.15 30.3 347.517 29.6 348.25C28.9 348.95 28.55 349.8 28.55 350.8V417.45C28.55 418.45 28.9 419.3 29.6 420C30.3 420.7 31.15 421.05 32.15 421.05H130.95C131.95 421.05 132.817 420.7 133.55 420C134.25 419.3 134.6 418.45 134.6 417.45V350.8C134.6 349.8 134.25 348.95 133.55 348.25C132.817 347.517 131.95 347.15 130.95 347.15H32.15Z" fill="#111417"/>
<path d="M30.35 348.95C29.85 349.45 29.6 350.067 29.6 350.8V417.45C29.6 418.15 29.85 418.75 30.35 419.25C30.85 419.75 31.45 420 32.15 420H130.95C131.683 420 132.3 419.75 132.8 419.25C133.3 418.75 133.55 418.15 133.55 417.45V350.8C133.55 350.067 133.3 349.45 132.8 348.95C132.3 348.45 131.683 348.2 130.95 348.2H32.15C31.45 348.2 30.85 348.45 30.35 348.95Z" fill="#464F5B"/>
<path d="M32.15 348.55C31.55 348.55 31.0334 348.767 30.6 349.2C30.1334 349.633 29.9 350.167 29.9 350.8V417.45C29.9 418.05 30.1334 418.583 30.6 419.05C31.0334 419.483 31.55 419.7 32.15 419.7H130.95C131.583 419.7 132.117 419.483 132.55 419.05C132.983 418.583 133.2 418.05 133.2 417.45V350.8C133.2 350.167 132.983 349.633 132.55 349.2C132.117 348.767 131.583 348.55 130.95 348.55H32.15Z" fill="#222730"/>
<path d="M130.6 351.15H32.55V410.45H130.6V351.15Z" fill="#E1251C"/>
<path d="M130.6 360V351.15H32.55V404.8L130.6 360Z" fill="#E1251C"/>
<path d="M126.9 413.9C126.533 413.533 126.083 413.35 125.55 413.35C124.983 413.35 124.517 413.533 124.15 413.9C123.75 414.3 123.55 414.767 123.55 415.3C123.55 415.867 123.75 416.333 124.15 416.7C124.55 417.1 125.017 417.3 125.55 417.3C126.083 417.3 126.533 417.1 126.9 416.7C127.3 416.3 127.5 415.833 127.5 415.3C127.5 414.767 127.3 414.3 126.9 413.9Z" fill="#111417"/>
<path d="M126.35 414.5C126.117 414.267 125.85 414.15 125.55 414.15C125.217 414.15 124.95 414.267 124.75 414.5C124.517 414.733 124.4 415 124.4 415.3C124.4 415.633 124.517 415.9 124.75 416.1C124.95 416.333 125.217 416.45 125.55 416.45C125.85 416.45 126.117 416.333 126.35 416.1C126.55 415.9 126.65 415.633 126.65 415.3C126.65 415 126.55 414.733 126.35 414.5Z" fill="#222730"/>
<path d="M229.5 324.65C227.4 324.65 226.1 325.433 225.6 327H272.95C272.75 326.333 272.35 325.783 271.75 325.35C271.05 324.883 270.167 324.65 269.1 324.65H261.8C260.567 324.65 259.467 324.367 258.5 323.8C257.533 323.233 256.917 322.517 256.65 321.65C256.45 320.917 256.133 319.483 255.7 317.35L255.15 314.35H243.4L242.85 317.35C242.417 319.483 242.1 320.917 241.9 321.65C241.667 322.517 241.067 323.233 240.1 323.8C239.133 324.367 238.017 324.65 236.75 324.65H229.5Z" fill="#111417"/>
<path d="M302.3 246.15C302.3 245.15 301.95 244.3 301.25 243.6C300.55 242.9 299.7 242.55 298.7 242.55H199.9C198.9 242.55 198.05 242.9 197.35 243.6C196.617 244.3 196.25 245.15 196.25 246.15V312.8C196.25 313.8 196.617 314.667 197.35 315.4C198.05 316.1 198.9 316.45 199.9 316.45H298.7C299.7 316.45 300.55 316.1 301.25 315.4C301.95 314.667 302.3 313.8 302.3 312.8V246.15Z" fill="#111417"/>
<path d="M300.5 244.35C300 243.817 299.4 243.55 298.7 243.55H199.9C199.167 243.55 198.55 243.817 198.05 244.35C197.55 244.85 197.3 245.45 197.3 246.15V312.8C197.3 313.533 197.55 314.15 198.05 314.65C198.55 315.15 199.167 315.4 199.9 315.4H298.7C299.4 315.4 300 315.15 300.5 314.65C301 314.15 301.25 313.533 301.25 312.8V246.15C301.25 245.45 301 244.85 300.5 244.35Z" fill="#464F5B"/>
<path d="M300.9 246.15C300.9 245.517 300.683 244.983 300.25 244.55C299.817 244.117 299.3 243.9 298.7 243.9H199.9C199.267 243.9 198.733 244.117 198.3 244.55C197.867 244.983 197.65 245.517 197.65 246.15V312.8C197.65 313.433 197.867 313.967 198.3 314.4C198.733 314.833 199.267 315.05 199.9 315.05H298.7C299.3 315.05 299.817 314.833 300.25 314.4C300.683 313.967 300.9 313.433 300.9 312.8V246.15Z" fill="#222730"/>
<path d="M298.3 246.55H200.25V305.8H298.3V246.55Z" fill="#E1251C"/>
<path d="M298.3 255.35V246.55H200.25V300.2L298.3 255.35Z" fill="#E1251C"/>
<path d="M294.65 309.3C294.25 308.9 293.783 308.7 293.25 308.7C292.717 308.7 292.25 308.9 291.85 309.3C291.45 309.7 291.25 310.167 291.25 310.7C291.25 311.233 291.45 311.683 291.85 312.05C292.25 312.45 292.717 312.65 293.25 312.65C293.783 312.65 294.25 312.45 294.65 312.05C295.017 311.683 295.2 311.233 295.2 310.7C295.2 310.133 295.017 309.667 294.65 309.3Z" fill="#111417"/>
<path d="M294.05 309.9C293.85 309.667 293.583 309.55 293.25 309.55C292.917 309.55 292.65 309.667 292.45 309.9C292.217 310.1 292.1 310.367 292.1 310.7C292.1 311 292.217 311.267 292.45 311.5C292.65 311.7 292.917 311.8 293.25 311.8C293.583 311.8 293.85 311.7 294.05 311.5C294.283 311.267 294.4 311 294.4 310.7C294.4 310.367 294.283 310.1 294.05 309.9Z" fill="#222730"/>
<path d="M226.85 194C226.25 194.4 225.833 194.95 225.6 195.65H272.95C272.75 194.983 272.35 194.433 271.75 194C271.05 193.5 270.167 193.25 269.1 193.25H261.8C260.567 193.25 259.467 192.967 258.5 192.4C257.533 191.833 256.917 191.117 256.65 190.25L255.15 183H243.4L242.85 185.95C242.417 188.083 242.1 189.517 241.9 190.25C241.667 191.117 241.067 191.833 240.1 192.4C239.133 192.967 238.017 193.25 236.75 193.25H229.5C228.433 193.25 227.55 193.5 226.85 194Z" fill="#111417"/>
<path d="M199.9 111.15C198.9 111.15 198.05 111.517 197.35 112.25C196.617 112.95 196.25 113.8 196.25 114.8V181.45C196.25 182.417 196.617 183.267 197.35 184C198.05 184.7 198.9 185.05 199.9 185.05H298.7C299.7 185.05 300.55 184.7 301.25 184C301.95 183.267 302.3 182.417 302.3 181.45V114.8C302.3 113.8 301.95 112.95 301.25 112.25C300.55 111.517 299.7 111.15 298.7 111.15H199.9Z" fill="#111417"/>
<path d="M198.05 112.95C197.55 113.45 197.3 114.067 197.3 114.8V181.45C197.3 182.15 197.55 182.75 198.05 183.25C198.55 183.75 199.167 184 199.9 184H298.7C299.4 184 300 183.75 300.5 183.25C301 182.75 301.25 182.15 301.25 181.45V114.8C301.25 114.067 301 113.45 300.5 112.95C300 112.45 299.4 112.2 298.7 112.2H199.9C199.167 112.2 198.55 112.45 198.05 112.95Z" fill="#464F5B"/>
<path d="M199.9 112.55C199.267 112.55 198.733 112.767 198.3 113.2C197.867 113.633 197.65 114.167 197.65 114.8V181.45C197.65 182.05 197.867 182.567 198.3 183C198.733 183.433 199.267 183.65 199.9 183.65H298.7C299.3 183.65 299.817 183.433 300.25 183C300.683 182.567 300.9 182.05 300.9 181.45V114.8C300.9 114.167 300.683 113.633 300.25 113.2C299.817 112.767 299.3 112.55 298.7 112.55H199.9Z" fill="#222730"/>
<path d="M200.25 115.15V174.45H298.3V115.15H200.25Z" fill="#E1251C"/>
<path d="M200.25 115.15V168.8L298.3 124V115.15H200.25Z" fill="#E1251C"/>
<path d="M294.65 177.9C294.25 177.5 293.783 177.3 293.25 177.3C292.717 177.3 292.25 177.5 291.85 177.9C291.45 178.3 291.25 178.767 291.25 179.3C291.25 179.867 291.45 180.333 291.85 180.7C292.25 181.1 292.717 181.3 293.25 181.3C293.783 181.3 294.25 181.1 294.65 180.7C295.017 180.333 295.2 179.867 295.2 179.3C295.2 178.733 295.017 178.267 294.65 177.9Z" fill="#111417"/>
<path d="M294.05 178.5C293.85 178.267 293.583 178.15 293.25 178.15C292.917 178.15 292.65 178.267 292.45 178.5C292.217 178.7 292.1 178.967 292.1 179.3C292.1 179.633 292.217 179.9 292.45 180.1C292.65 180.333 292.917 180.45 293.25 180.45C293.583 180.45 293.85 180.333 294.05 180.1C294.283 179.9 294.4 179.633 294.4 179.3C294.4 178.967 294.283 178.7 294.05 178.5Z" fill="#222730"/>
<path d="M676.5 89.05C670.9 89.05 665.767 90.6 661.1 93.7C656.5 96.7667 653.117 100.867 650.95 106C648.883 104.1 646.55 102.633 643.95 101.6C641.317 100.533 638.6 100 635.8 100C630.033 100 625.017 102 620.75 106C616.517 109.933 614.167 114.767 613.7 120.5C612.9 120.4 612.067 120.35 611.2 120.35C605.533 120.35 600.667 122.367 596.6 126.4C592.567 130.433 590.55 135.3 590.55 141C590.55 146.7 592.55 151.567 596.55 155.6C600.55 159.633 605.367 161.65 611 161.65H701.65C706.983 161.65 711.667 159.583 715.7 155.45C719.7 151.317 721.7 146.5 721.7 141C721.7 135.833 720 131.3 716.6 127.4C713.2 123.533 708.95 121.25 703.85 120.55C704.05 119.25 704.15 117.967 704.15 116.7C704.15 109.067 701.45 102.55 696.05 97.15C690.65 91.75 684.133 89.05 676.5 89.05Z" fill="#0FB9E8"/>
<path d="M724.15 125.85C724.15 118.117 721.4 111.5 715.9 106C710.433 100.5 703.817 97.75 696.05 97.75C690.35 97.75 685.133 99.3333 680.4 102.5C675.7 105.633 672.267 109.8 670.1 115C668.033 113.067 665.667 111.567 663 110.5C660.333 109.433 657.567 108.9 654.7 108.9C648.8 108.9 643.683 110.917 639.35 114.95C635.05 118.983 632.667 123.917 632.2 129.75C631.367 129.65 630.533 129.6 629.7 129.6C623.9 129.6 618.95 131.65 614.85 135.75C610.75 139.85 608.7 144.8 608.7 150.6C608.7 156.367 610.733 161.317 614.8 165.45C618.833 169.55 623.717 171.6 629.45 171.6L721.65 171.55C727.083 171.55 731.833 169.45 735.9 165.25C740 161.05 742.05 156.167 742.05 150.6C742.05 145.333 740.3 140.717 736.8 136.75C733.333 132.817 729.033 130.5 723.9 129.8C724.067 128.367 724.15 127.05 724.15 125.85Z" fill="#1C2A4A"/>
<text fill="white" xml:space="preserve" style="white-space: pre" font-family="Roboto" font-size="17.4" letter-spacing="0em"><tspan x="632.4" y="153.247">INTERNET</tspan></text>
<path d="M433.95 233.5L423.45 235.4V244.6L433.95 243.55V233.5Z" fill="#F7AA1E"/>
<path d="M505.1 279.85V271.3L494.6 272.3V281.9L505.1 279.85Z" fill="#FFCB03"/>
<path d="M505.1 247.2L494.6 246.15V256.65H505.1V247.2Z" fill="#EA921E"/>
<path d="M480.3 230.9V242.2L505.1 244.6V235.4L480.3 230.9Z" fill="#FFCB03"/>
<path d="M464.25 275.25L450.75 273.95V285.2L464.25 287.9L492.1 282.4V272.55L464.25 275.25Z" fill="#EA921E"/>
<path d="M423.45 271.3V279.85L448.25 284.7V273.7L423.45 271.3Z" fill="#FFCB03"/>
<path d="M464.25 240.65L477.8 241.95V230.45L464.25 228L436.45 233.05V243.35L464.25 240.65Z" fill="#EA921E"/>
<path d="M433.95 269.7V259.25H423.45V268.7L433.95 269.7Z" fill="#EA921E"/>
<path d="M448.25 244.8L423.45 247.2V256.65H448.25V244.8Z" fill="#FFCB03"/>
<path d="M436.45 259.25V269.95L464.25 272.65L477.8 271.35V259.25H436.45Z" fill="#F7AA1E"/>
<path d="M464.25 243.25L450.75 244.55V256.65H492.1V245.95L464.25 243.25Z" fill="#F3BB07"/>
<path d="M480.3 259.25V271.1L505.1 268.7V259.25H480.3Z" fill="#F7AA1E"/>
<path d="M464.25 228V240.65L477.8 241.95V230.45L464.25 228Z" fill="#F7AA1E"/>
<path d="M464.25 243.25V256.65H492.1V245.95L464.25 243.25Z" fill="#FFCB03"/>
<path d="M464.25 259.25V272.65L477.8 271.35V259.25H464.25Z" fill="#EA921E"/>
<path d="M464.25 275.25V287.9L492.1 282.4V272.55L464.25 275.25Z" fill="#F7AA1E"/>
<path d="M464.25 181.85L423.45 196.2V232.75L464.05 224.8L505.1 232.75V194.35L464.25 181.85Z" fill="#04ADD3"/>
<path d="M464.25 181.85L464.05 224.8L505.1 232.75V194.35L464.25 181.85Z" fill="#0FB9E8"/>
<path d="M928.85 144.85L969.7 136.55L928.65 129.8L888.05 136.55L928.85 144.85Z" fill="#6DC8EE"/>
<path d="M888.05 136.55V173.1L928.85 183.6L969.7 174.95V136.55L928.65 144.5L888.05 136.55Z" fill="#04ADD3"/>
<path d="M928.65 144.5L928.85 183.6L969.7 174.95V136.55L928.65 144.5Z" fill="#0FB9E8"/>
<path d="M788.65 242.9H792.2C792.467 242.9 792.7 242.8 792.9 242.6C793.1 242.4 793.2 242.167 793.2 241.9V236.1C793.2 235.833 793.1 235.6 792.9 235.4C792.7 235.2 792.467 235.1 792.2 235.1H751.75C751.483 235.1 751.25 235.2 751.05 235.4C750.85 235.6 750.75 235.833 750.75 236.1V241.9C750.75 242.167 750.85 242.4 751.05 242.6C751.25 242.8 751.483 242.9 751.75 242.9H755.25V270.15C755.25 270.417 755.35 270.65 755.55 270.85C755.75 271.05 755.983 271.15 756.25 271.15H787.65C787.917 271.15 788.15 271.05 788.35 270.85C788.55 270.65 788.65 270.417 788.65 270.15V242.9Z" fill="#EA921E"/>
<path d="M792.75 221.65C792.117 221.55 791.55 221.7 791.05 222.1C790.517 222.467 790.2 222.967 790.1 223.6C790.033 224.133 790.133 224.65 790.4 225.15C790.7 225.617 791.1 225.95 791.6 226.15L810.8 231.15C812.167 231.65 813.433 231.383 814.6 230.35L814.85 230.05L818.1 226.95L818.6 238.75L803.85 239.3C803.017 239.367 802.167 239.517 801.3 239.75C800.267 240.15 799.45 240.55 798.85 240.95C798.05 241.483 797.317 242.15 796.65 242.95C795.95 243.817 795.45 244.8 795.15 245.9L794.9 246.8L794.8 247.7L795.4 264.55C795.467 266.017 796.033 267.25 797.1 268.25C798.167 269.283 799.433 269.767 800.9 269.7C802.3 269.667 803.483 269.133 804.45 268.1C805.45 267.133 805.983 265.95 806.05 264.55L806.5 251.6L822.1 252.2C823 252.2 823.9 252.1 824.8 251.9C825.633 251.7 826.533 251.367 827.5 250.9C828.5 250.3 829.333 249.65 830 248.95C830.833 248.117 831.5 247.1 832 245.9C832.267 245.233 832.45 244.6 832.55 244L833.7 219.05C833.8 216.85 833.1 214.933 831.6 213.3C830.1 211.667 828.25 210.8 826.05 210.7C823.75 210.6 821.783 211.367 820.15 213L810.4 222.4L792.75 221.65Z" fill="#2E3E50"/>
<path d="M818.25 189.3C816.517 191.033 815.65 193.133 815.65 195.6C815.65 198.067 816.517 200.167 818.25 201.9C820.017 203.633 822.117 204.5 824.55 204.5C827.017 204.5 829.133 203.633 830.9 201.9C832.633 200.167 833.5 198.067 833.5 195.6C833.5 193.133 832.633 191.033 830.9 189.3C829.133 187.567 827.017 186.7 824.55 186.7C822.083 186.7 819.983 187.567 818.25 189.3Z" fill="#2E3E50"/>
<path d="M809.35 263.05V269.95C809.35 270.85 809.667 271.617 810.3 272.25C810.933 272.883 811.683 273.2 812.55 273.2C813.45 273.2 814.217 272.883 814.85 272.25C815.483 271.617 815.8 270.85 815.8 269.95V263.05C815.8 262.517 815.983 262.067 816.35 261.7C816.75 261.3 817.217 261.1 817.75 261.1H828.65C832.717 261.1 836.2 259.667 839.1 256.8C841.967 253.933 843.4 250.467 843.4 246.4V223.4C843.4 222.5 843.083 221.733 842.45 221.1C841.817 220.467 841.05 220.15 840.15 220.15C839.25 220.15 838.5 220.467 837.9 221.1C837.267 221.733 836.95 222.5 836.95 223.4V246.4C836.95 248.667 836.133 250.617 834.5 252.25C832.867 253.85 830.917 254.65 828.65 254.65H817.75C815.417 254.65 813.433 255.483 811.8 257.15C810.167 258.783 809.35 260.75 809.35 263.05Z" fill="#EA921E"/>
<path d="M803.15 277.7C803.583 278.133 804.117 278.35 804.75 278.35C805.383 278.35 805.917 278.133 806.35 277.7C806.783 277.3 807 276.783 807 276.15C807 275.583 807.2 275.1 807.6 274.7C807.967 274.3 808.417 274.1 808.95 274.1H817.65C818.217 274.1 818.683 274.3 819.05 274.7C819.45 275.1 819.65 275.567 819.65 276.1C819.65 276.7 819.867 277.217 820.3 277.65C820.733 278.083 821.267 278.3 821.9 278.3C822.533 278.3 823.067 278.083 823.5 277.65C823.933 277.217 824.15 276.7 824.15 276.1C824.15 274.3 823.517 272.767 822.25 271.5C820.983 270.233 819.45 269.6 817.65 269.6H808.95C807.183 269.6 805.667 270.233 804.4 271.5C803.133 272.767 802.5 274.3 802.5 276.1C802.5 276.7 802.717 277.233 803.15 277.7Z" fill="#EA921E"/>
<path d="M782.1 210.45C782.033 210.183 781.867 210.05 781.6 210.05H759.75C759.583 210.05 759.467 210.117 759.4 210.25C759.3 210.383 759.267 210.517 759.3 210.65L763.1 226.8C763.167 227.033 763.317 227.15 763.55 227.15L785.3 227.5C785.7 227.5 785.867 227.317 785.8 226.95L782.1 210.45Z" fill="#0FB9E8"/>
<path d="M788.8 229.3C788.867 228.967 788.717 228.8 788.35 228.8H763.9C763.6 228.8 763.45 228.95 763.45 229.25V231.4C763.45 231.733 763.6 231.9 763.9 231.9H788.25C788.55 231.9 788.7 231.75 788.7 231.45L788.8 229.3Z" fill="#0FB9E8"/>
<path d="M229 145.6L229.35 148.2L227.15 149.55C226.783 149.817 226.55 150.167 226.45 150.6C226.317 151.033 226.367 151.433 226.6 151.8L227.5 153.2C227.733 153.567 228.067 153.8 228.5 153.9C228.933 154 229.333 153.933 229.7 153.7L232.2 152.15L232.3 152.1L259.6 165.1V165.2L260 168.1C260.067 168.533 260.267 168.9 260.6 169.2C260.933 169.467 261.333 169.567 261.8 169.5L263.45 169.3C263.883 169.233 264.233 169.017 264.5 168.65C264.8 168.283 264.917 167.883 264.85 167.45L264.5 164.9L266.7 163.5C267.067 163.267 267.317 162.933 267.45 162.5C267.55 162.067 267.483 161.667 267.25 161.3L266.35 159.9C266.117 159.533 265.783 159.3 265.35 159.2C264.917 159.067 264.517 159.117 264.15 159.35L261.65 160.9L261.55 161L234.25 148L234.2 147.9L233.85 145C233.817 144.567 233.617 144.217 233.25 143.95C232.883 143.683 232.483 143.567 232.05 143.6L230.4 143.8C229.967 143.867 229.617 144.067 229.35 144.4C229.083 144.767 228.967 145.167 229 145.6Z" fill="white"/>
<path d="M234.4 159.35C234.033 159.117 233.633 159.067 233.2 159.2C232.767 159.3 232.433 159.533 232.2 159.9L231.35 161.3C231.117 161.667 231.05 162.067 231.15 162.5C231.25 162.933 231.483 163.267 231.85 163.5L234.05 164.9L233.75 167.45C233.683 167.883 233.783 168.283 234.05 168.65C234.317 169.017 234.683 169.233 235.15 169.3L236.75 169.5C237.217 169.567 237.617 169.467 237.95 169.2C238.317 168.9 238.517 168.533 238.55 168.1L238.95 165.2V165.1L266.3 152.1L266.35 152.15L268.85 153.7C269.217 153.933 269.617 154 270.05 153.9C270.483 153.8 270.833 153.567 271.1 153.2L271.95 151.8C272.183 151.433 272.25 151.033 272.15 150.6C272.05 150.133 271.817 149.783 271.45 149.55L269.2 148.2L269.55 145.6C269.617 145.167 269.517 144.767 269.25 144.4C268.95 144.067 268.583 143.867 268.15 143.8L266.55 143.6C266.117 143.567 265.717 143.683 265.35 143.95C264.983 144.217 264.767 144.567 264.7 145L264.35 147.9V148L237 161L236.9 160.9L234.4 159.35Z" fill="white"/>
<path d="M239.4 124.35C238.1 125.55 237.1 126.983 236.4 128.65C235.667 130.25 235.3 132.017 235.3 133.95V142.9C235.3 143.333 235.45 143.683 235.75 143.95C236.017 144.25 236.367 144.4 236.8 144.4H239.65C240.25 144.4 240.767 144.617 241.2 145.05C241.6 145.483 241.8 146.017 241.8 146.65V148.5C241.8 148.9 241.95 149.25 242.25 149.55C242.517 149.817 242.867 149.95 243.3 149.95H255.3C255.7 149.95 256.05 149.817 256.35 149.55C256.617 149.25 256.75 148.9 256.75 148.5V146.65C256.75 146.017 256.967 145.483 257.4 145.05C257.833 144.617 258.333 144.4 258.9 144.4H261.8C262.2 144.4 262.55 144.25 262.85 143.95C263.117 143.683 263.25 143.333 263.25 142.9V133.95C263.25 132.017 262.883 130.25 262.15 128.65C261.45 126.983 260.45 125.55 259.15 124.35C257.883 123.083 256.417 122.117 254.75 121.45C253.017 120.75 251.217 120.4 249.35 120.4H249.25C247.35 120.4 245.55 120.75 243.85 121.45C242.25 122.05 240.767 123.017 239.4 124.35ZM239.5 135.75C239.5 134.65 239.9 133.717 240.7 132.95C241.467 132.15 242.4 131.75 243.5 131.75C244.6 131.75 245.533 132.15 246.3 132.95C247.067 133.717 247.45 134.65 247.45 135.75C247.45 136.85 247.067 137.8 246.3 138.6C245.533 139.367 244.6 139.75 243.5 139.75C242.4 139.75 241.467 139.367 240.7 138.6C239.9 137.8 239.5 136.85 239.5 135.75ZM255.1 131.75C256.2 131.75 257.133 132.15 257.9 132.95C258.667 133.717 259.05 134.65 259.05 135.75C259.05 136.85 258.667 137.8 257.9 138.6C257.133 139.367 256.2 139.75 255.1 139.75C254 139.75 253.067 139.367 252.3 138.6C251.5 137.8 251.1 136.85 251.1 135.75C251.1 134.65 251.5 133.717 252.3 132.95C253.067 132.15 254 131.75 255.1 131.75ZM249.3 140.25C249.4 140.25 249.517 140.317 249.65 140.45L251.15 144.45C251.217 144.617 251.183 144.75 251.05 144.85L250.8 144.95L250.65 144.9L249.3 144.3L247.9 144.9C247.733 144.967 247.6 144.95 247.5 144.85C247.4 144.75 247.367 144.617 247.4 144.45L248.95 140.45C249.017 140.317 249.133 140.25 249.3 140.25Z" fill="white"/>
<path d="M259.6 296.3V296.4L260 299.35C260.067 299.783 260.267 300.133 260.6 300.4C260.967 300.667 261.367 300.767 261.8 300.7L263.45 300.5C263.883 300.467 264.233 300.267 264.5 299.9C264.8 299.533 264.917 299.133 264.85 298.7L264.5 296.1L266.7 294.75C267.067 294.517 267.317 294.183 267.45 293.75C267.55 293.317 267.483 292.917 267.25 292.55L266.35 291.15C266.117 290.75 265.783 290.5 265.35 290.4C264.917 290.3 264.517 290.367 264.15 290.6L261.65 292.15L261.55 292.2L234.25 279.25L234.2 279.15L233.85 276.2C233.817 275.767 233.617 275.417 233.25 275.15C232.883 274.883 232.483 274.783 232.05 274.85L230.4 275.05C229.967 275.117 229.617 275.317 229.35 275.65C229.083 275.983 228.967 276.383 229 276.85L229.35 279.45L227.15 280.8C226.783 281.033 226.55 281.367 226.45 281.8C226.317 282.233 226.367 282.633 226.6 283L227.5 284.4C227.733 284.8 228.067 285.05 228.5 285.15C228.933 285.25 229.333 285.183 229.7 284.95L232.2 283.4L232.3 283.35L259.6 296.3Z" fill="white"/>
<path d="M269.55 276.85C269.617 276.383 269.517 275.983 269.25 275.65C268.95 275.317 268.583 275.117 268.15 275.05L266.55 274.85C266.117 274.783 265.717 274.883 265.35 275.15C264.983 275.417 264.767 275.767 264.7 276.2L264.35 279.15V279.25L237 292.2L236.9 292.15L234.4 290.6C234.033 290.367 233.633 290.3 233.2 290.4C232.767 290.5 232.433 290.75 232.2 291.15L231.35 292.55C231.117 292.917 231.05 293.317 231.15 293.75C231.25 294.183 231.483 294.517 231.85 294.75L234.05 296.1L233.75 298.7C233.683 299.133 233.783 299.533 234.05 299.9C234.317 300.267 234.683 300.467 235.15 300.5L236.75 300.7C237.183 300.767 237.583 300.667 237.95 300.4C238.317 300.133 238.517 299.783 238.55 299.35L238.95 296.4V296.3L266.3 283.35L266.35 283.4L268.85 284.95C269.217 285.183 269.617 285.25 270.05 285.15C270.517 285.05 270.867 284.8 271.1 284.4L271.95 283C272.183 282.633 272.25 282.233 272.15 281.8C272.05 281.367 271.817 281.033 271.45 280.8L269.2 279.45L269.55 276.85Z" fill="white"/>
<path d="M259.15 255.55C257.95 254.35 256.483 253.383 254.75 252.65C253.017 251.95 251.217 251.6 249.35 251.6H249.25C247.35 251.6 245.55 251.95 243.85 252.65C242.183 253.35 240.7 254.317 239.4 255.55C238.1 256.783 237.1 258.217 236.4 259.85C235.667 261.517 235.3 263.283 235.3 265.15V274.15C235.3 274.55 235.45 274.9 235.75 275.2C236.017 275.5 236.367 275.65 236.8 275.65H239.65C240.25 275.65 240.767 275.867 241.2 276.3C241.6 276.733 241.8 277.267 241.8 277.9V279.7C241.8 280.133 241.95 280.483 242.25 280.75C242.517 281.05 242.867 281.2 243.3 281.2H255.3C255.7 281.2 256.05 281.05 256.35 280.75C256.617 280.483 256.75 280.133 256.75 279.7V277.9C256.75 277.267 256.967 276.733 257.4 276.3C257.833 275.867 258.333 275.65 258.9 275.65H261.8C262.2 275.65 262.55 275.5 262.85 275.2C263.117 274.9 263.25 274.55 263.25 274.15V265.15C263.25 263.283 262.883 261.517 262.15 259.85C261.45 258.217 260.45 256.783 259.15 255.55ZM252.3 269.8C251.5 269.033 251.1 268.1 251.1 267C251.1 265.9 251.5 264.967 252.3 264.2C253.067 263.4 254 263 255.1 263C256.2 263 257.133 263.4 257.9 264.2C258.667 264.967 259.05 265.9 259.05 267C259.05 268.1 258.667 269.033 257.9 269.8C257.133 270.567 256.2 270.95 255.1 270.95C254 270.95 253.067 270.567 252.3 269.8ZM248.95 271.7C249.017 271.533 249.133 271.45 249.3 271.45C249.433 271.45 249.55 271.533 249.65 271.7L251.15 275.7C251.183 275.8 251.15 275.933 251.05 276.1L250.8 276.2L250.65 276.15L249.3 275.55L247.9 276.15C247.733 276.217 247.6 276.2 247.5 276.1C247.4 275.933 247.367 275.8 247.4 275.7L248.95 271.7ZM246.3 264.2C247.067 264.967 247.45 265.9 247.45 267C247.45 268.1 247.067 269.033 246.3 269.8C245.533 270.567 244.6 270.95 243.5 270.95C242.4 270.95 241.467 270.567 240.7 269.8C239.9 269.033 239.5 268.1 239.5 267C239.5 265.9 239.9 264.967 240.7 264.2C241.467 263.4 242.4 263 243.5 263C244.6 263 245.533 263.4 246.3 264.2Z" fill="white"/>
<path d="M59.4 385.45C59.0333 385.683 58.8 386.017 58.7 386.45C58.6 386.883 58.6667 387.283 58.9 387.65L59.75 389.05C60.0167 389.417 60.35 389.65 60.75 389.75C61.1833 389.85 61.6 389.783 62 389.55L64.5 388.05L64.55 387.95L91.9 400.95V401.05L92.25 403.95C92.3167 404.417 92.5333 404.783 92.9 405.05C93.2667 405.317 93.6667 405.417 94.1 405.35L95.7 405.15C96.1333 405.117 96.5 404.917 96.8 404.55C97.0667 404.183 97.1667 403.783 97.1 403.35L96.75 400.75L99 399.4C99.3667 399.167 99.6 398.817 99.7 398.35C99.8 397.917 99.7333 397.517 99.5 397.15L98.65 395.75C98.3833 395.383 98.05 395.15 97.65 395.05C97.2167 394.95 96.8 395.017 96.4 395.25L93.9 396.8L93.85 396.85L66.5 383.85V383.75L66.1 380.85C66.0667 380.417 65.8667 380.067 65.5 379.8C65.1667 379.533 64.7667 379.417 64.3 379.45L62.7 379.65C62.2667 379.717 61.9167 379.933 61.65 380.3C61.3833 380.667 61.2667 381.067 61.3 381.5L61.65 384.05L59.4 385.45Z" fill="white"/>
<path d="M66.7 395.25C66.3333 395.017 65.9333 394.95 65.5 395.05C65.0667 395.15 64.7333 395.383 64.5 395.75L63.6 397.15C63.3667 397.517 63.3167 397.917 63.45 398.35C63.55 398.817 63.7833 399.167 64.15 399.4L66.35 400.75L66 403.35C65.9667 403.783 66.0833 404.183 66.35 404.55C66.6167 404.917 66.9667 405.117 67.4 405.15L69.05 405.35C69.4833 405.417 69.8833 405.317 70.25 405.05C70.6167 404.75 70.8167 404.383 70.85 403.95L71.25 401.05V400.95L98.55 387.95L98.65 388.05L101.15 389.55C101.517 389.783 101.917 389.85 102.35 389.75C102.783 389.65 103.117 389.417 103.35 389.05L104.25 387.65C104.483 387.283 104.55 386.883 104.45 386.45C104.317 386.017 104.067 385.683 103.7 385.45L101.5 384.05L101.85 381.5C101.917 381.067 101.8 380.667 101.5 380.3C101.233 379.933 100.883 379.717 100.45 379.65L98.8 379.45C98.3333 379.417 97.9333 379.533 97.6 379.8C97.2666 380.067 97.0667 380.417 97 380.85L96.6 383.75V383.85L69.3 396.85L69.2 396.8L66.7 395.25Z" fill="white"/>
<path d="M76.1 357.3C74.3667 358.033 72.9 359 71.7 360.2C70.4 361.433 69.4 362.867 68.7 364.5C67.9667 366.167 67.6 367.933 67.6 369.8V378.8C67.6 379.2 67.75 379.55 68.05 379.85C68.3167 380.117 68.65 380.25 69.05 380.25H71.95C72.5167 380.25 73.0167 380.483 73.45 380.95C73.8833 381.383 74.1 381.917 74.1 382.55V384.35C74.1 384.75 74.25 385.1 74.55 385.4C74.8167 385.7 75.15 385.85 75.55 385.85H87.55C87.9833 385.85 88.3333 385.7 88.6 385.4C88.9 385.1 89.05 384.75 89.05 384.35V382.55C89.05 381.917 89.2667 381.383 89.7 380.95C90.1 380.483 90.6 380.25 91.2 380.25H94.05C94.4833 380.25 94.8333 380.117 95.1 379.85C95.4 379.55 95.55 379.2 95.55 378.8V369.8C95.55 368.033 95.1833 366.267 94.45 364.5C93.75 362.867 92.75 361.433 91.45 360.2C90.1833 359 88.7 358.033 87 357.3C85.3 356.6 83.5 356.25 81.6 356.25H81.5C79.6 356.25 77.8 356.6 76.1 357.3ZM72.95 368.8C73.7167 368.033 74.65 367.65 75.75 367.65C76.85 367.65 77.8 368.033 78.6 368.8C79.3667 369.567 79.75 370.5 79.75 371.6C79.75 372.7 79.3667 373.65 78.6 374.45C77.8 375.217 76.85 375.6 75.75 375.6C74.65 375.6 73.7167 375.217 72.95 374.45C72.15 373.65 71.75 372.7 71.75 371.6C71.75 370.5 72.15 369.567 72.95 368.8ZM80.2 380.8C80.0667 380.867 79.9333 380.833 79.8 380.7C79.7 380.6 79.6667 380.467 79.7 380.3L81.2 376.35C81.2667 376.183 81.3833 376.1 81.55 376.1C81.7167 376.1 81.8333 376.183 81.9 376.35L83.45 380.3C83.5167 380.467 83.4833 380.6 83.35 380.7L83.1 380.8H82.95L81.55 380.2L80.2 380.8ZM84.55 368.8C85.3167 368.033 86.25 367.65 87.35 367.65C88.45 367.65 89.4 368.033 90.2 368.8C90.9667 369.567 91.35 370.5 91.35 371.6C91.35 372.7 90.9667 373.65 90.2 374.45C89.4 375.217 88.45 375.6 87.35 375.6C86.25 375.6 85.3167 375.217 84.55 374.45C83.75 373.65 83.35 372.7 83.35 371.6C83.35 370.5 83.75 369.567 84.55 368.8Z" fill="white"/>
<path d="M97.65 73.2C97.2167 73.1 96.8 73.1667 96.4 73.4L93.9 74.95L93.85 75L66.5 62V61.9L66.1 59C66.0667 58.5667 65.8667 58.2167 65.5 57.95C65.1667 57.6833 64.7667 57.5667 64.3 57.6L62.7 57.8C62.2667 57.8667 61.9167 58.0833 61.65 58.45C61.3833 58.7833 61.2667 59.1667 61.3 59.6L61.65 62.2L59.4 63.55C59.0333 63.8167 58.8 64.1667 58.7 64.6C58.6 65.0333 58.6667 65.4333 58.9 65.8L59.75 67.2C60.0167 67.5667 60.35 67.8 60.75 67.9C61.1833 68 61.6 67.9333 62 67.7L64.5 66.15L64.55 66.1L91.9 79.1V79.2L92.25 82.1C92.3167 82.5667 92.5333 82.9333 92.9 83.2C93.2667 83.4667 93.6667 83.5667 94.1 83.5L95.7 83.3C96.1667 83.2333 96.5333 83.0167 96.8 82.65C97.0667 82.3167 97.1667 81.9167 97.1 81.45L96.75 78.9L99 77.5C99.3667 77.2667 99.6 76.9333 99.7 76.5C99.8 76.0667 99.7333 75.6667 99.5 75.3L98.65 73.9C98.3833 73.5333 98.05 73.3 97.65 73.2Z" fill="white"/>
<path d="M102.35 67.9C102.783 67.8 103.117 67.5667 103.35 67.2L104.25 65.8C104.483 65.4333 104.55 65.0333 104.45 64.6C104.317 64.1667 104.067 63.8167 103.7 63.55L101.5 62.2L101.85 59.6C101.917 59.1667 101.8 58.7833 101.5 58.45C101.233 58.0833 100.883 57.8667 100.45 57.8L98.8 57.6C98.3333 57.5667 97.9333 57.6833 97.6 57.95C97.2666 58.2167 97.0667 58.5667 97 59L96.6 61.9V62L69.3 75L69.2 74.95L66.7 73.4C66.3333 73.1667 65.9333 73.1 65.5 73.2C65.0667 73.3 64.7333 73.5333 64.5 73.9L63.6 75.3C63.3667 75.6667 63.3167 76.0667 63.45 76.5C63.55 76.9333 63.7833 77.2667 64.15 77.5L66.35 78.9L66 81.45C65.9667 81.9167 66.0833 82.3167 66.35 82.65C66.6167 83.0167 66.9667 83.2333 67.4 83.3L69.05 83.5C69.4833 83.5667 69.8833 83.4667 70.25 83.2C70.6167 82.9 70.8167 82.5333 70.85 82.1L71.25 79.2V79.1L98.55 66.1L98.65 66.15L101.15 67.7C101.517 67.9333 101.917 68 102.35 67.9Z" fill="white"/>
<path d="M95.55 47.95C95.55 46.15 95.1833 44.3833 94.45 42.65C93.75 41.0167 92.75 39.5833 91.45 38.35C90.1167 37.05 88.6333 36.0833 87 35.45C85.3 34.75 83.5 34.4 81.6 34.4H81.5C79.6 34.4 77.8 34.75 76.1 35.45C74.4667 36.1167 73 37.0833 71.7 38.35C70.4 39.5833 69.4 41.0167 68.7 42.65C67.9667 44.25 67.6 46.0167 67.6 47.95V56.9C67.6 57.3333 67.75 57.6833 68.05 57.95C68.3167 58.25 68.65 58.4 69.05 58.4H71.95C72.5167 58.4 73.0167 58.6167 73.45 59.05C73.8833 59.4833 74.1 60.0167 74.1 60.65V62.5C74.1 62.9 74.25 63.25 74.55 63.55C74.8167 63.8167 75.15 63.95 75.55 63.95H87.55C87.9833 63.95 88.3333 63.8167 88.6 63.55C88.9 63.25 89.05 62.9 89.05 62.5V60.65C89.05 60.0167 89.2667 59.4833 89.7 59.05C90.1 58.6167 90.6 58.4 91.2 58.4H94.05C94.4833 58.4 94.8333 58.25 95.1 57.95C95.4 57.6833 95.55 57.3333 95.55 56.9V47.95ZM84.55 46.95C85.3167 46.15 86.25 45.75 87.35 45.75C88.45 45.75 89.4 46.15 90.2 46.95C90.9667 47.7167 91.35 48.65 91.35 49.75C91.35 50.85 90.9667 51.8 90.2 52.6C89.4 53.3667 88.45 53.75 87.35 53.75C86.25 53.75 85.3167 53.3667 84.55 52.6C83.75 51.8 83.35 50.85 83.35 49.75C83.35 48.65 83.75 47.7167 84.55 46.95ZM81.55 54.25C81.7167 54.25 81.8333 54.3333 81.9 54.5L83.45 58.45C83.5167 58.6167 83.4833 58.75 83.35 58.85L83.1 58.95L82.95 58.9L81.55 58.3L80.2 58.9C80.0667 59 79.9333 58.9833 79.8 58.85C79.7 58.75 79.6667 58.6167 79.7 58.45L81.2 54.5C81.2667 54.3333 81.3833 54.25 81.55 54.25ZM72.95 46.95C73.7167 46.15 74.65 45.75 75.75 45.75C76.85 45.75 77.8 46.15 78.6 46.95C79.3667 47.7167 79.75 48.65 79.75 49.75C79.75 50.85 79.3667 51.8 78.6 52.6C77.8 53.3667 76.85 53.75 75.75 53.75C74.65 53.75 73.7167 53.3667 72.95 52.6C72.15 51.8 71.75 50.85 71.75 49.75C71.75 48.65 72.15 47.7167 72.95 46.95Z" fill="white"/>
<path d="M174.25 86.95L165.95 98L179.65 99.65L174.25 86.95Z" fill="#1C2A4A"/>
<path d="M170.4 339.55L176.95 327.35L163.1 327.8L170.4 339.55Z" fill="#1C2A4A"/>
<path d="M408.75 222.05L420.65 215.1L408.65 208.2L408.75 222.05Z" fill="#1C2A4A"/>
<path d="M338.5 144.9L326.5 138.05L326.55 151.85L338.5 144.9Z" fill="#1C2A4A"/>
<path d="M317.8 287.05L317.85 300.9L329.8 293.9L317.8 287.05Z" fill="#1C2A4A"/>
<path d="M563.75 238.05L563.1 251.4L575 245.3L563.75 238.05Z" fill="#1C2A4A"/>
<path d="M682.7 258.1L694.6 252L683.35 244.7L682.7 258.1Z" fill="#1C2A4A"/>
<path d="M373.7 222L373.65 208.15L361.7 215.15L373.7 222Z" fill="#1C2A4A"/>
<path d="M608.85 178.8L616.8 167.5L603 166.3L608.85 178.8Z" fill="#1C2A4A"/>
<path d="M514.1 206.25L505.85 217.35L519.6 218.95L514.1 206.25Z" fill="#1C2A4A"/>
<path d="M790.1 89.05L776.3 89.4L783.55 101.2L790.1 89.05Z" fill="#1C2A4A"/>
<path d="M739.35 128.55L732.45 116.6L725.55 128.55H739.35Z" fill="#1C2A4A"/>
<path d="M872.2 165.9L884.2 159.05L872.3 152.05L872.2 165.9Z" fill="#1C2A4A"/>
<path d="M747.1 151.5L758.85 158.8L759.3 145L747.1 151.5Z" fill="#1C2A4A"/>
<path d="M558.5 33.6C551.3 26.4333 542.633 22.85 532.5 22.85H396.45C386.317 22.85 377.65 26.4333 370.45 33.6C363.283 40.7667 359.7 49.4167 359.7 59.55C359.7 69.7167 363.283 78.3833 370.45 85.55C377.65 92.7167 386.317 96.3 396.45 96.3H532.5C542.667 96.3 551.333 92.7167 558.5 85.55C565.667 78.3833 569.25 69.7167 569.25 59.55C569.25 49.4167 565.667 40.7667 558.5 33.6Z" fill="#E3E2E2"/>
<g filter="url(#filter0_d_4_2)">
<text fill="#3E4555" xml:space="preserve" style="white-space: pre" font-family="Arial" font-size="15.4" letter-spacing="0em"><tspan x="397.648" y="45.8389">CISCO SECURITY </tspan><tspan x="409.912" y="63.8389">INTELIGENCIA </tspan><tspan x="385.955" y="81.8389">OPERACIONES (SIO)</tspan></text>
</g>
<path d="M457.55 165.6L464.45 177.55L471.4 165.6H457.55Z" fill="#1C2A4A"/>
<text fill="#3E4555" xml:space="preserve" style="white-space: pre" font-family="Arial" font-size="26" letter-spacing="0em"><tspan x="456.8" y="317.914">2</tspan></text>
<text fill="#3E4555" xml:space="preserve" style="white-space: pre" font-family="Arial" font-size="26" letter-spacing="0em"><tspan x="483.8" y="136.364">3</tspan></text>
<text fill="#3E4555" xml:space="preserve" style="white-space: pre" font-family="Arial" font-size="26" letter-spacing="0em"><tspan x="76.15" y="229.214">1</tspan></text>
<path d="M845.6 411.05C841.6 407.05 836.767 405.05 831.1 405.05C825.433 405.05 820.583 407.05 816.55 411.05C812.55 415.05 810.55 419.883 810.55 425.55C810.55 431.217 812.55 436.05 816.55 440.05C820.583 444.05 825.433 446.05 831.1 446.05C836.767 446.05 841.6 444.05 845.6 440.05C849.6 436.05 851.6 431.217 851.6 425.55C851.6 419.917 849.6 415.083 845.6 411.05Z" fill="#E3E2E2"/>
<text fill="#3E4555" xml:space="preserve" style="white-space: pre" font-family="Arial" font-size="26" letter-spacing="0em"><tspan x="823.45" y="432.564">2</tspan></text>
<defs>
<filter id="filter0_d_4_2" x="382.699" y="34.7809" width="160.789" height="58.4601" filterUnits="userSpaceOnUse" color-interpolation-filters="sRGB">
<feFlood flood-opacity="0" result="BackgroundImageFix"/>
<feColorMatrix in="SourceAlpha" type="matrix" values="0 0 0 0 0 0 0 0 0 0 0 0 0 0 0 0 0 0 127 0" result="hardAlpha"/>
<feOffset dy="4"/>
<feGaussianBlur stdDeviation="2"/>
<feComposite in2="hardAlpha" operator="out"/>
<feColorMatrix type="matrix" values="0 0 0 0 0 0 0 0 0 0 0 0 0 0 0 0 0 0 0.25 0"/>
<feBlend mode="normal" in2="BackgroundImageFix" result="effect1_dropShadow_4_2"/>
<feBlend mode="normal" in="SourceGraphic" in2="effect1_dropShadow_4_2" result="shape"/>
</filter>
</defs>
</svg>
