<svg width="1038" height="360" viewBox="0 0 1038 360" fill="none" xmlns="http://www.w3.org/2000/svg">
<path d="M152.25 84.05H158.25" stroke="#E3E2E1" stroke-width="4" stroke-miterlimit="10" stroke-linecap="round"/>
<path d="M248.55 82.6C248.173 82.2297 247.706 82.0464 247.15 82.05H236.15C235.594 82.0464 235.111 82.2297 234.7 82.6C234.33 83.0107 234.146 83.494 234.15 84.05C234.146 84.6059 234.33 85.0725 234.7 85.45C235.111 85.8535 235.594 86.0535 236.15 86.05H247.15C247.706 86.0535 248.173 85.8535 248.55 85.45C248.954 85.0725 249.154 84.6059 249.15 84.05C249.154 83.494 248.954 83.0107 248.55 82.6ZM226.55 82.6C226.173 82.2297 225.706 82.0464 225.15 82.05H214.15C213.594 82.0464 213.111 82.2297 212.7 82.6C212.33 83.0107 212.146 83.494 212.15 84.05C212.146 84.6059 212.33 85.0725 212.7 85.45C213.111 85.8535 213.594 86.0535 214.15 86.05H225.15C225.706 86.0535 226.173 85.8535 226.55 85.45C226.954 85.0725 227.154 84.6059 227.15 84.05C227.154 83.494 226.954 83.0107 226.55 82.6ZM204.55 82.6C204.173 82.2297 203.706 82.0464 203.15 82.05H192.15C191.594 82.0464 191.111 82.2297 190.7 82.6C190.33 83.0107 190.146 83.494 190.15 84.05C190.146 84.6059 190.33 85.0725 190.7 85.45C191.111 85.8535 191.594 86.0535 192.15 86.05H203.15C203.706 86.0535 204.173 85.8535 204.55 85.45C204.954 85.0725 205.154 84.6059 205.15 84.05C205.154 83.494 204.954 83.0107 204.55 82.6ZM182.55 82.6C182.173 82.2297 181.706 82.0464 181.15 82.05H170.15C169.594 82.0464 169.111 82.2297 168.7 82.6C168.33 83.0107 168.146 83.494 168.15 84.05C168.146 84.6059 168.33 85.0725 168.7 85.45C169.111 85.8535 169.594 86.0535 170.15 86.05H181.15C181.706 86.0535 182.173 85.8535 182.55 85.45C182.954 85.0725 183.154 84.6059 183.15 84.05C183.154 83.494 182.954 83.0107 182.55 82.6ZM302.15 82.05C301.594 82.0464 301.111 82.2297 300.7 82.6C300.33 83.0107 300.146 83.494 300.15 84.05C300.146 84.6059 300.33 85.0725 300.7 85.45C301.111 85.8535 301.594 86.0535 302.15 86.05H313.15C313.706 86.0535 314.173 85.8535 314.55 85.45C314.954 85.0725 315.154 84.6059 315.15 84.05C315.154 83.494 314.954 83.0107 314.55 82.6C314.173 82.2297 313.706 82.0464 313.15 82.05H302.15ZM278.7 85.45C279.111 85.8535 279.594 86.0535 280.15 86.05H291.15C291.706 86.0535 292.173 85.8535 292.55 85.45C292.954 85.0725 293.154 84.6059 293.15 84.05C293.154 83.494 292.954 83.0107 292.55 82.6C292.173 82.2297 291.706 82.0464 291.15 82.05H280.15C279.594 82.0464 279.111 82.2297 278.7 82.6C278.33 83.0107 278.146 83.494 278.15 84.05C278.146 84.6059 278.33 85.0725 278.7 85.45ZM269.15 82.05H258.15C257.594 82.0464 257.111 82.2297 256.7 82.6C256.33 83.0107 256.146 83.494 256.15 84.05C256.146 84.6059 256.33 85.0725 256.7 85.45C257.111 85.8535 257.594 86.0535 258.15 86.05H269.15C269.706 86.0535 270.173 85.8535 270.55 85.45C270.954 85.0725 271.154 84.6059 271.15 84.05C271.154 83.494 270.954 83.0107 270.55 82.6C270.173 82.2297 269.706 82.0464 269.15 82.05ZM390.15 82.05C389.594 82.0464 389.111 82.2297 388.7 82.6C388.33 83.0107 388.146 83.494 388.15 84.05C388.146 84.6059 388.33 85.0725 388.7 85.45C389.111 85.8535 389.594 86.0535 390.15 86.05H401.15C401.706 86.0535 402.173 85.8535 402.55 85.45C402.954 85.0725 403.154 84.6059 403.15 84.05C403.154 83.494 402.954 83.0107 402.55 82.6C402.173 82.2297 401.706 82.0464 401.15 82.05H390.15ZM366.7 85.45C367.111 85.8535 367.594 86.0535 368.15 86.05H379.15C379.706 86.0535 380.173 85.8535 380.55 85.45C380.954 85.0725 381.154 84.6059 381.15 84.05C381.154 83.494 380.954 83.0107 380.55 82.6C380.173 82.2297 379.706 82.0464 379.15 82.05H368.15C367.594 82.0464 367.111 82.2297 366.7 82.6C366.33 83.0107 366.146 83.494 366.15 84.05C366.146 84.6059 366.33 85.0725 366.7 85.45ZM346.15 82.05C345.594 82.0464 345.111 82.2297 344.7 82.6C344.33 83.0107 344.146 83.494 344.15 84.05C344.146 84.6059 344.33 85.0725 344.7 85.45C345.111 85.8535 345.594 86.0535 346.15 86.05H357.15C357.706 86.0535 358.173 85.8535 358.55 85.45C358.954 85.0725 359.154 84.6059 359.15 84.05C359.154 83.494 358.954 83.0107 358.55 82.6C358.173 82.2297 357.706 82.0464 357.15 82.05H346.15ZM336.55 82.6C336.173 82.2297 335.706 82.0464 335.15 82.05H324.15C323.594 82.0464 323.111 82.2297 322.7 82.6C322.33 83.0107 322.146 83.494 322.15 84.05C322.146 84.6059 322.33 85.0725 322.7 85.45C323.111 85.8535 323.594 86.0535 324.15 86.05H335.15C335.706 86.0535 336.173 85.8535 336.55 85.45C336.954 85.0725 337.154 84.6059 337.15 84.05C337.154 83.494 336.954 83.0107 336.55 82.6ZM490.55 82.6C490.173 82.2297 489.706 82.0464 489.15 82.05H478.15C477.594 82.0464 477.111 82.2297 476.7 82.6C476.33 83.0107 476.146 83.494 476.15 84.05C476.146 84.6059 476.33 85.0725 476.7 85.45C477.111 85.8535 477.594 86.0535 478.15 86.05H489.15C489.706 86.0535 490.173 85.8535 490.55 85.45C490.954 85.0725 491.154 84.6059 491.15 84.05C491.154 83.494 490.954 83.0107 490.55 82.6ZM468.55 82.6C468.173 82.2297 467.706 82.0464 467.15 82.05H456.15C455.594 82.0464 455.111 82.2297 454.7 82.6C454.33 83.0107 454.146 83.494 454.15 84.05C454.146 84.6059 454.33 85.0725 454.7 85.45C455.111 85.8535 455.594 86.0535 456.15 86.05H467.15C467.706 86.0535 468.173 85.8535 468.55 85.45C468.954 85.0725 469.154 84.6059 469.15 84.05C469.154 83.494 468.954 83.0107 468.55 82.6ZM434.15 86.05H445.15C445.706 86.0535 446.173 85.8535 446.55 85.45C446.954 85.0725 447.154 84.6059 447.15 84.05C447.154 83.494 446.954 83.0107 446.55 82.6C446.173 82.2297 445.706 82.0464 445.15 82.05H434.15C433.594 82.0464 433.111 82.2297 432.7 82.6C432.33 83.0107 432.146 83.494 432.15 84.05C432.146 84.6059 432.33 85.0725 432.7 85.45C433.111 85.8535 433.594 86.0535 434.15 86.05ZM424.55 82.6C424.173 82.2297 423.706 82.0464 423.15 82.05H412.15C411.594 82.0464 411.111 82.2297 410.7 82.6C410.33 83.0107 410.146 83.494 410.15 84.05C410.146 84.6059 410.33 85.0725 410.7 85.45C411.111 85.8535 411.594 86.0535 412.15 86.05H423.15C423.706 86.0535 424.173 85.8535 424.55 85.45C424.954 85.0725 425.154 84.6059 425.15 84.05C425.154 83.494 424.954 83.0107 424.55 82.6ZM544.15 82.05C543.594 82.0464 543.111 82.2297 542.7 82.6C542.33 83.0107 542.146 83.494 542.15 84.05C542.146 84.6059 542.33 85.0725 542.7 85.45C543.111 85.8535 543.594 86.0535 544.15 86.05H555.15C555.706 86.0535 556.173 85.8535 556.55 85.45C556.954 85.0725 557.154 84.6059 557.15 84.05C557.154 83.494 556.954 83.0107 556.55 82.6C556.173 82.2297 555.706 82.0464 555.15 82.05H544.15ZM520.7 85.45C521.111 85.8535 521.594 86.0535 522.15 86.05H533.15C533.706 86.0535 534.173 85.8535 534.55 85.45C534.954 85.0725 535.154 84.6059 535.15 84.05C535.154 83.494 534.954 83.0107 534.55 82.6C534.173 82.2297 533.706 82.0464 533.15 82.05H522.15C521.594 82.0464 521.111 82.2297 520.7 82.6C520.33 83.0107 520.146 83.494 520.15 84.05C520.146 84.6059 520.33 85.0725 520.7 85.45ZM512.55 82.6C512.173 82.2297 511.706 82.0464 511.15 82.05H500.15C499.594 82.0464 499.111 82.2297 498.7 82.6C498.33 83.0107 498.146 83.494 498.15 84.05C498.146 84.6059 498.33 85.0725 498.7 85.45C499.111 85.8535 499.594 86.0535 500.15 86.05H511.15C511.706 86.0535 512.173 85.8535 512.55 85.45C512.954 85.0725 513.154 84.6059 513.15 84.05C513.154 83.494 512.954 83.0107 512.55 82.6ZM632.15 82.05C631.594 82.0464 631.111 82.2297 630.7 82.6C630.33 83.0107 630.146 83.494 630.15 84.05C630.146 84.6059 630.33 85.0725 630.7 85.45C631.111 85.8535 631.594 86.0535 632.15 86.05H643.15C643.706 86.0535 644.173 85.8535 644.55 85.45C644.954 85.0725 645.154 84.6059 645.15 84.05C645.154 83.494 644.954 83.0107 644.55 82.6C644.173 82.2297 643.706 82.0464 643.15 82.05H632.15ZM608.7 85.45C609.111 85.8535 609.594 86.0535 610.15 86.05H621.15C621.706 86.0535 622.173 85.8535 622.55 85.45C622.954 85.0725 623.154 84.6059 623.15 84.05C623.154 83.494 622.954 83.0107 622.55 82.6C622.173 82.2297 621.706 82.0464 621.15 82.05H610.15C609.594 82.0464 609.111 82.2297 608.7 82.6C608.33 83.0107 608.146 83.494 608.15 84.05C608.146 84.6059 608.33 85.0725 608.7 85.45ZM588.15 82.05C587.594 82.0464 587.111 82.2297 586.7 82.6C586.33 83.0107 586.146 83.494 586.15 84.05C586.146 84.6059 586.33 85.0725 586.7 85.45C587.111 85.8535 587.594 86.0535 588.15 86.05H599.15C599.706 86.0535 600.173 85.8535 600.55 85.45C600.954 85.0725 601.154 84.6059 601.15 84.05C601.154 83.494 600.954 83.0107 600.55 82.6C600.173 82.2297 599.706 82.0464 599.15 82.05H588.15ZM578.55 82.6C578.173 82.2297 577.706 82.0464 577.15 82.05H566.15C565.594 82.0464 565.111 82.2297 564.7 82.6C564.33 83.0107 564.146 83.494 564.15 84.05C564.146 84.6059 564.33 85.0725 564.7 85.45C565.111 85.8535 565.594 86.0535 566.15 86.05H577.15C577.706 86.0535 578.173 85.8535 578.55 85.45C578.954 85.0725 579.154 84.6059 579.15 84.05C579.154 83.494 578.954 83.0107 578.55 82.6ZM732.55 82.6C732.173 82.2297 731.706 82.0464 731.15 82.05H720.15C719.594 82.0464 719.111 82.2297 718.7 82.6C718.33 83.0107 718.146 83.494 718.15 84.05C718.146 84.6059 718.33 85.0725 718.7 85.45C719.111 85.8535 719.594 86.0535 720.15 86.05H731.15C731.706 86.0535 732.173 85.8535 732.55 85.45C732.954 85.0725 733.153 84.6059 733.15 84.05C733.153 83.494 732.954 83.0107 732.55 82.6ZM710.55 82.6C710.173 82.2297 709.706 82.0464 709.15 82.05H698.15C697.594 82.0464 697.111 82.2297 696.7 82.6C696.33 83.0107 696.146 83.494 696.15 84.05C696.146 84.6059 696.33 85.0725 696.7 85.45C697.111 85.8535 697.594 86.0535 698.15 86.05H709.15C709.706 86.0535 710.173 85.8535 710.55 85.45C710.954 85.0725 711.153 84.6059 711.15 84.05C711.153 83.494 710.954 83.0107 710.55 82.6ZM674.7 82.6C674.33 83.0107 674.146 83.494 674.15 84.05C674.146 84.6059 674.33 85.0725 674.7 85.45C675.111 85.8535 675.594 86.0535 676.15 86.05H687.15C687.706 86.0535 688.173 85.8535 688.55 85.45C688.954 85.0725 689.153 84.6059 689.15 84.05C689.153 83.494 688.954 83.0107 688.55 82.6C688.173 82.2297 687.706 82.0464 687.15 82.05H676.15C675.594 82.0464 675.111 82.2297 674.7 82.6ZM666.55 82.6C666.173 82.2297 665.706 82.0464 665.15 82.05H654.15C653.594 82.0464 653.111 82.2297 652.7 82.6C652.33 83.0107 652.146 83.494 652.15 84.05C652.146 84.6059 652.33 85.0725 652.7 85.45C653.111 85.8535 653.594 86.0535 654.15 86.05H665.15C665.706 86.0535 666.173 85.8535 666.55 85.45C666.954 85.0725 667.154 84.6059 667.15 84.05C667.154 83.494 666.954 83.0107 666.55 82.6ZM786.15 82.05C785.594 82.0464 785.111 82.2297 784.7 82.6C784.33 83.0107 784.146 83.494 784.15 84.05C784.146 84.6059 784.33 85.0725 784.7 85.45C785.111 85.8535 785.594 86.0535 786.15 86.05H797.15C797.706 86.0535 798.173 85.8535 798.55 85.45C798.954 85.0725 799.153 84.6059 799.15 84.05C799.153 83.494 798.954 83.0107 798.55 82.6C798.173 82.2297 797.706 82.0464 797.15 82.05H786.15ZM762.7 85.45C763.111 85.8535 763.594 86.0535 764.15 86.05H775.15C775.706 86.0535 776.173 85.8535 776.55 85.45C776.954 85.0725 777.153 84.6059 777.15 84.05C777.153 83.494 776.954 83.0107 776.55 82.6C776.173 82.2297 775.706 82.0464 775.15 82.05H764.15C763.594 82.0464 763.111 82.2297 762.7 82.6C762.33 83.0107 762.146 83.494 762.15 84.05C762.146 84.6059 762.33 85.0725 762.7 85.45ZM754.55 82.6C754.173 82.2297 753.706 82.0464 753.15 82.05H742.15C741.594 82.0464 741.111 82.2297 740.7 82.6C740.33 83.0107 740.146 83.494 740.15 84.05C740.146 84.6059 740.33 85.0725 740.7 85.45C741.111 85.8535 741.594 86.0535 742.15 86.05H753.15C753.706 86.0535 754.173 85.8535 754.55 85.45C754.954 85.0725 755.153 84.6059 755.15 84.05C755.153 83.494 754.954 83.0107 754.55 82.6ZM874.15 82.05C873.594 82.0464 873.111 82.2297 872.7 82.6C872.33 83.0107 872.146 83.494 872.15 84.05C872.146 84.6059 872.33 85.0725 872.7 85.45C873.111 85.8535 873.594 86.0535 874.15 86.05H885.15C885.706 86.0535 886.173 85.8535 886.55 85.45C886.954 85.0725 887.153 84.6059 887.15 84.05C887.153 83.494 886.954 83.0107 886.55 82.6C886.173 82.2297 885.706 82.0464 885.15 82.05H874.15ZM850.7 85.45C851.111 85.8535 851.594 86.0535 852.15 86.05H863.15C863.706 86.0535 864.173 85.8535 864.55 85.45C864.954 85.0725 865.153 84.6059 865.15 84.05C865.153 83.494 864.954 83.0107 864.55 82.6C864.173 82.2297 863.706 82.0464 863.15 82.05H852.15C851.594 82.0464 851.111 82.2297 850.7 82.6C850.33 83.0107 850.146 83.494 850.15 84.05C850.146 84.6059 850.33 85.0725 850.7 85.45ZM830.15 82.05C829.594 82.0464 829.111 82.2297 828.7 82.6C828.33 83.0107 828.146 83.494 828.15 84.05C828.146 84.6059 828.33 85.0725 828.7 85.45C829.111 85.8535 829.594 86.0535 830.15 86.05H841.15C841.706 86.0535 842.173 85.8535 842.55 85.45C842.954 85.0725 843.153 84.6059 843.15 84.05C843.153 83.494 842.954 83.0107 842.55 82.6C842.173 82.2297 841.706 82.0464 841.15 82.05H830.15ZM820.55 82.6C820.173 82.2297 819.706 82.0464 819.15 82.05H808.15C807.594 82.0464 807.111 82.2297 806.7 82.6C806.33 83.0107 806.146 83.494 806.15 84.05C806.146 84.6059 806.33 85.0725 806.7 85.45C807.111 85.8535 807.594 86.0535 808.15 86.05H819.15C819.706 86.0535 820.173 85.8535 820.55 85.45C820.954 85.0725 821.153 84.6059 821.15 84.05C821.153 83.494 820.954 83.0107 820.55 82.6ZM918.15 82.05C917.594 82.0464 917.111 82.2297 916.7 82.6C916.33 83.0107 916.146 83.494 916.15 84.05C916.146 84.6059 916.33 85.0725 916.7 85.45C917.111 85.8535 917.594 86.0535 918.15 86.05H924.15C924.706 86.0535 925.173 85.8535 925.55 85.45C925.954 85.0725 926.153 84.6059 926.15 84.05C926.153 83.494 925.954 83.0107 925.55 82.6C925.173 82.2297 924.706 82.0464 924.15 82.05H918.15ZM908.55 82.6C908.173 82.2297 907.706 82.0464 907.15 82.05H896.15C895.594 82.0464 895.111 82.2297 894.7 82.6C894.33 83.0107 894.146 83.494 894.15 84.05C894.146 84.6059 894.33 85.0725 894.7 85.45C895.111 85.8535 895.594 86.0535 896.15 86.05H907.15C907.706 86.0535 908.173 85.8535 908.55 85.45C908.954 85.0725 909.153 84.6059 909.15 84.05C909.153 83.494 908.954 83.0107 908.55 82.6Z" fill="#E3E2E1"/>
<path d="M930.1 84.05H936.1" stroke="#E3E2E1" stroke-width="4" stroke-miterlimit="10" stroke-linecap="round"/>
<path d="M918.3 94.95V99.95" stroke="#E3E2E1" stroke-width="4" stroke-miterlimit="10" stroke-linecap="round"/>
<path d="M919.7 214.15C920.104 213.773 920.303 213.306 920.3 212.75V210.7C920.303 210.144 920.104 209.661 919.7 209.25C919.323 208.88 918.856 208.696 918.3 208.7C917.744 208.696 917.261 208.88 916.85 209.25C916.48 209.661 916.296 210.144 916.3 210.7V212.75C916.296 213.306 916.48 213.773 916.85 214.15C917.261 214.554 917.744 214.754 918.3 214.75C918.856 214.754 919.323 214.554 919.7 214.15ZM916.85 189.25C916.48 189.661 916.296 190.144 916.3 190.7V200.7C916.296 201.256 916.48 201.723 916.85 202.1C917.261 202.504 917.744 202.704 918.3 202.7C918.856 202.704 919.323 202.504 919.7 202.1C920.104 201.723 920.303 201.256 920.3 200.7V190.7C920.303 190.144 920.104 189.661 919.7 189.25C919.323 188.88 918.856 188.696 918.3 188.7C917.744 188.696 917.261 188.88 916.85 189.25ZM919.7 162.1C920.104 161.723 920.303 161.256 920.3 160.7V150.7C920.303 150.144 920.104 149.661 919.7 149.25C919.323 148.88 918.856 148.696 918.3 148.7C917.744 148.696 917.261 148.88 916.85 149.25C916.48 149.661 916.296 150.144 916.3 150.7V160.7C916.296 161.256 916.48 161.723 916.85 162.1C917.261 162.504 917.744 162.704 918.3 162.7C918.856 162.704 919.323 162.504 919.7 162.1ZM919.7 169.25C919.323 168.88 918.856 168.696 918.3 168.7C917.744 168.696 917.261 168.88 916.85 169.25C916.48 169.661 916.296 170.144 916.3 170.7V180.7C916.296 181.256 916.48 181.723 916.85 182.1C917.261 182.504 917.744 182.704 918.3 182.7C918.856 182.704 919.323 182.504 919.7 182.1C920.104 181.723 920.303 181.256 920.3 180.7V170.7C920.303 170.144 920.104 169.661 919.7 169.25ZM916.3 140.7C916.296 141.256 916.48 141.723 916.85 142.1C917.261 142.504 917.744 142.704 918.3 142.7C918.856 142.704 919.323 142.504 919.7 142.1C920.104 141.723 920.303 141.256 920.3 140.7V130.7C920.303 130.144 920.104 129.661 919.7 129.25C919.323 128.88 918.856 128.696 918.3 128.7C917.744 128.696 917.261 128.88 916.85 129.25C916.48 129.661 916.296 130.144 916.3 130.7V140.7ZM920.3 120.7V110.7C920.303 110.144 920.104 109.661 919.7 109.25C919.323 108.88 918.856 108.696 918.3 108.7C917.744 108.696 917.261 108.88 916.85 109.25C916.48 109.661 916.296 110.144 916.3 110.7V120.7C916.296 121.256 916.48 121.723 916.85 122.1C917.261 122.504 917.744 122.704 918.3 122.7C918.856 122.704 919.323 122.504 919.7 122.1C920.104 121.723 920.303 121.256 920.3 120.7Z" fill="#E3E2E1"/>
<path d="M918.3 218.15V223.15" stroke="#E3E2E1" stroke-width="4" stroke-miterlimit="10" stroke-linecap="round"/>
<path d="M652.6 94.95V99.95" stroke="#E3E2E1" stroke-width="4" stroke-miterlimit="10" stroke-linecap="round"/>
<path d="M654 214.15C654.404 213.773 654.603 213.306 654.6 212.75V210.7C654.603 210.144 654.404 209.661 654 209.25C653.623 208.88 653.156 208.696 652.6 208.7C652.044 208.696 651.561 208.88 651.15 209.25C650.78 209.661 650.596 210.144 650.6 210.7V212.75C650.596 213.306 650.78 213.773 651.15 214.15C651.561 214.554 652.044 214.754 652.6 214.75C653.156 214.754 653.623 214.554 654 214.15ZM651.15 189.25C650.78 189.661 650.596 190.144 650.6 190.7V200.7C650.596 201.256 650.78 201.723 651.15 202.1C651.561 202.504 652.044 202.704 652.6 202.7C653.156 202.704 653.623 202.504 654 202.1C654.404 201.723 654.603 201.256 654.6 200.7V190.7C654.603 190.144 654.404 189.661 654 189.25C653.623 188.88 653.156 188.696 652.6 188.7C652.044 188.696 651.561 188.88 651.15 189.25ZM654.6 170.7C654.603 170.144 654.404 169.661 654 169.25C653.623 168.88 653.156 168.696 652.6 168.7C652.044 168.696 651.561 168.88 651.15 169.25C650.78 169.661 650.596 170.144 650.6 170.7V180.7C650.596 181.256 650.78 181.723 651.15 182.1C651.561 182.504 652.044 182.704 652.6 182.7C653.156 182.704 653.623 182.504 654 182.1C654.404 181.723 654.603 181.256 654.6 180.7V170.7ZM651.15 149.25C650.78 149.661 650.596 150.144 650.6 150.7V160.7C650.596 161.256 650.78 161.723 651.15 162.1C651.561 162.504 652.044 162.704 652.6 162.7C653.156 162.704 653.623 162.504 654 162.1C654.404 161.723 654.603 161.256 654.6 160.7V150.7C654.603 150.144 654.404 149.661 654 149.25C653.623 148.88 653.156 148.696 652.6 148.7C652.044 148.696 651.561 148.88 651.15 149.25ZM651.15 129.25C650.78 129.661 650.596 130.144 650.6 130.7V140.7C650.596 141.256 650.78 141.723 651.15 142.1C651.561 142.504 652.044 142.704 652.6 142.7C653.156 142.704 653.623 142.504 654 142.1C654.404 141.723 654.603 141.256 654.6 140.7V130.7C654.603 130.144 654.404 129.661 654 129.25C653.623 128.88 653.156 128.696 652.6 128.7C652.044 128.696 651.561 128.88 651.15 129.25ZM654.6 120.7V110.7C654.603 110.144 654.404 109.661 654 109.25C653.623 108.88 653.156 108.696 652.6 108.7C652.044 108.696 651.561 108.88 651.15 109.25C650.78 109.661 650.596 110.144 650.6 110.7V120.7C650.596 121.256 650.78 121.723 651.15 122.1C651.561 122.504 652.044 122.704 652.6 122.7C653.156 122.704 653.623 122.504 654 122.1C654.404 121.723 654.603 121.256 654.6 120.7Z" fill="#E3E2E1"/>
<path d="M652.6 218.15V223.15" stroke="#E3E2E1" stroke-width="4" stroke-miterlimit="10" stroke-linecap="round"/>
<path d="M386.1 94.95V99.95" stroke="#E3E2E1" stroke-width="4" stroke-miterlimit="10" stroke-linecap="round"/>
<path d="M387.5 214.15C387.904 213.773 388.103 213.306 388.1 212.75V210.7C388.103 210.144 387.904 209.661 387.5 209.25C387.123 208.88 386.656 208.696 386.1 208.7C385.544 208.696 385.061 208.88 384.65 209.25C384.28 209.661 384.096 210.144 384.1 210.7V212.75C384.096 213.306 384.28 213.773 384.65 214.15C385.061 214.554 385.544 214.754 386.1 214.75C386.656 214.754 387.123 214.554 387.5 214.15ZM384.65 189.25C384.28 189.661 384.096 190.144 384.1 190.7V200.7C384.096 201.256 384.28 201.723 384.65 202.1C385.061 202.504 385.544 202.704 386.1 202.7C386.656 202.704 387.123 202.504 387.5 202.1C387.904 201.723 388.103 201.256 388.1 200.7V190.7C388.103 190.144 387.904 189.661 387.5 189.25C387.123 188.88 386.656 188.696 386.1 188.7C385.544 188.696 385.061 188.88 384.65 189.25ZM388.1 170.7C388.103 170.144 387.904 169.661 387.5 169.25C387.123 168.88 386.656 168.696 386.1 168.7C385.544 168.696 385.061 168.88 384.65 169.25C384.28 169.661 384.096 170.144 384.1 170.7V180.7C384.096 181.256 384.28 181.723 384.65 182.1C385.061 182.504 385.544 182.704 386.1 182.7C386.656 182.704 387.123 182.504 387.5 182.1C387.904 181.723 388.103 181.256 388.1 180.7V170.7ZM384.65 149.25C384.28 149.661 384.096 150.144 384.1 150.7V160.7C384.096 161.256 384.28 161.723 384.65 162.1C385.061 162.504 385.544 162.704 386.1 162.7C386.656 162.704 387.123 162.504 387.5 162.1C387.904 161.723 388.103 161.256 388.1 160.7V150.7C388.103 150.144 387.904 149.661 387.5 149.25C387.123 148.88 386.656 148.696 386.1 148.7C385.544 148.696 385.061 148.88 384.65 149.25ZM384.65 129.25C384.28 129.661 384.096 130.144 384.1 130.7V140.7C384.096 141.256 384.28 141.723 384.65 142.1C385.061 142.504 385.544 142.704 386.1 142.7C386.656 142.704 387.123 142.504 387.5 142.1C387.904 141.723 388.103 141.256 388.1 140.7V130.7C388.103 130.144 387.904 129.661 387.5 129.25C387.123 128.88 386.656 128.696 386.1 128.7C385.544 128.696 385.061 128.88 384.65 129.25ZM388.1 120.7V110.7C388.103 110.144 387.904 109.661 387.5 109.25C387.123 108.88 386.656 108.696 386.1 108.7C385.544 108.696 385.061 108.88 384.65 109.25C384.28 109.661 384.096 110.144 384.1 110.7V120.7C384.096 121.256 384.28 121.723 384.65 122.1C385.061 122.504 385.544 122.704 386.1 122.7C386.656 122.704 387.123 122.504 387.5 122.1C387.904 121.723 388.103 121.256 388.1 120.7Z" fill="#E3E2E1"/>
<path d="M386.1 218.15V223.15" stroke="#E3E2E1" stroke-width="4" stroke-miterlimit="10" stroke-linecap="round"/>
<path d="M120.35 94.95V99.95" stroke="#E3E2E1" stroke-width="4" stroke-miterlimit="10" stroke-linecap="round"/>
<path d="M118.35 210.7V212.75C118.346 213.306 118.53 213.773 118.9 214.15C119.311 214.554 119.794 214.754 120.35 214.75C120.906 214.754 121.373 214.554 121.75 214.15C122.154 213.773 122.354 213.306 122.35 212.75V210.7C122.354 210.144 122.154 209.661 121.75 209.25C121.373 208.88 120.906 208.696 120.35 208.7C119.794 208.696 119.311 208.88 118.9 209.25C118.53 209.661 118.346 210.144 118.35 210.7ZM118.9 189.25C118.53 189.661 118.346 190.144 118.35 190.7V200.7C118.346 201.256 118.53 201.723 118.9 202.1C119.311 202.504 119.794 202.704 120.35 202.7C120.906 202.704 121.373 202.504 121.75 202.1C122.154 201.723 122.354 201.256 122.35 200.7V190.7C122.354 190.144 122.154 189.661 121.75 189.25C121.373 188.88 120.906 188.696 120.35 188.7C119.794 188.696 119.311 188.88 118.9 189.25ZM122.35 170.7C122.354 170.144 122.154 169.661 121.75 169.25C121.373 168.88 120.906 168.696 120.35 168.7C119.794 168.696 119.311 168.88 118.9 169.25C118.53 169.661 118.346 170.144 118.35 170.7V180.7C118.346 181.256 118.53 181.723 118.9 182.1C119.311 182.504 119.794 182.704 120.35 182.7C120.906 182.704 121.373 182.504 121.75 182.1C122.154 181.723 122.354 181.256 122.35 180.7V170.7ZM120.35 148.7C119.794 148.696 119.311 148.88 118.9 149.25C118.53 149.661 118.346 150.144 118.35 150.7V160.7C118.346 161.256 118.53 161.723 118.9 162.1C119.311 162.504 119.794 162.704 120.35 162.7C120.906 162.704 121.373 162.504 121.75 162.1C122.154 161.723 122.354 161.256 122.35 160.7V150.7C122.354 150.144 122.154 149.661 121.75 149.25C121.373 148.88 120.906 148.696 120.35 148.7ZM120.35 128.7C119.794 128.696 119.311 128.88 118.9 129.25C118.53 129.661 118.346 130.144 118.35 130.7V140.7C118.346 141.256 118.53 141.723 118.9 142.1C119.311 142.504 119.794 142.704 120.35 142.7C120.906 142.704 121.373 142.504 121.75 142.1C122.154 141.723 122.354 141.256 122.35 140.7V130.7C122.354 130.144 122.154 129.661 121.75 129.25C121.373 128.88 120.906 128.696 120.35 128.7ZM122.35 120.7V110.7C122.354 110.144 122.154 109.661 121.75 109.25C121.373 108.88 120.906 108.696 120.35 108.7C119.794 108.696 119.311 108.88 118.9 109.25C118.53 109.661 118.346 110.144 118.35 110.7V120.7C118.346 121.256 118.53 121.723 118.9 122.1C119.311 122.504 119.794 122.704 120.35 122.7C120.906 122.704 121.373 122.504 121.75 122.1C122.154 121.723 122.354 121.256 122.35 120.7Z" fill="#E3E2E1"/>
<path d="M120.35 218.15V223.15" stroke="#E3E2E1" stroke-width="4" stroke-miterlimit="10" stroke-linecap="round"/>
<path d="M190.35 79.8C190.283 60.4667 183.4 43.9833 169.7 30.35C156 16.75 139.483 9.96667 120.15 10C110.65 10.0333 101.567 11.9 92.9001 15.6C84.5667 19.1333 77.1667 24.15 70.7001 30.65C64.2667 37.1167 59.3001 44.55 55.8001 52.95C52.1334 61.6167 50.3167 70.7 50.3501 80.2C50.4167 99.5667 57.3001 116.05 71.0001 129.65C84.7334 143.283 101.267 150.067 120.6 150C139.933 149.967 156.417 143.083 170.05 129.35C176.483 122.883 181.45 115.45 184.95 107.05C188.583 98.3833 190.383 89.3 190.35 79.8Z" fill="#05B9E7"/>
<mask id="mask0_4_279" style="mask-type:alpha" maskUnits="userSpaceOnUse" x="50" y="9" width="141" height="142">
<path d="M169.7 30.35C163.233 23.9167 155.8 18.9333 147.4 15.4C138.733 11.7667 129.65 9.96666 120.15 10C100.817 10.0667 84.3334 16.95 70.7001 30.65C64.2667 37.1167 59.3001 44.55 55.8001 52.95C52.1334 61.6167 50.3167 70.7 50.3501 80.2C50.4167 99.5667 57.3001 116.05 71.0001 129.65C77.5001 136.083 84.9334 141.067 93.3001 144.6C102 148.233 111.1 150.033 120.6 150C139.933 149.967 156.417 143.083 170.05 129.35C183.65 115.65 190.417 99.1333 190.35 79.8C190.283 60.4667 183.4 43.9833 169.7 30.35Z" fill="white"/>
</mask>
<g mask="url(#mask0_4_279)">
<path d="M130.5 32.15C126.933 28.5833 122.633 26.8 117.6 26.8C112.567 26.8 108.267 28.5833 104.7 32.15C101.133 35.7167 99.35 40.0167 99.35 45.05C99.35 50.0833 101.133 54.3833 104.7 57.95C108.267 61.5167 112.567 63.3 117.6 63.3C122.633 63.3 126.933 61.5167 130.5 57.95C134.067 54.3833 135.85 50.0833 135.85 45.05C135.85 40.0167 134.067 35.7167 130.5 32.15Z" fill="#1B2A49"/>
<path d="M143.15 69.65C140.75 67.25 137.85 66.05 134.45 66.05H131.6C127.4 68.8833 122.717 70.3 117.55 70.3C112.45 70.3 107.767 68.8833 103.5 66.05H100.75C97.3833 66.05 94.5 67.25 92.1 69.65C89.7 72.0167 88.5 74.9 88.5 78.3V120.9C88.5 122.433 89.05 123.733 90.15 124.8C91.2167 125.9 92.5167 126.45 94.05 126.45C95.4167 126.45 96.5667 126.933 97.5 127.9C98.4667 128.867 98.95 130.017 98.95 131.35L102.9 175.2C103.133 177.733 104.183 179.85 106.05 181.55C107.917 183.283 110.117 184.15 112.65 184.15H122.2C124.733 184.15 126.933 183.3 128.8 181.6C130.667 179.9 131.717 177.8 131.95 175.3L136.25 131.35C136.25 129.983 136.717 128.833 137.65 127.9C138.617 126.933 139.783 126.45 141.15 126.45C142.683 126.45 143.983 125.9 145.05 124.8C146.15 123.7 146.7 122.383 146.7 120.85V78.3C146.7 74.9 145.517 72.0167 143.15 69.65Z" fill="#1B2A49"/>
</g>
<path d="M169.45 66.6C172.683 63.3667 174.3 59.4833 174.3 54.95C174.3 50.3833 172.683 46.4833 169.45 43.25C166.217 40.0167 162.333 38.4 157.8 38.4C153.233 38.4 149.333 40.0167 146.1 43.25C142.867 46.45 141.25 50.35 141.25 54.95L135.85 57.75L142 59.8C142.8 62.4333 144.167 64.7 146.1 66.6C149.333 69.8333 153.233 71.45 157.8 71.45C162.333 71.45 166.217 69.8333 169.45 66.6Z" fill="url(#paint0_radial_4_279)"/>
<path d="M168.45 53.85C168.45 52.4833 168.083 51.2167 167.35 50.05C166.683 48.9833 165.783 48.2167 164.65 47.75C163.583 47.2833 162.483 47.1833 161.35 47.45C160.783 47.55 160.217 47.75 159.65 48.05C159.183 48.3167 158.667 48.7 158.1 49.2C157.667 48.7667 157.15 48.3833 156.55 48.05C156.15 47.8167 155.6 47.6 154.9 47.4C153.767 47.2 152.667 47.3 151.6 47.7C150.433 48.2333 149.517 49 148.85 50C148.15 51.1 147.8 52.3667 147.8 53.8C147.8 55.1667 148.267 56.5167 149.2 57.85C150 58.95 151.083 60.0333 152.45 61.1C153.383 61.8667 154.533 62.6 155.9 63.3C156.967 63.8333 157.7 64.1 158.1 64.1C158.567 64.1 159.333 63.8333 160.4 63.3C161.533 62.7667 162.683 62.05 163.85 61.15C165.15 60.15 166.217 59.0667 167.05 57.9C167.983 56.5 168.45 55.15 168.45 53.85Z" fill="#E1251C"/>
<path d="M455.35 74.7C453.017 55.5667 444.233 39.8167 429 27.45C413.767 15.05 396.567 9.64999 377.4 11.25C368.333 11.9833 359.817 14.4 351.85 18.5C343.617 22.7 336.583 28.4 330.75 35.6C324.917 42.8 320.767 50.85 318.3 59.75C315.933 68.35 315.3 77.1667 316.4 86.2C318.733 105.333 327.517 121.083 342.75 133.45C357.983 145.85 375.183 151.25 394.35 149.65C413.55 148.083 429.1 139.967 441 125.3C452.933 110.667 457.717 93.8 455.35 74.7Z" fill="#1B2A49"/>
<path d="M364.15 62.25V72.2H369.6L368.3 86.7H362.35V96.65H367.5L366.2 111.15H377.9L379.2 96.65H389.6L388.35 111.15H400L401.3 96.65H407.65V86.7H402.1L403.4 72.2H409.45V62.25H404.25L405.55 47.75H393.85L392.6 62.25H382.2L383.45 47.75H371.75L370.45 62.25H364.15ZM380 86.7L381.25 72.2H391.7L390.4 86.7H380Z" fill="#FFCB03"/>
<path d="M966.45 30.5C952.783 16.8333 936.283 10 916.95 10C907.45 10 898.367 11.8333 889.7 15.5C881.333 19.0333 873.917 24.0333 867.45 30.5C853.783 44.1667 846.95 60.6667 846.95 80C846.95 99.3333 853.783 115.833 867.45 129.5C881.117 143.167 897.617 150 916.95 150C936.283 150 952.783 143.167 966.45 129.5C980.117 115.833 986.95 99.3333 986.95 80C986.95 60.6667 980.117 44.1667 966.45 30.5Z" fill="#05B9E7"/>
<path d="M956.05 81.05C956.05 70.6167 952.367 61.7 945 54.3C937.633 46.9333 928.733 43.25 918.3 43.25C907.833 43.25 898.917 46.9333 891.55 54.3C887.917 57.9333 885.15 62.1167 883.25 66.85C881.383 71.4167 880.45 76.1667 880.45 81.1L868.1 87.5L882.15 92.25C883.983 98.1833 887.117 103.367 891.55 107.8C898.917 115.167 907.833 118.85 918.3 118.85C928.733 118.85 937.633 115.167 945 107.8C952.367 100.4 956.05 91.4833 956.05 81.05Z" fill="url(#paint1_radial_4_279)"/>
<path d="M916.1 55.25L909.6 68.4L895.05 70.5C893.717 70.7333 892.867 71.4667 892.5 72.7C892.067 73.9667 892.333 75.05 893.3 75.95L903.8 86.2L901.3 100.7C901.067 102 901.5 103.033 902.6 103.8C903.633 104.567 904.75 104.65 905.95 104.05L918.95 97.2L931.95 104.05C932.383 104.283 932.883 104.4 933.45 104.4C934.15 104.4 934.767 104.2 935.3 103.8C936.4 103.033 936.817 102 936.55 100.7L934.1 86.2L944.6 75.95C945.567 74.9833 945.833 73.9 945.4 72.7C945.033 71.4667 944.183 70.7333 942.85 70.5L928.3 68.4L921.8 55.25C921.2 54.05 920.25 53.45 918.95 53.45C918.35 53.45 917.783 53.6167 917.25 53.95C916.717 54.2833 916.333 54.7167 916.1 55.25Z" fill="#FFCB03"/>
<path d="M952.3 52.45C952.767 51.95 953 51.35 953 50.65C952.967 49.95 952.7 49.3667 952.2 48.9C951.7 48.4333 951.117 48.2 950.45 48.2C949.75 48.2333 949.15 48.5 948.65 49L887.9 112.75C887.433 113.25 887.2 113.85 887.2 114.55C887.233 115.25 887.5 115.833 888 116.3C888.467 116.733 889.05 116.95 889.75 116.95C890.45 116.95 891.05 116.7 891.55 116.2L952.3 52.45Z" fill="#E1251C"/>
<path d="M886.15 47.3C885.65 47.7667 885.4 48.35 885.4 49.05C885.4 49.75 885.65 50.3333 886.15 50.8L948.55 113.25C949.017 113.717 949.617 113.95 950.35 113.95C951.05 113.95 951.633 113.717 952.1 113.25C952.6 112.75 952.85 112.167 952.85 111.5C952.85 110.8 952.6 110.2 952.1 109.7L889.7 47.3C889.2 46.8 888.6 46.55 887.9 46.55C887.2 46.55 886.617 46.8 886.15 47.3Z" fill="#E1251C"/>
<path d="M640.9 113.45C642.067 113.45 643.05 113.05 643.85 112.25C644.65 111.45 645.05 110.467 645.05 109.3C645.05 108.167 644.65 107.183 643.85 106.35C643.05 105.55 642.067 105.15 640.9 105.15C639.767 105.15 638.783 105.55 637.95 106.35C637.15 107.183 636.75 108.167 636.75 109.3C636.75 110.467 637.15 111.45 637.95 112.25C638.783 113.05 639.767 113.45 640.9 113.45Z" fill="#C1E4F2"/>
<path d="M721.4 80C721.4 60.6667 714.567 44.1667 700.9 30.5C687.233 16.8333 670.733 10 651.4 10C632.067 10 615.567 16.8333 601.9 30.5C588.233 44.1667 581.4 60.6667 581.4 80C581.4 99.3333 588.233 115.833 601.9 129.5C615.567 143.167 632.067 150 651.4 150C670.733 150 687.233 143.167 700.9 129.5C714.567 115.833 721.4 99.3333 721.4 80Z" fill="#C1E4F2"/>
<path d="M645.5 69.6H638.3L639.85 76.15L634.05 73.05L631.75 79.95L638.55 80.45L633.75 85.05L639.55 89.3L642.2 83.1L644.8 89.3L650.6 85.05L645.75 80.45L652.6 79.95L650.3 73.05L644.3 76.3L645.5 69.6Z" fill="#1B2A49"/>
<path d="M683.75 65.25C683.75 66.4833 684.183 67.5167 685.05 68.35L690.15 73.45H666.1C664.867 73.45 663.817 73.8833 662.95 74.75C662.083 75.6167 661.65 76.6667 661.65 77.9C661.65 79.1333 662.083 80.1667 662.95 81C663.817 81.8667 664.867 82.3 666.1 82.3H690.15L685.05 87.4C684.183 88.2667 683.75 89.3167 683.75 90.55C683.75 91.7833 684.183 92.8167 685.05 93.65C685.883 94.5167 686.917 94.95 688.15 94.95C689.417 94.95 690.467 94.5167 691.3 93.65L704.25 80.7V80.65L704.5 80.35L704.55 80.3L704.7 79.95L704.75 79.9L704.9 79.55V79.5L705.05 79.15V79.1L705.15 78.75V78.7L705.25 77.9L705.15 77.05L705.05 76.65V76.6L704.9 76.25V76.2L704.75 75.85L704.7 75.8L704.55 75.5L704.5 75.45L703.95 74.75L691.3 62.1C690.433 61.2667 689.383 60.85 688.15 60.85C686.95 60.85 685.917 61.2667 685.05 62.1C684.183 62.9667 683.75 64.0167 683.75 65.25Z" fill="#05B9E7"/>
<path d="M608.3 69.6L609.85 76.15L604.05 73.05L601.75 79.95L608.55 80.45L603.75 85.05L609.55 89.3L612.2 83.1L614.8 89.3L620.6 85.05L615.75 80.45L622.6 79.95L620.3 73.05L614.3 76.3L615.5 69.6H608.3Z" fill="#1B2A49"/>
<path d="M13.8 216.35C11.2667 218.917 10 221.983 10 225.55V310.95C10 314.517 11.2667 317.583 13.8 320.15C16.3333 322.683 19.4 323.95 23 323.95H217.7C221.3 323.95 224.367 322.683 226.9 320.15C229.433 317.583 230.7 314.517 230.7 310.95V225.55C230.7 221.983 229.433 218.917 226.9 216.35C224.367 213.817 221.3 212.55 217.7 212.55H23C19.4 212.55 16.3333 213.817 13.8 216.35Z" fill="#E3E2E2"/>
<text fill="#1B2A49" xml:space="preserve" style="white-space: pre" font-family="Arial" font-size="21" letter-spacing="0em"><tspan x="18" y="242.28">Elija una declaraci&#xf3;n </tspan><tspan x="18" y="266.28">que es significativo </tspan><tspan x="18" y="290.28">para usted.</tspan></text>
<path d="M492.65 216.35C490.117 213.817 487.05 212.55 483.45 212.55H288.75C285.15 212.55 282.083 213.817 279.55 216.35C277.017 218.917 275.75 221.983 275.75 225.55V310.95C275.75 314.517 277.017 317.583 279.55 320.15C282.083 322.683 285.15 323.95 288.75 323.95H483.45C487.05 323.95 490.117 322.683 492.65 320.15C495.183 317.583 496.45 314.517 496.45 310.95V225.55C496.45 221.983 495.183 218.917 492.65 216.35Z" fill="#E3E2E2"/>
<text fill="#1B2A49" xml:space="preserve" style="white-space: pre" font-family="Arial" font-size="21" letter-spacing="0em"><tspan x="285" y="240.28">Agregue caracteres </tspan><tspan x="285" y="264.28">especiales, por </tspan><tspan x="285" y="288.28">ejemplo ! @ # $ % ^ </tspan><tspan x="285" y="312.28">&#38; * ( ).</tspan></text>
<path d="M758.4 216.35C755.867 213.817 752.8 212.55 749.2 212.55H554.45C550.883 212.55 547.817 213.817 545.25 216.35C542.717 218.917 541.45 221.983 541.45 225.55V280.95C541.45 284.517 542.717 287.583 545.25 290.15C547.817 292.683 550.883 293.95 554.45 293.95H749.2C752.8 293.95 755.867 292.683 758.4 290.15C760.933 287.583 762.2 284.517 762.2 280.95V225.55C762.2 221.983 760.933 218.917 758.4 216.35Z" fill="#E3E2E2"/>
<text fill="#1B2A49" xml:space="preserve" style="white-space: pre" font-family="Arial" font-size="20" letter-spacing="0em"><tspan x="547" y="239.434">Cuanto m&#xe1;s tiempo </tspan><tspan x="547" y="262.434">mejor.</tspan></text>
<path d="M1027.95 225.55C1027.95 221.983 1026.68 218.917 1024.15 216.35C1021.58 213.817 1018.52 212.55 1014.95 212.55H820.2C816.6 212.55 813.533 213.817 811 216.35C808.467 218.917 807.2 221.983 807.2 225.55V336.95C807.2 340.517 808.467 343.583 811 346.15C813.533 348.683 816.6 349.95 820.2 349.95H1014.95C1018.52 349.95 1021.58 348.683 1024.15 346.15C1026.68 343.583 1027.95 340.517 1027.95 336.95V225.55Z" fill="#E3E2E2"/>
<text fill="#1B2A49" xml:space="preserve" style="white-space: pre" font-family="Arial" font-size="20" letter-spacing="0em"><tspan x="816" y="241.434">Evitar declaraciones </tspan><tspan x="816" y="264.434">famosas, por ejemplo, </tspan><tspan x="816" y="287.434">letras de una canci&#xf3;n </tspan><tspan x="816" y="310.434">popular.</tspan></text>
<defs>
<radialGradient id="paint0_radial_4_279" cx="0" cy="0" r="1" gradientUnits="userSpaceOnUse" gradientTransform="translate(158.35 38.55) rotate(45) scale(32.7921)">
<stop stop-color="#ECECEC"/>
<stop offset="1" stop-color="white"/>
</radialGradient>
<radialGradient id="paint1_radial_4_279" cx="0" cy="0" r="1" gradientUnits="userSpaceOnUse" gradientTransform="translate(919.6 43.55) rotate(45) scale(75.0771)">
<stop stop-color="#ECECEC"/>
<stop offset="1" stop-color="white"/>
</radialGradient>
</defs>
</svg>
